<svg xmlns="http://www.w3.org/2000/svg" xmlns:xlink="http://www.w3.org/1999/xlink" width="129.078" height="96.243" viewBox="0 0 129.078 96.243">
  <defs>
    <linearGradient id="linear-gradient" x1="0.5" y1="1" x2="0.5" gradientUnits="objectBoundingBox">
      <stop offset="0" stop-color="gray" stop-opacity="0.251"/>
      <stop offset="0.54" stop-color="gray" stop-opacity="0.122"/>
      <stop offset="1" stop-color="gray" stop-opacity="0.102"/>
    </linearGradient>
  </defs>
  <g id="Group_741" data-name="Group 741" transform="translate(-1129 -519)">
    <path id="Path_1044" data-name="Path 1044" d="M178.97,109.083q-.6.53-1.235,1.031c-.07.057-.143.119-.215.171a43.4,43.4,0,0,1-4.717,3.187c-1.882,1.112-3.847,2.125-5.838,3.08a96.782,96.782,0,0,1-9.184,3.873l-.141.051q-2.063.735-4.172,1.357l-.025.007q-1.472.43-2.964.794l-.136.033q-2.2.53-4.437.9l-.344.055q-1.638.258-3.3.42a81.616,81.616,0,0,1-18.7-.726,133.789,133.789,0,0,1-36.047-9.846,99.884,99.884,0,0,1-12.4-6.542q-.845-.526-1.679-1.074c-.087-.058-.175-.119-.263-.175-5.483-3.666-10.436-8.13-12.739-13.764-2.57-6.289-.925-14.26,5.44-17.983a25.539,25.539,0,0,1,7.3-2.547l.263-.058c.434-.1.869-.187,1.3-.279,1.515-.321,3.038-.64,4.546-1h0a44.638,44.638,0,0,0,8.126-2.6q.284-.127.566-.261a21.4,21.4,0,0,0,5.849-4.013,8.283,8.283,0,0,0,2.62-4.865h0a5.37,5.37,0,0,0-.067-1.509c-.177-.943-.347-1.864-.477-2.764a14.069,14.069,0,0,1,.011-4.865h0a9.157,9.157,0,0,1,2.517-4.6q.326-.337.7-.67a14.765,14.765,0,0,1,3.884-2.456q.264-.119.53-.223c3.939-1.595,8.674-1.928,13.1-1.708a71.484,71.484,0,0,1,12.274,1.706c.32.072.64.147.955.223a85.139,85.139,0,0,1,10.115,3.126,131.159,131.159,0,0,1,27.207,14.628l.4.273.59.406q.6.415,1.2.836.444.309.886.623h0l.634.45.4.284c2.148,1.552,4.262,3.16,6.221,4.884l.215.191a37.706,37.706,0,0,1,6.28,6.99C191.355,85.022,189.178,100.11,178.97,109.083Z" transform="translate(1069.729 481.187)" fill="#0288d1" opacity="0.1"/>
    <path id="Path_1045" data-name="Path 1045" d="M280.293,54.25v68.9c-.07.057-.143.119-.215.171a43.4,43.4,0,0,1-4.717,3.187H190.086a99.881,99.881,0,0,1-12.414-6.542q-.845-.526-1.679-1.074c-.087-.058-.175-.119-.263-.175V54.257Z" transform="translate(967.17 464.75)" opacity="0.03"/>
    <path id="Path_1046" data-name="Path 1046" d="M282.021,56.12v72.623A43.341,43.341,0,0,1,277.3,132.1H192.023a98.2,98.2,0,0,1-12.414-6.9q-.845-.555-1.679-1.133V56.12Z" transform="translate(965.233 463.103)" fill="#fefefe"/>
    <g id="Group_610" data-name="Group 610" transform="translate(1219.731 545.152)" opacity="0.7">
      <path id="Path_1047" data-name="Path 1047" d="M821.917,273.35a2.507,2.507,0,1,0,2.507,2.507A2.507,2.507,0,0,0,821.917,273.35Zm0,4.536a2.029,2.029,0,0,1-2.029-2.029,1.987,1.987,0,0,1,.113-.666h0a2.029,2.029,0,1,1,1.91,2.692Z" transform="translate(-819.41 -273.35)" fill="#ff6584"/>
      <path id="Path_1048" data-name="Path 1048" d="M832.878,287.164l.315-.316a.14.14,0,0,0,0-.2l-.569-.571.569-.569a.14.14,0,0,0,0-.2l-.315-.316a.141.141,0,0,0-.2,0l-.569.569L831.54,285a.14.14,0,0,0-.2,0l-.316.322a.14.14,0,0,0,0,.2l.569.569-.569.571a.14.14,0,0,0,0,.2l.316.316a.14.14,0,0,0,.2,0l.569-.571.569.571A.143.143,0,0,0,832.878,287.164Z" transform="translate(-829.603 -283.569)" fill="#ff6584"/>
    </g>
    <path id="Path_1049" data-name="Path 1049" d="M761.794,427.3h0a2.507,2.507,0,0,0-1.065-1.613h0a2.516,2.516,0,0,0-1.91-.374l-.075.018a2.351,2.351,0,0,0-.4.129,2.515,2.515,0,0,0,.006,4.624l.072.029a2.507,2.507,0,0,0,3.416-2.342A2.447,2.447,0,0,0,761.794,427.3Zm-.463.772a.014.014,0,0,1,0,.007v.023a2.029,2.029,0,0,1-2.853,1.5q-.036-.016-.07-.035a1.963,1.963,0,0,1-.372-.247,2.029,2.029,0,0,1,.271-3.3,1.928,1.928,0,0,1,.4-.181l.075-.023a2.029,2.029,0,0,1,2.576,1.948A1.941,1.941,0,0,1,761.33,428.074Z" transform="translate(455.434 138.021)" fill="#0288d1" opacity="0.1"/>
    <path id="Path_1050" data-name="Path 1050" d="M770.24,439.073l.316-.316a.14.14,0,0,0,0-.2l-.569-.569.569-.569a.141.141,0,0,0,0-.2l-.316-.315a.14.14,0,0,0-.2,0l-.569.572-.573-.572a.14.14,0,0,0-.2,0l-.316.315a.141.141,0,0,0,0,.2l.571.569-.571.569a.14.14,0,0,0,0,.2l.316.316a.14.14,0,0,0,.2,0l.571-.569.569.569a.14.14,0,0,0,.2,0Z" transform="translate(445.292 127.805)" fill="#0288d1" opacity="0.1"/>
    <path id="Path_1051" data-name="Path 1051" d="M707.366,122.014l-.228-.229a.119.119,0,0,0-.172,0l-1.432,1.419-.605-.61a.119.119,0,0,0-.171,0l-.23.228a.119.119,0,0,0,0,.172l.919.926a.119.119,0,0,0,.172,0l1.746-1.733a.119.119,0,0,0,0-.173Zm0,0-.228-.229a.119.119,0,0,0-.172,0l-1.432,1.419-.605-.61a.119.119,0,0,0-.171,0l-.23.228a.119.119,0,0,0,0,.172l.919.926a.119.119,0,0,0,.172,0l1.746-1.733a.119.119,0,0,0,0-.173Zm0,0-.228-.229a.119.119,0,0,0-.172,0l-1.432,1.419-.605-.61a.119.119,0,0,0-.171,0l-.23.228a.119.119,0,0,0,0,.172l.919.926a.119.119,0,0,0,.172,0l1.746-1.733a.119.119,0,0,0,0-.173Zm0,0-.228-.229a.119.119,0,0,0-.172,0l-1.432,1.419-.605-.61a.119.119,0,0,0-.171,0l-.23.228a.119.119,0,0,0,0,.172l.919.926a.119.119,0,0,0,.172,0l1.746-1.733a.119.119,0,0,0,0-.173Zm-1.419-1.8a2.507,2.507,0,1,0,2.507,2.507A2.507,2.507,0,0,0,705.947,120.21Zm0,4.536a2.027,2.027,0,1,1,1.436-.594,2.029,2.029,0,0,1-1.436.594Zm1.419-2.73-.228-.229a.119.119,0,0,0-.172,0l-1.432,1.419-.605-.61a.119.119,0,0,0-.171,0l-.23.228a.119.119,0,0,0,0,.172l.919.926a.119.119,0,0,0,.172,0l1.746-1.733a.119.119,0,0,0,0-.175Zm0,0-.228-.229a.119.119,0,0,0-.172,0l-1.432,1.419-.605-.61a.119.119,0,0,0-.171,0l-.23.228a.119.119,0,0,0,0,.172l.919.926a.119.119,0,0,0,.172,0l1.746-1.733a.119.119,0,0,0,0-.175Zm0,0-.228-.229a.119.119,0,0,0-.172,0l-1.432,1.419-.605-.61a.119.119,0,0,0-.171,0l-.23.228a.119.119,0,0,0,0,.172l.919.926a.119.119,0,0,0,.172,0l1.746-1.733a.119.119,0,0,0,0-.175Zm0,0-.228-.229a.119.119,0,0,0-.172,0l-1.432,1.419-.605-.61a.119.119,0,0,0-.171,0l-.23.228a.119.119,0,0,0,0,.172l.919.926a.119.119,0,0,0,.172,0l1.746-1.733a.119.119,0,0,0,0-.175Zm0,0-.228-.229a.119.119,0,0,0-.172,0l-1.432,1.419-.605-.61a.119.119,0,0,0-.171,0l-.23.228a.119.119,0,0,0,0,.172l.919.926a.119.119,0,0,0,.172,0l1.746-1.733a.119.119,0,0,0,0-.175Z" transform="translate(502.449 406.663)" fill="#3acc6c" opacity="0.7"/>
    <path id="Path_1052" data-name="Path 1052" d="M744.576,275.155l-.228-.23a.119.119,0,0,0-.172,0l-1.432,1.419-.605-.61a.119.119,0,0,0-.172,0l-.23.228a.119.119,0,0,0,0,.172l.918.926a.119.119,0,0,0,.172,0l1.747-1.733a.119.119,0,0,0,0-.172Zm0,0-.228-.23a.119.119,0,0,0-.172,0l-1.432,1.419-.605-.61a.119.119,0,0,0-.172,0l-.23.228a.119.119,0,0,0,0,.172l.918.926a.119.119,0,0,0,.172,0l1.747-1.733a.119.119,0,0,0,0-.172Zm0,0-.228-.23a.119.119,0,0,0-.172,0l-1.432,1.419-.605-.61a.119.119,0,0,0-.172,0l-.23.228a.119.119,0,0,0,0,.172l.918.926a.119.119,0,0,0,.172,0l1.747-1.733a.119.119,0,0,0,0-.172Zm0,0-.228-.23a.119.119,0,0,0-.172,0l-1.432,1.419-.605-.61a.119.119,0,0,0-.172,0l-.23.228a.119.119,0,0,0,0,.172l.918.926a.119.119,0,0,0,.172,0l1.747-1.733a.119.119,0,0,0,0-.172Zm-1.419-1.8a2.507,2.507,0,1,0,2.507,2.507A2.507,2.507,0,0,0,743.157,273.35Zm0,4.536a2.025,2.025,0,1,1,1.436-.593,2.029,2.029,0,0,1-1.436.593Zm1.419-2.73-.228-.23a.119.119,0,0,0-.172,0l-1.432,1.419-.605-.61a.119.119,0,0,0-.172,0l-.23.228a.119.119,0,0,0,0,.172l.918.926a.119.119,0,0,0,.172,0l1.747-1.733a.119.119,0,0,0,0-.173Zm0,0-.228-.23a.119.119,0,0,0-.172,0l-1.432,1.419-.605-.61a.119.119,0,0,0-.172,0l-.23.228a.119.119,0,0,0,0,.172l.918.926a.119.119,0,0,0,.172,0l1.747-1.733a.119.119,0,0,0,0-.173Zm0,0-.228-.23a.119.119,0,0,0-.172,0l-1.432,1.419-.605-.61a.119.119,0,0,0-.172,0l-.23.228a.119.119,0,0,0,0,.172l.918.926a.119.119,0,0,0,.172,0l1.747-1.733a.119.119,0,0,0,0-.173Zm0,0-.228-.23a.119.119,0,0,0-.172,0l-1.432,1.419-.605-.61a.119.119,0,0,0-.172,0l-.23.228a.119.119,0,0,0,0,.172l.918.926a.119.119,0,0,0,.172,0l1.747-1.733a.119.119,0,0,0,0-.173Zm0,0-.228-.23a.119.119,0,0,0-.172,0l-1.432,1.419-.605-.61a.119.119,0,0,0-.172,0l-.23.228a.119.119,0,0,0,0,.172l.918.926a.119.119,0,0,0,.172,0l1.747-1.733a.119.119,0,0,0,0-.173Z" transform="translate(469.68 271.802)" fill="#0288d1" opacity="0.1"/>
    <path id="Path_1053" data-name="Path 1053" d="M681.706,428.295l-.228-.23a.119.119,0,0,0-.172,0l-1.432,1.419-.605-.61a.119.119,0,0,0-.172,0l-.23.228a.119.119,0,0,0,0,.172l.918.926a.119.119,0,0,0,.172,0l1.747-1.733a.119.119,0,0,0,0-.172Zm0,0-.228-.23a.119.119,0,0,0-.172,0l-1.432,1.419-.605-.61a.119.119,0,0,0-.172,0l-.23.228a.119.119,0,0,0,0,.172l.918.926a.119.119,0,0,0,.172,0l1.747-1.733a.119.119,0,0,0,0-.172Zm0,0-.228-.23a.119.119,0,0,0-.172,0l-1.432,1.419-.605-.61a.119.119,0,0,0-.172,0l-.23.228a.119.119,0,0,0,0,.172l.918.926a.119.119,0,0,0,.172,0l1.747-1.733a.119.119,0,0,0,0-.172Zm0,0-.228-.23a.119.119,0,0,0-.172,0l-1.432,1.419-.605-.61a.119.119,0,0,0-.172,0l-.23.228a.119.119,0,0,0,0,.172l.918.926a.119.119,0,0,0,.172,0l1.747-1.733a.119.119,0,0,0,0-.172Zm-1.419-1.8A2.507,2.507,0,1,0,682.793,429a2.507,2.507,0,0,0-2.507-2.507Zm0,4.536a2.024,2.024,0,1,1,1.437-.593,2.029,2.029,0,0,1-1.437.593Zm1.419-2.73-.228-.23a.119.119,0,0,0-.172,0l-1.432,1.419-.605-.61a.119.119,0,0,0-.172,0l-.23.228a.119.119,0,0,0,0,.172l.918.926a.119.119,0,0,0,.172,0l1.747-1.733a.119.119,0,0,0,0-.173Zm0,0-.228-.23a.119.119,0,0,0-.172,0l-1.432,1.419-.605-.61a.119.119,0,0,0-.172,0l-.23.228a.119.119,0,0,0,0,.172l.918.926a.119.119,0,0,0,.172,0l1.747-1.733a.119.119,0,0,0,0-.173Zm0,0-.228-.23a.119.119,0,0,0-.172,0l-1.432,1.419-.605-.61a.119.119,0,0,0-.172,0l-.23.228a.119.119,0,0,0,0,.172l.918.926a.119.119,0,0,0,.172,0l1.747-1.733a.119.119,0,0,0,0-.173Zm0,0-.228-.23a.119.119,0,0,0-.172,0l-1.432,1.419-.605-.61a.119.119,0,0,0-.172,0l-.23.228a.119.119,0,0,0,0,.172l.918.926a.119.119,0,0,0,.172,0l1.747-1.733a.119.119,0,0,0,0-.173Zm0,0-.228-.23a.119.119,0,0,0-.172,0l-1.432,1.419-.605-.61a.119.119,0,0,0-.172,0l-.23.228a.119.119,0,0,0,0,.172l.918.926a.119.119,0,0,0,.172,0l1.747-1.733a.119.119,0,0,0,0-.173Z" transform="translate(525.046 136.941)" fill="#3acc6c" opacity="0.7"/>
    <path id="Path_1054" data-name="Path 1054" d="M641.386,581.444l-.228-.229a.119.119,0,0,0-.172,0l-1.432,1.419-.605-.61a.119.119,0,0,0-.172,0l-.229.229a.119.119,0,0,0,0,.171l.919.926a.119.119,0,0,0,.172,0l1.746-1.733a.119.119,0,0,0,0-.173Zm0,0-.228-.229a.119.119,0,0,0-.172,0l-1.432,1.419-.605-.61a.119.119,0,0,0-.172,0l-.229.229a.119.119,0,0,0,0,.171l.919.926a.119.119,0,0,0,.172,0l1.746-1.733a.119.119,0,0,0,0-.173Zm0,0-.228-.229a.119.119,0,0,0-.172,0l-1.432,1.419-.605-.61a.119.119,0,0,0-.172,0l-.229.229a.119.119,0,0,0,0,.171l.919.926a.119.119,0,0,0,.172,0l1.746-1.733a.119.119,0,0,0,0-.173Zm0,0-.228-.229a.119.119,0,0,0-.172,0l-1.432,1.419-.605-.61a.119.119,0,0,0-.172,0l-.229.229a.119.119,0,0,0,0,.171l.919.926a.119.119,0,0,0,.172,0l1.746-1.733a.119.119,0,0,0,0-.173Zm-1.419-1.8a2.507,2.507,0,1,0,2.507,2.507A2.507,2.507,0,0,0,639.967,579.64Zm0,4.536A2.029,2.029,0,1,1,642,582.147a2.029,2.029,0,0,1-2.029,2.029Zm1.419-2.731-.228-.229a.119.119,0,0,0-.172,0l-1.432,1.419-.605-.61a.119.119,0,0,0-.172,0l-.229.229a.119.119,0,0,0,0,.171l.919.926a.119.119,0,0,0,.172,0l1.746-1.733a.119.119,0,0,0,0-.174Zm0,0-.228-.229a.119.119,0,0,0-.172,0l-1.432,1.419-.605-.61a.119.119,0,0,0-.172,0l-.229.229a.119.119,0,0,0,0,.171l.919.926a.119.119,0,0,0,.172,0l1.746-1.733a.119.119,0,0,0,0-.174Zm0,0-.228-.229a.119.119,0,0,0-.172,0l-1.432,1.419-.605-.61a.119.119,0,0,0-.172,0l-.229.229a.119.119,0,0,0,0,.171l.919.926a.119.119,0,0,0,.172,0l1.746-1.733a.119.119,0,0,0,0-.174Zm0,0-.228-.229a.119.119,0,0,0-.172,0l-1.432,1.419-.605-.61a.119.119,0,0,0-.172,0l-.229.229a.119.119,0,0,0,0,.171l.919.926a.119.119,0,0,0,.172,0l1.746-1.733a.119.119,0,0,0,0-.174Zm0,0-.228-.229a.119.119,0,0,0-.172,0l-1.432,1.419-.605-.61a.119.119,0,0,0-.172,0l-.229.229a.119.119,0,0,0,0,.171l.919.926a.119.119,0,0,0,.172,0l1.746-1.733a.119.119,0,0,0,0-.174Z" transform="translate(560.553 2.071)" fill="#0288d1" opacity="0.1"/>
    <path id="Path_1055" data-name="Path 1055" d="M884.04,198.583l-.228-.226a.119.119,0,0,0-.172,0l-.745.74-.268.266h0l-.023.021h0l-.14.14h0l-.249.247-.605-.61a.119.119,0,0,0-.172,0l-.23.228a.119.119,0,0,0,0,.172l.866.875.051.051a.128.128,0,0,0,.07.036.119.119,0,0,0,.1-.035l.723-.716.239-.239.783-.777a.119.119,0,0,0,0-.174Zm0,0-.228-.226a.119.119,0,0,0-.172,0l-.745.74-.268.266h0l-.023.021h0l-.14.14h0l-.249.247-.605-.61a.119.119,0,0,0-.172,0l-.23.228a.119.119,0,0,0,0,.172l.866.875.051.051a.128.128,0,0,0,.07.036.119.119,0,0,0,.1-.035l.723-.716.239-.239.783-.777a.119.119,0,0,0,0-.174Zm0,0-.228-.226a.119.119,0,0,0-.172,0l-.745.74-.268.266h0l-.023.021h0l-.14.14h0l-.249.247-.605-.61a.119.119,0,0,0-.172,0l-.23.228a.119.119,0,0,0,0,.172l.866.875.051.051a.128.128,0,0,0,.07.036.119.119,0,0,0,.1-.035l.723-.716.239-.239.783-.777a.119.119,0,0,0,0-.174Zm0,0-.228-.226a.119.119,0,0,0-.172,0l-.745.74-.268.266h0l-.023.021h0l-.14.14h0l-.249.247-.605-.61a.119.119,0,0,0-.172,0l-.23.228a.119.119,0,0,0,0,.172l.866.875.051.051a.128.128,0,0,0,.07.036.119.119,0,0,0,.1-.035l.723-.716.239-.239.783-.777a.119.119,0,0,0,0-.174Zm-1.419-1.8a2.507,2.507,0,0,0-.825,4.881c.026.01.052.019.08.026a2.507,2.507,0,0,0,1.671-.062,2.325,2.325,0,0,0,.358-.178,2.507,2.507,0,0,0-1.284-4.667Zm.889,4.329a1.981,1.981,0,0,1-.26.106,2.043,2.043,0,0,1-1.173.025c-.054-.016-.107-.032-.159-.051a2.029,2.029,0,1,1,1.592-.08Zm.53-2.526-.228-.226a.119.119,0,0,0-.172,0l-.745.74-.268.266h0l-.023.021h0l-.14.14h0l-.249.247-.605-.61a.119.119,0,0,0-.172,0l-.23.228a.119.119,0,0,0,0,.172l.866.875.051.051a.128.128,0,0,0,.07.036.119.119,0,0,0,.1-.035l.723-.716.239-.239.783-.777a.119.119,0,0,0,0-.174Zm0,0-.228-.226a.119.119,0,0,0-.172,0l-.745.74-.268.266h0l-.023.021h0l-.14.14h0l-.249.247-.605-.61a.119.119,0,0,0-.172,0l-.23.228a.119.119,0,0,0,0,.172l.866.875.051.051a.128.128,0,0,0,.07.036.119.119,0,0,0,.1-.035l.723-.716.239-.239.783-.777a.119.119,0,0,0,0-.174Zm0,0-.228-.226a.119.119,0,0,0-.172,0l-.745.74-.268.266h0l-.023.021h0l-.14.14h0l-.249.247-.605-.61a.119.119,0,0,0-.172,0l-.23.228a.119.119,0,0,0,0,.172l.866.875.051.051a.128.128,0,0,0,.07.036.119.119,0,0,0,.1-.035l.723-.716.239-.239.783-.777a.119.119,0,0,0,0-.174Zm0,0-.228-.226a.119.119,0,0,0-.172,0l-.745.74-.268.266h0l-.023.021h0l-.14.14h0l-.249.247-.605-.61a.119.119,0,0,0-.172,0l-.23.228a.119.119,0,0,0,0,.172l.866.875.051.051a.128.128,0,0,0,.07.036.119.119,0,0,0,.1-.035l.723-.716.239-.239.783-.777a.119.119,0,0,0,0-.174Zm0,0-.228-.226a.119.119,0,0,0-.172,0l-.745.74-.268.266h0l-.023.021h0l-.14.14h0l-.249.247-.605-.61a.119.119,0,0,0-.172,0l-.23.228a.119.119,0,0,0,0,.172l.866.875.051.051a.128.128,0,0,0,.07.036.119.119,0,0,0,.1-.035l.723-.716.239-.239.783-.777a.119.119,0,0,0,0-.174Z" transform="translate(346.881 339.233)" fill="#3acc6c" opacity="0.7"/>
    <rect id="Rectangle_268" data-name="Rectangle 268" width="52.411" height="4.865" rx="2.433" transform="translate(1149.007 526.951)" fill="#0288d1" opacity="0.2"/>
    <rect id="Rectangle_269" data-name="Rectangle 269" width="73.611" height="4.865" rx="2.433" transform="translate(1149.007 536.09)" fill="#0288d1" opacity="0.2"/>
    <rect id="Rectangle_270" data-name="Rectangle 270" width="56.878" height="4.865" rx="2.433" transform="translate(1149.007 545.229)" fill="#0288d1" opacity="0.1"/>
    <rect id="Rectangle_271" data-name="Rectangle 271" width="73.611" height="4.865" rx="2.433" transform="translate(1149.007 554.369)" fill="#0288d1" opacity="0.1"/>
    <rect id="Rectangle_272" data-name="Rectangle 272" width="49.58" height="4.865" rx="2.433" transform="translate(1149.007 563.508)" fill="#0288d1" opacity="0.2"/>
    <rect id="Rectangle_273" data-name="Rectangle 273" width="73.611" height="4.865" rx="2.433" transform="translate(1149.007 572.649)" fill="#0288d1" opacity="0.1"/>
    <rect id="Rectangle_274" data-name="Rectangle 274" width="44.534" height="4.865" rx="2.433" transform="translate(1149.007 581.789)" fill="#0288d1" opacity="0.1"/>
    <path id="Path_1056" data-name="Path 1056" d="M785.2,120.21a2.507,2.507,0,1,0,2.507,2.507A2.507,2.507,0,0,0,785.2,120.21Zm0,4.536a2.027,2.027,0,1,1,1.436-.594,2.029,2.029,0,0,1-1.436.594Z" transform="translate(432.658 406.663)" fill="#0288d1" opacity="0.1"/>
    <path id="Path_1057" data-name="Path 1057" d="M796.154,134.023l.316-.315a.141.141,0,0,0,0-.2l-.571-.569.569-.569a.141.141,0,0,0,0-.2l-.316-.315a.14.14,0,0,0-.2,0l-.569.569-.569-.569a.141.141,0,0,0-.2,0l-.315.315a.14.14,0,0,0,0,.2l.569.569-.568.568a.14.14,0,0,0,0,.2l.315.315a.141.141,0,0,0,.2,0l.569-.569.569.569a.14.14,0,0,0,.2,0Z" transform="translate(422.469 396.444)" fill="#0288d1" opacity="0.1"/>
    <path id="Path_1058" data-name="Path 1058" d="M961.507,196.78a2.5,2.5,0,1,0,1.775.732A2.507,2.507,0,0,0,961.507,196.78Zm0,4.536a2.029,2.029,0,1,1,1.736-.984,2.029,2.029,0,0,1-1.736.984Z" transform="translate(277.392 339.233)" fill="#0288d1" opacity="0.1"/>
    <path id="Path_1059" data-name="Path 1059" d="M972.465,210.593l.316-.315a.141.141,0,0,0,0-.2l-.571-.569.571-.569a.14.14,0,0,0,0-.2l-.316-.316a.14.14,0,0,0-.2,0L971.7,209l-.569-.569a.14.14,0,0,0-.2,0l-.316.316a.14.14,0,0,0,0,.2l.569.569-.569.569a.141.141,0,0,0,0,.2l.316.315a.137.137,0,0,0,.2,0l.569-.569.571.569A.14.14,0,0,0,972.465,210.593Z" transform="translate(267.2 329.013)" fill="#0288d1" opacity="0.1"/>
    <g id="Group_611" data-name="Group 611" transform="translate(1207.344 581.711)" opacity="0.7">
      <path id="Path_1060" data-name="Path 1060" d="M718.137,579.64a2.507,2.507,0,1,0,2.507,2.507A2.507,2.507,0,0,0,718.137,579.64Zm0,4.536a2.025,2.025,0,1,1,1.436-.593,2.029,2.029,0,0,1-1.436.593Z" transform="translate(-715.63 -579.64)" fill="#ff6584"/>
      <path id="Path_1061" data-name="Path 1061" d="M729.1,593.453l.315-.315a.141.141,0,0,0,0-.2l-.569-.569.569-.569a.14.14,0,0,0,0-.2l-.315-.316a.141.141,0,0,0-.2,0l-.569.569-.569-.569a.14.14,0,0,0-.2,0l-.316.316a.14.14,0,0,0,0,.2l.569.569-.569.569a.141.141,0,0,0,0,.2l.316.315a.137.137,0,0,0,.2,0l.569-.569.569.569a.141.141,0,0,0,.2,0Z" transform="translate(-725.822 -589.859)" fill="#ff6584"/>
    </g>
    <ellipse id="Ellipse_123" data-name="Ellipse 123" cx="14.19" cy="0.692" rx="14.19" ry="0.692" transform="translate(1206.31 613.134)" fill="#0288d1" opacity="0.1"/>
    <path id="Path_1062" data-name="Path 1062" d="M783.641,242.619s-3.355-6.133-2.788-7.131a13.448,13.448,0,0,0,.981-2.442s1.239-.847,1.239-1.194.981-1.147,1.5-1.5.258-1.995,0-2.194a4.547,4.547,0,0,1-.667-.9s.358-1,0-1.3.052-.6,0-.9a12.051,12.051,0,0,1,0-1.4,2.249,2.249,0,0,0-1.32-.955l-.038-.158-.221-.93s1.074-2.059-.668-3.137a2.905,2.905,0,0,0-.386-.2,1.342,1.342,0,0,0-.01-.135,8.364,8.364,0,0,0-.253-1.577c-.091-.289-.209-.483-.358-.439a.238.238,0,0,0-.1.056,1.084,1.084,0,0,0-.185.218h0a.053.053,0,0,1-.008.013h0a3.744,3.744,0,0,0-.411,1.14,6.609,6.609,0,0,0-.119.716h0a3.922,3.922,0,0,0-.2.443,2.553,2.553,0,0,0-.008,2.2c.382.6.9,1.417,1.27,2.014l.012.019.023.037-.039.025.006.092.035.5.295,4.341a1.847,1.847,0,0,0-.265-.056,2.412,2.412,0,0,0-.386-.025,24.4,24.4,0,0,1-1.068-2.943,2.769,2.769,0,0,1-.02-.312c.011-.651.173-1.3.16-1.953a3.582,3.582,0,0,0-.012-.358h0a.354.354,0,0,0-.01-.1,2.935,2.935,0,0,0-1.6-2.224c-.3-.149-.624-.248-.915-.412a16.245,16.245,0,0,1-1.715-1.524,1.9,1.9,0,0,0-1.641-.358,7.574,7.574,0,0,0-.8.165h0a7.207,7.207,0,0,0-1.828.759c-.078.047-.155.094-.229.149a1.011,1.011,0,0,0-.369.431,1.127,1.127,0,0,0-.057.464c0,.113,0,.229.007.343-.033,1.91-2.091,3.387-2.261,5.252,0,.044-.007.088-.01.132v.2h0v.149c.03.818.455,1.579.532,2.393.007.073.011.144.012.217a3.612,3.612,0,0,1-.211,1.1,3.205,3.205,0,0,0-.741.3,4.618,4.618,0,0,0-2.166,2.425,3.556,3.556,0,0,0-.156,1.065,22.23,22.23,0,0,1-.349,3.8,7.109,7.109,0,0,1-.22.935.219.219,0,0,0-.007.092l-.248,3.223-.044.567-.062.807s.018.049.044.131a3.77,3.77,0,0,1,.1.372,2.005,2.005,0,0,1,.032.836.576.576,0,0,1-.174.307.134.134,0,0,0-.02.023,2.478,2.478,0,0,0-.189.821c-.021.167-.042.358-.062.556-.119,1.271-.193,3.174-.239,4.747-.043,1.552-.058,2.778-.058,2.778a3.171,3.171,0,0,0,.641.317c-.017.042-.035.085-.051.13a6.272,6.272,0,0,0-.389,1.64,2.86,2.86,0,0,0,1.864,3.148,2.628,2.628,0,0,0,.321.11,1.018,1.018,0,0,0,.816-.05c0,.07.008.138.012.207.017.291.031.557.038.781.051,1.4.4,3.839.4,3.839a5.081,5.081,0,0,1,.016,1.3,7.037,7.037,0,0,0,0,1.5s.358.6,0,.9a3.181,3.181,0,0,0-.358,1.995.059.059,0,0,1,0,.023c.079.5-.366,7.855-.366,7.855s-.421,1.127-.757,2.3c-.327,1.139-.573,2.318-.27,2.539a2.535,2.535,0,0,0,.944.255c0,.049-.007.1-.012.148a4.252,4.252,0,0,1-.209,1.237,14.041,14.041,0,0,0-.358,2.626l-.007.094a8.809,8.809,0,0,0-.384,1.115s-1.142,2.865-.755,3.608a.609.609,0,0,0,.142.175h0a.327.327,0,0,0,.037.033,5.254,5.254,0,0,0,2.429.553l-.019.709v.026h.651v-.018c0-.09.014-.5.036-1.049,0-.1.007-.2.012-.306,0-.082.008-.166.012-.252a4.413,4.413,0,0,0,.283-1.592,6.99,6.99,0,0,1,.251-1.848,5.135,5.135,0,0,1,.331-.9,4.115,4.115,0,0,0-.08-1.835,1.325,1.325,0,0,0-.239-.413v-.239a6.894,6.894,0,0,1,.153-1.53.2.2,0,0,1,0-.024c.01-.042.02-.081.031-.119l.007-.026.211.007c.648.018,1.124.018,1.124.018a24.244,24.244,0,0,0,.465-3.789v-.155a14.758,14.758,0,0,1,.313-2.687l.413-4.038a2.124,2.124,0,0,1,0-1.194c.128-.308.391-.88.575-1.274.086-.183.154-.326.183-.388l.017-.033a.772.772,0,0,1-.184-.092h0c-.168-.112-.319-.332.185-.655.775-.5.517-1.745.517-1.745a.9.9,0,0,1,.041-.847c.269-.4,0-1.894,0-1.894a6.262,6.262,0,0,0,.523-1.252c.192-.6.678-3.515.907-4.922.075-.462.119-.76.119-.76l.007.073.007.079h0l.064.665.008.088.119,1.257a38.7,38.7,0,0,1,.089,4.6v.024a1.536,1.536,0,0,1-.087.393,15.577,15.577,0,0,0-.21,3.632v.11a2.2,2.2,0,0,0-.146.843h0a.541.541,0,0,0,.094.251.634.634,0,0,1,.092.388v.012a1.4,1.4,0,0,1-.014.172,3.269,3.269,0,0,1-.182.676,2.474,2.474,0,0,0-.172,1.109h0a.352.352,0,0,0,.068.135.317.317,0,0,1,.039.143.059.059,0,0,0,0,.013c.1.8-.153,4.35-.3,6.29-.06.766-.1,1.282-.1,1.282l-.4,4.242.041.029c.047.033.134.091.251.16v.01l-.018.128c-.058.408-.137.883-.223,1.246-.007.027-.013.054-.02.079a1.143,1.143,0,0,0-.438.175c-.869,1.543-.484,2.767,0,3.122a1.254,1.254,0,0,1,.292.729l.119,1.539v.177a.456.456,0,0,0,.023.141l.037.467.05.649h.4v-.785h.021c.625.021,1.634.048,2.073.013h.012a.775.775,0,0,0,.119-.013.3.3,0,0,0,.069-.019c.233-.112.813-1.757.29-2.131a2.412,2.412,0,0,1-.639-1.432c-.045-.138-.091-.27-.137-.4v-.081a6.566,6.566,0,0,1,.062-1.368,10.412,10.412,0,0,0,.136-1.634v-.152a2.04,2.04,0,0,0,.266-.087l.019-.008a1.878,1.878,0,0,0,.445-.264l1.447-6.48.154-.753.873-4.273s-.309-1.5,0-1.744c.119-.091.144-.477.137-.925-.012-.783-.137-1.768-.137-1.768s.413-.648.621-1.047a3.251,3.251,0,0,0,0-1.445l.412-2.387a22.546,22.546,0,0,1,1.6-5.246c.836-1.761.3-6.515-.239-9.045-.014-.066-.029-.13-.043-.192v-.01c.255-.127.568-.279.9-.439l.126-.06c.424-.2.873-.4,1.275-.575l.026-.011a8.9,8.9,0,0,1,.887-.332,1.49,1.49,0,0,1,.272-.056C785.81,246.41,783.641,242.619,783.641,242.619Zm-16.151,8.117h.215c-.025.047-.049.094-.073.142-.014.029-.029.056-.042.085-.079.163-.152.331-.211.494.024-.177.054-.369.087-.574C767.475,250.828,767.482,250.78,767.49,250.736Zm-.58,3.1a.077.077,0,0,0,0-.017l-.018-.056c-.013-.038-.025-.076-.037-.113q.111-.035.226-.075l.016-.006v.039a1.3,1.3,0,0,1-.02.167h0a.126.126,0,0,1,0,.021,1.163,1.163,0,0,1-.016.131c-.011.086-.021.169-.031.249-.023-.075-.045-.149-.069-.222A.41.41,0,0,1,766.91,253.839Z" transform="translate(449.135 322.185)" fill="url(#linear-gradient)"/>
    <path id="Path_1063" data-name="Path 1063" d="M894.581,225.288l-1.289.457-.468-.776c-.358-.6-.855-1.413-1.221-2.006-.647-1.044.2-2.634.2-2.634a4.315,4.315,0,0,1,.695-2.086c.547-.5.7,2.086.7,2.086,2.186.994,1.015,3.329,1.015,3.329l.212.927Z" transform="translate(336.96 320.388)" fill="#a1616a"/>
    <path id="Path_1064" data-name="Path 1064" d="M905.387,272.236l-1.289.457-.468-.776v-.068a2.245,2.245,0,0,1,1.6-.316Z" transform="translate(326.153 273.44)" opacity="0.1"/>
    <path id="Path_1065" data-name="Path 1065" d="M900.89,278.591l.646-.542-.323-4.92a2.044,2.044,0,0,1,2.908.647,12.561,12.561,0,0,0,0,1.392c.05.3-.347.6,0,.894s0,1.291,0,1.291a4.524,4.524,0,0,0,.641.9c.248.2.5,1.838,0,2.187s-1.441,1.142-1.441,1.491-1.194,1.194-1.194,1.194l-1.044-1.392Z" transform="translate(328.566 272.312)" fill="#5a5773"/>
    <path id="Path_1066" data-name="Path 1066" d="M770.53,525.017c-2.409-1.022-1.874-3.518-1.42-4.774a6.638,6.638,0,0,1,.319-.745l1.354-.818s.276.7.571,1.647C772.034,522.513,772.82,525.988,770.53,525.017Z" transform="translate(444.961 55.755)" fill="#a1616a"/>
    <path id="Path_1067" data-name="Path 1067" d="M788.408,757.794a4.019,4.019,0,0,0-.358,1,7.26,7.26,0,0,0-.149,1.712c.01.4.043.658.043.658l-2.683,1.845s.016-.216.042-.533a14.883,14.883,0,0,1,.35-2.616,4.374,4.374,0,0,0,.2-1.232c.042-.524.058-.986.058-.986S789.134,756.433,788.408,757.794Z" transform="translate(430.395 -154.249)" fill="#a1616a"/>
    <path id="Path_1068" data-name="Path 1068" d="M845.316,771.862s0,.513-.019,1.11a11.374,11.374,0,0,1-.13,1.629,6.7,6.7,0,0,0-.061,1.363c.018.6.061,1.134.061,1.134s-2.745-2.59-2.46-2.8a1.267,1.267,0,0,0,.217-.569c.083-.358.159-.836.215-1.243.067-.477.109-.871.109-.871Z" transform="translate(379.823 -166.994)" fill="#a1616a"/>
    <path id="Path_1069" data-name="Path 1069" d="M792.784,757.794a4.025,4.025,0,0,0-.358,1,21.6,21.6,0,0,1-2.2-.167c.041-.513.059-.986.059-.986S793.511,756.433,792.784,757.794Z" transform="translate(426.018 -154.249)" opacity="0.1"/>
    <path id="Path_1070" data-name="Path 1070" d="M848.657,771.889s0,.513-.019,1.11a2.987,2.987,0,0,1-2.158-.477c.067-.477.109-.871.109-.871Z" transform="translate(376.482 -167.02)" opacity="0.1"/>
    <path id="Path_1071" data-name="Path 1071" d="M797.127,482.3a23.185,23.185,0,0,0-1.541,5.217l-.4,2.387a3.383,3.383,0,0,1,0,1.441c-.2.4-.6,1.043-.6,1.043s.3,2.436,0,2.683,0,1.74,0,1.74l-.994,5.019-1.392,6.46c-1.342,1.093-3.127-.3-3.127-.3l.394-4.223s.6-7.4.349-7.7.1-1.241.1-1.241.349-.9.1-1.244.049-1.093.049-1.093a17.485,17.485,0,0,1,.2-3.727c.3-.7,0-5,0-5l-.119-1.34-.068-.742-.007-.073s-.045.3-.119.759c-.22,1.4-.687,4.309-.872,4.907a6.39,6.39,0,0,1-.516,1.237s.258,1.491,0,1.888a.925.925,0,0,0-.039.845s.248,1.241-.5,1.739,0,.745,0,.745-.547,1.194-.745,1.69a2.21,2.21,0,0,0,0,1.194l-.389,4.024a14.558,14.558,0,0,0-.3,2.832,24.783,24.783,0,0,1-.454,3.783s-3.827,0-4.416-.448.991-4.826.991-4.826.448-7.654.347-7.853a3.261,3.261,0,0,1,.349-1.987c.349-.3,0-.894,0-.894a7.335,7.335,0,0,1,0-1.491,5.286,5.286,0,0,0-.016-1.293s-.333-2.435-.382-3.827-.3-4.523-.3-4.523.26-1.936.3-2.857a3.341,3.341,0,0,1,.352-1.16,10.411,10.411,0,0,1,.74-1.3s11.777-3.478,12.275-3.131a4.5,4.5,0,0,1,.511,1.621C797.418,475.8,797.931,480.541,797.127,482.3Z" transform="translate(433.621 97.184)" fill="#605d82"/>
    <circle id="Ellipse_124" data-name="Ellipse 124" cx="3.429" cy="3.429" r="3.429" transform="translate(1220.063 542.247)" fill="#a1616a"/>
    <path id="Path_1072" data-name="Path 1072" d="M809.956,473.281c-.4.2-.66.343-.66.343s-5.566,2.634-7.153,2.485c-1.225-.119-4.351-.053-5.713-.018a10.432,10.432,0,0,1,.74-1.3s11.777-3.478,12.275-3.131A4.481,4.481,0,0,1,809.956,473.281Z" transform="translate(420.558 97.184)" opacity="0.1"/>
    <path id="Path_1073" data-name="Path 1073" d="M781.376,317.123a17.927,17.927,0,0,0-3.926.994,4.087,4.087,0,0,0-2.237,3.479,19.722,19.722,0,0,1-.547,4.721c-.2.6,3.136,5.413,3.136,5.413l-1.194,7.3s4.774-.148,6.364,0,7.153-2.484,7.153-2.484a26.114,26.114,0,0,1,3.976-1.79c.7-.05-1.392-3.827-1.392-3.827s-3.23-6.112-2.683-7.107a13.594,13.594,0,0,0,.944-2.435l-.6-5.069a1.955,1.955,0,0,0-1.64.248c-.746.545-3.28.249-3.28.249Z" transform="translate(439.731 234.029)" fill="#5a5773"/>
    <path id="Path_1074" data-name="Path 1074" d="M770,379.542l-1.243.349-.349,4.672s.448,1.241,0,1.64-.547,8.895-.547,8.895a3.246,3.246,0,0,0,3.131.248s-.248-.944.5-4.373a27.329,27.329,0,0,0,.745-5.168s0-4.273.349-4.969a5.481,5.481,0,0,0,0-2.435s-.7-.944-.647-1.293S770,379.542,770,379.542Z" transform="translate(445.718 180.456)" opacity="0.1"/>
    <path id="Path_1075" data-name="Path 1075" d="M774.23,520.327a3.165,3.165,0,0,1-2.24-.082,6.613,6.613,0,0,1,.319-.745l1.354-.82S773.935,519.383,774.23,520.327Z" transform="translate(442.081 55.755)" opacity="0.1"/>
    <path id="Path_1076" data-name="Path 1076" d="M769.377,379.542l-1.243.349-.347,4.672s.448,1.241,0,1.64-.547,8.895-.547,8.895a3.245,3.245,0,0,0,3.131.248s-.248-.944.5-4.373a27.548,27.548,0,0,0,.746-5.168s0-4.273.347-4.969a5.5,5.5,0,0,0,0-2.435s-.7-.944-.646-1.293S769.377,379.542,769.377,379.542Z" transform="translate(446.264 180.456)" fill="#5a5773"/>
    <path id="Path_1077" data-name="Path 1077" d="M873.025,404s-.646,5.566-2.535,6.609C870.49,410.607,874.714,409.414,873.025,404Z" transform="translate(355.338 156.746)" opacity="0.1"/>
    <path id="Path_1078" data-name="Path 1078" d="M812.21,408.14s2.335,1.143,1.79,1.938S812.21,408.14,812.21,408.14Z" transform="translate(406.661 153.101)" opacity="0.1"/>
    <path id="Path_1079" data-name="Path 1079" d="M812.21,427.3s1.491,1.54,1.194,2.086S812.21,427.3,812.21,427.3Z" transform="translate(406.661 136.228)" opacity="0.1"/>
    <path id="Path_1080" data-name="Path 1080" d="M913,320.29a5.294,5.294,0,0,1,.641,1.64C913.7,322.576,913,320.29,913,320.29Z" transform="translate(317.902 230.465)" opacity="0.1"/>
    <path id="Path_1081" data-name="Path 1081" d="M913,308.236s.294-.248,1.043,0S913,308.236,913,308.236Z" transform="translate(317.902 241.177)" opacity="0.1"/>
    <path id="Path_1082" data-name="Path 1082" d="M856.979,544.572a6.912,6.912,0,0,1-3.635-.466l-.627,1.6-.068-.742c.1-.622.3-1.289.695-1.457A6.019,6.019,0,0,0,856.979,544.572Z" transform="translate(371.048 33.889)" opacity="0.1"/>
    <path id="Path_1083" data-name="Path 1083" d="M803.51,569.89a22.711,22.711,0,0,0,3.914.523Z" transform="translate(414.323 10.657)" opacity="0.1"/>
    <path id="Path_1084" data-name="Path 1084" d="M806.17,576.573a6.315,6.315,0,0,1,1.956.205Z" transform="translate(411.981 4.777)" opacity="0.1"/>
    <path id="Path_1085" data-name="Path 1085" d="M807.42,581.14a11.877,11.877,0,0,0,1.807.239Z" transform="translate(410.88 0.75)" opacity="0.1"/>
    <path id="Path_1086" data-name="Path 1086" d="M806.79,635.787c.056-.038,2.609-.634,2.927-.205Z" transform="translate(411.435 -47.057)" opacity="0.1"/>
    <path id="Path_1087" data-name="Path 1087" d="M806.79,644.147s2.218-.26,2.274,0S806.79,644.147,806.79,644.147Z" transform="translate(411.435 -54.634)" opacity="0.1"/>
    <path id="Path_1088" data-name="Path 1088" d="M806.79,648.052a15.93,15.93,0,0,1,2.646-.374A15.921,15.921,0,0,1,806.79,648.052Z" transform="translate(411.435 -57.831)" opacity="0.1"/>
    <path id="Path_1089" data-name="Path 1089" d="M787.933,783.471l-2.683,1.845s.016-.216.042-.534a7.23,7.23,0,0,1,1.374-2.244,1.1,1.1,0,0,1,1.225.275C787.9,783.211,787.933,783.471,787.933,783.471Z" transform="translate(430.403 -176.553)" opacity="0.1"/>
    <path id="Path_1090" data-name="Path 1090" d="M779.786,785.683a6.653,6.653,0,0,0-.56,2.739,4.261,4.261,0,0,1-.568,2.209,2.09,2.09,0,0,1-.189.269,5.512,5.512,0,0,1-2.517-.556.654.654,0,0,1-.173-.208c-.374-.745.727-3.6.727-3.6a7.909,7.909,0,0,1,1.751-3.373C780.344,782.626,779.786,785.683,779.786,785.683Z" transform="translate(438.812 -177.106)" fill="#5a5773"/>
    <path id="Path_1091" data-name="Path 1091" d="M780.506,816.081a2.1,2.1,0,0,1-.188.269,5.512,5.512,0,0,1-2.517-.556c.321-1.062,1.346-4.276,1.825-3.73C780.076,812.577,780.39,815.048,780.506,816.081Z" transform="translate(436.964 -202.556)" opacity="0.1"/>
    <path id="Path_1092" data-name="Path 1092" d="M797.35,812.263l-.13,4.814h.625a33.266,33.266,0,0,1,.381-4.814C798.505,811.672,797.35,812.263,797.35,812.263Z" transform="translate(419.862 -202.554)" fill="#5a5773"/>
    <path id="Path_1093" data-name="Path 1093" d="M845.167,792.567s-2.745-2.59-2.46-2.8a1.268,1.268,0,0,0,.217-.569c.526-.093,1.432.128,2.182,2.231C845.124,792.028,845.167,792.567,845.167,792.567Z" transform="translate(379.823 -182.463)" opacity="0.1"/>
    <path id="Path_1094" data-name="Path 1094" d="M840.41,796a.367.367,0,0,1-.066.018,19.185,19.185,0,0,1-2.175,0,.477.477,0,0,1-.455-.469c0-.179,0-.4-.014-.63-.031-.735-.119-1.61-.383-1.807-.467-.358-.836-1.574,0-3.113,0,0,1.6-1.222,2.757,2.454a2.441,2.441,0,0,0,.616,1.423C841.194,794.251,840.635,795.891,840.41,796Z" transform="translate(384.989 -183.01)" fill="#5a5773"/>
    <path id="Path_1095" data-name="Path 1095" d="M846.844,818.88a19.208,19.208,0,0,1-2.175,0,.478.478,0,0,1-.455-.469c0-.179,0-.4-.014-.63.2-.892.492-1.807.865-2.016C845.065,815.765,846.2,815.637,846.844,818.88Z" transform="translate(378.49 -205.869)" opacity="0.1"/>
    <path id="Path_1096" data-name="Path 1096" d="M783.38,772.911l.3,4.007h.382V772.57Z" transform="translate(439.13 -163.124)" fill="#5a5773"/>
    <path id="Path_1097" data-name="Path 1097" d="M800.331,232a6.854,6.854,0,0,0-3.058.982,1.268,1.268,0,0,0-.576.578,1.917,1.917,0,0,0-.047.716c.032,2.057-2.26,3.612-2.188,5.666.029.815.438,1.574.513,2.387a5.975,5.975,0,0,1-1.445,3.726,3.091,3.091,0,0,0,2.178-.722,16.516,16.516,0,0,1,.308,8.329h1.1a.855.855,0,0,1,.321.041.789.789,0,0,1,.254.19,4.189,4.189,0,0,1,1.324,3.932l2.339-.877a6.906,6.906,0,0,0,1.615-.771,2.336,2.336,0,0,0,1-1.432c.063-.358.043-.785.338-.993a1.793,1.793,0,0,1,.461-.172,2.014,2.014,0,0,0,1.058-1.636,9.436,9.436,0,0,0,.149-2.491c-.1-1.4-.517-2.815-.177-4.178A11.784,11.784,0,0,0,806.45,243c.056-1.3-.962-2.424-1.114-3.719-.106-.9.22-1.815.113-2.718a2.919,2.919,0,0,0-1.536-2.217c-.288-.148-.6-.248-.881-.411a15.8,15.8,0,0,1-1.651-1.519c-.589-.465-1.569-.641-2.011-.035Z" transform="translate(423.112 308.22)" opacity="0.1"/>
    <path id="Path_1098" data-name="Path 1098" d="M800.331,230.72a6.854,6.854,0,0,0-3.058.988,1.265,1.265,0,0,0-.576.579,1.917,1.917,0,0,0-.047.716c.032,2.055-2.26,3.611-2.188,5.665.029.815.438,1.574.513,2.387a5.973,5.973,0,0,1-1.445,3.726,3.091,3.091,0,0,0,2.178-.722,16.516,16.516,0,0,1,.308,8.329h1.1a.854.854,0,0,1,.321.041.789.789,0,0,1,.254.19,4.189,4.189,0,0,1,1.324,3.932l2.339-.877a6.908,6.908,0,0,0,1.615-.771,2.336,2.336,0,0,0,1-1.432c.063-.358.043-.785.338-.993a1.752,1.752,0,0,1,.461-.171,2.017,2.017,0,0,0,1.058-1.638,9.435,9.435,0,0,0,.149-2.491c-.1-1.4-.517-2.815-.177-4.178a11.784,11.784,0,0,0,.654-2.268c.056-1.3-.962-2.424-1.114-3.719-.106-.9.22-1.815.113-2.718a2.919,2.919,0,0,0-1.536-2.217c-.288-.148-.6-.247-.881-.411a15.8,15.8,0,0,1-1.651-1.519c-.589-.466-1.569-.641-2.011-.035Z" transform="translate(423.112 309.344)" fill="#4a4347"/>
    <g id="Group_612" data-name="Group 612" transform="translate(1216.642 541.843)" opacity="0.1">
      <path id="Path_1099" data-name="Path 1099" d="M819.6,245.63a1.334,1.334,0,0,0-.007.14C819.594,245.723,819.6,245.674,819.6,245.63Z" transform="translate(-816.479 -245.63)"/>
      <path id="Path_1100" data-name="Path 1100" d="M892.281,271.668a12.7,12.7,0,0,0,.131-1.9A12.373,12.373,0,0,0,892.281,271.668Z" transform="translate(-880.484 -266.889)"/>
      <path id="Path_1101" data-name="Path 1101" d="M801.843,295.972c-.069-.74-.414-1.432-.5-2.172a2.723,2.723,0,0,0-.018.408c.029.807.428,1.559.51,2.362A3.219,3.219,0,0,0,801.843,295.972Z" transform="translate(-800.398 -288.05)"/>
      <path id="Path_1102" data-name="Path 1102" d="M895.328,321.406a5.116,5.116,0,0,0-.119,1.482,4.589,4.589,0,0,1,.119-.861,11.78,11.78,0,0,0,.654-2.268,2.454,2.454,0,0,0-.019-.42A18.1,18.1,0,0,1,895.328,321.406Z" transform="translate(-883.063 -310.542)"/>
      <path id="Path_1103" data-name="Path 1103" d="M795.708,337.19a3.09,3.09,0,0,1-1.762.716c-.136.212-.277.421-.417.625a3.092,3.092,0,0,0,2.178-.722,16.473,16.473,0,0,1,.695,4.462A16.5,16.5,0,0,0,795.708,337.19Z" transform="translate(-793.53 -326.261)"/>
      <path id="Path_1104" data-name="Path 1104" d="M846.288,381.515a2.018,2.018,0,0,1-1.058,1.638,1.839,1.839,0,0,0-.461.171c-.295.209-.275.639-.337.993a2.337,2.337,0,0,1-1,1.438,6.93,6.93,0,0,1-1.615.771l-2.232.836a3.025,3.025,0,0,1-.107.664l2.339-.877a6.9,6.9,0,0,0,1.615-.771,2.342,2.342,0,0,0,1-1.432c.062-.358.042-.785.337-.993a1.749,1.749,0,0,1,.461-.171,2.017,2.017,0,0,0,1.057-1.638,9.36,9.36,0,0,0,.168-2.113A9.322,9.322,0,0,1,846.288,381.515Z" transform="translate(-833.995 -363.988)"/>
      <path id="Path_1105" data-name="Path 1105" d="M816.07,407.147a.79.79,0,0,0-.254-.19.853.853,0,0,0-.321-.041h-.975c-.038.209-.079.417-.119.623h1.1a.853.853,0,0,1,.321.041.787.787,0,0,1,.254.19,4.719,4.719,0,0,1,1.419,2.8A4.426,4.426,0,0,0,816.07,407.147Z" transform="translate(-811.909 -387.664)"/>
    </g>
    <path id="Path_1106" data-name="Path 1106" d="M782.7,441.689s.888-.372,1.086,0S782.7,441.689,782.7,441.689Z" transform="translate(432.649 123.702)" opacity="0.1"/>
    <path id="Path_1107" data-name="Path 1107" d="M785.28,447.035s.888-.374,1.087,0S785.28,447.035,785.28,447.035Z" transform="translate(430.377 118.994)" opacity="0.1"/>
    <path id="Path_1108" data-name="Path 1108" d="M1048.842,786.91s.656.858-.3,2.149-1.749,2.387-1.432,3.2c0,0,1.447-2.405,2.626-2.439S1050.136,788.353,1048.842,786.91Z" transform="translate(199.864 -180.459)" fill="#0288d1"/>
    <path id="Path_1109" data-name="Path 1109" d="M1049.126,786.91a1.053,1.053,0,0,1,.134.27c1.148,1.349,1.76,2.608.656,2.639-1.028.03-2.261,1.868-2.557,2.332a1.085,1.085,0,0,0,.035.106s1.447-2.405,2.626-2.439S1050.42,788.353,1049.126,786.91Z" transform="translate(199.579 -180.459)" opacity="0.1"/>
    <path id="Path_1110" data-name="Path 1110" d="M1071.26,794.628c0,.3-.033.547-.075.547s-.075-.239-.075-.547.042-.16.083-.16S1071.26,794.326,1071.26,794.628Z" transform="translate(178.664 -187.083)" fill="#ffd037"/>
    <path id="Path_1111" data-name="Path 1111" d="M1072.066,797.561c-.265.144-.5.232-.516.195s.178-.184.443-.328.161-.038.181,0S1072.331,797.417,1072.066,797.561Z" transform="translate(178.277 -189.656)" fill="#ffd037"/>
    <path id="Path_1112" data-name="Path 1112" d="M1022.277,786.91s-.655.858.3,2.149,1.749,2.387,1.432,3.2c0,0-1.446-2.405-2.626-2.439S1020.983,788.353,1022.277,786.91Z" transform="translate(222.965 -180.459)" fill="#0288d1"/>
    <path id="Path_1113" data-name="Path 1113" d="M1022.257,786.91a1.1,1.1,0,0,0-.134.27c-1.148,1.349-1.76,2.608-.657,2.639,1.029.03,2.268,1.868,2.558,2.332a.828.828,0,0,1-.036.106s-1.445-2.405-2.626-2.439S1020.964,788.353,1022.257,786.91Z" transform="translate(222.984 -180.459)" opacity="0.1"/>
    <path id="Path_1114" data-name="Path 1114" d="M1022.93,794.628c0,.3.035.547.076.547s.075-.239.075-.547-.042-.16-.083-.16S1022.93,794.326,1022.93,794.628Z" transform="translate(221.093 -187.083)" fill="#ffd037"/>
    <path id="Path_1115" data-name="Path 1115" d="M1018.238,797.561c.265.144.5.232.516.195s-.179-.184-.444-.328-.16-.038-.18,0S1017.973,797.417,1018.238,797.561Z" transform="translate(225.367 -189.656)" fill="#ffd037"/>
    <path id="Path_1116" data-name="Path 1116" d="M1024.68,823.45a6.749,6.749,0,0,0,2.387-.45c.554-.393,2.821-.863,2.957-.239s2.756,3.138.686,3.155a17.566,17.566,0,0,1-5.362-.658C1024.8,824.922,1024.68,823.45,1024.68,823.45Z" transform="translate(219.552 -211.763)" fill="#a8a8a8"/>
    <path id="Path_1117" data-name="Path 1117" d="M1030.746,833a17.558,17.558,0,0,1-5.362-.658c-.419-.257-.587-1.174-.643-1.6h-.061s.119,1.478.667,1.814a17.509,17.509,0,0,0,5.362.658c.6,0,.8-.217.792-.532C1031.418,832.883,1031.19,833,1030.746,833Z" transform="translate(219.552 -219.066)" opacity="0.2"/>
    <rect id="Rectangle_275" data-name="Rectangle 275" width="104.083" height="3.126" transform="translate(1143.165 519.223)" fill="#0288d1" opacity="0.1"/>
    <circle id="Ellipse_125" data-name="Ellipse 125" cx="0.662" cy="0.662" r="0.662" transform="translate(1144.592 520.124)" fill="#fefefe"/>
    <circle id="Ellipse_126" data-name="Ellipse 126" cx="0.662" cy="0.662" r="0.662" transform="translate(1146.621 520.124)" fill="#fefefe"/>
    <circle id="Ellipse_127" data-name="Ellipse 127" cx="0.662" cy="0.662" r="0.662" transform="translate(1148.65 520.124)" fill="#fefefe"/>
    <path id="Path_1118" data-name="Path 1118" d="M485.233,818.192s-5.047-.3-4.452,3.231a.861.861,0,0,0,.449.91s.01-.263.518-.173a2.372,2.372,0,0,0,.548.026,1.149,1.149,0,0,0,.671-.277h0a4,4,0,0,0,1.969-2.9s.408-.506.392-.636l-.851.358a1.524,1.524,0,0,1,.062,1.124s-.027-1.1-.191-1.074c-.033.006-.443.213-.443.213a2.507,2.507,0,0,1,.119,1.849s.143-1.319-.279-1.771l-.6.35a2.651,2.651,0,0,1,.189,2.008,3.762,3.762,0,0,0-.315-1.922l-.543.424a2.587,2.587,0,0,1,.215,1.837s-.044-1.61-.332-1.732a3.126,3.126,0,0,0-.548.6s.376.79.143,1.208c0,0-.143-1.074-.261-1.074a3.486,3.486,0,0,0-.523,1.194,2.579,2.579,0,0,1,.408-1.265,1.414,1.414,0,0,0-.725.375s.073-.5.842-.547a3.351,3.351,0,0,1,.5-.572,3.117,3.117,0,0,0-1.227.142,1.371,1.371,0,0,1,1.368-.259l.536-.438a4.439,4.439,0,0,0-1.432.014,1.743,1.743,0,0,1,1.577-.113l.584-.35a5.368,5.368,0,0,0-1.368-.119,2.1,2.1,0,0,1,1.54.025l.417-.187s-.628-.119-.812-.143-.193-.07-.193-.07a2.176,2.176,0,0,1,1.179.131A5.28,5.28,0,0,0,485.233,818.192Z" transform="translate(698.574 -208.001)" fill="#0288d1"/>
    <ellipse id="Ellipse_128" data-name="Ellipse 128" cx="3.571" cy="0.604" rx="3.571" ry="0.604" transform="translate(1176.758 614.035)" fill="#0288d1" opacity="0.1"/>
    <path id="Path_1119" data-name="Path 1119" d="M425.67,819.793s-2.846-.172-2.507,1.821a.486.486,0,0,0,.253.512s0-.147.291-.1a1.337,1.337,0,0,0,.309.014.637.637,0,0,0,.378-.156h0a2.252,2.252,0,0,0,1.11-1.636s.23-.285.221-.358l-.477.205a.859.859,0,0,1,.036.634s-.016-.621-.109-.606c-.018,0-.249.119-.249.119a1.417,1.417,0,0,1,.069,1.042s.081-.742-.158-1l-.338.2a1.488,1.488,0,0,1,.106,1.131,2.124,2.124,0,0,0-.177-1.083l-.307.239a1.451,1.451,0,0,1,.119,1.036s-.024-.908-.186-.978a1.839,1.839,0,0,0-.309.334s.212.445.08.68c0,0-.08-.6-.147-.608a2.031,2.031,0,0,0-.295.676,1.461,1.461,0,0,1,.23-.716.8.8,0,0,0-.408.211s.041-.283.477-.308a1.86,1.86,0,0,1,.28-.322,1.758,1.758,0,0,0-.692.08.776.776,0,0,1,.771-.146l.3-.247a2.493,2.493,0,0,0-.808.008.974.974,0,0,1,.889-.064l.329-.2a3.008,3.008,0,0,0-.771-.067,1.183,1.183,0,0,1,.868.014l.239-.106s-.358-.069-.458-.08-.109-.039-.109-.039a1.225,1.225,0,0,1,.665.074A2.925,2.925,0,0,0,425.67,819.793Z" transform="translate(749.296 -209.413)" fill="#0288d1"/>
    <ellipse id="Ellipse_129" data-name="Ellipse 129" cx="2.014" cy="0.34" rx="2.014" ry="0.34" transform="translate(1170.991 612.547)" fill="#0288d1" opacity="0.1"/>
    <path id="Path_1120" data-name="Path 1120" d="M467.143,784.377s-3.435-.208-3.029,2.2a.586.586,0,0,0,.3.618s0-.179.352-.119a1.566,1.566,0,0,0,.374.018.771.771,0,0,0,.456-.188h0a2.726,2.726,0,0,0,1.342-1.977s.278-.344.266-.433l-.579.248a1.036,1.036,0,0,1,.042.765s-.019-.75-.13-.733c-.023,0-.3.146-.3.146a1.716,1.716,0,0,1,.084,1.258s.1-.9-.19-1.206l-.408.239a1.805,1.805,0,0,1,.128,1.367,2.587,2.587,0,0,0-.214-1.313l-.37.289a1.757,1.757,0,0,1,.146,1.251s-.03-1.1-.226-1.179a2.248,2.248,0,0,0-.372.4s.255.538.1.823c0,0-.1-.731-.178-.734a2.5,2.5,0,0,0-.358.815,1.764,1.764,0,0,1,.278-.862.967.967,0,0,0-.493.257s.05-.343.573-.372a2.2,2.2,0,0,1,.338-.389,2.115,2.115,0,0,0-.836.1.937.937,0,0,1,.93-.176l.365-.3a3.038,3.038,0,0,0-.975.009,1.186,1.186,0,0,1,1.074-.076l.4-.239a3.926,3.926,0,0,0-.932-.08,1.427,1.427,0,0,1,1.048.017l.284-.128s-.427-.083-.553-.1-.131-.048-.131-.048a1.475,1.475,0,0,1,.8.088A3.674,3.674,0,0,0,467.143,784.377Z" transform="translate(713.238 -178.224)" fill="#0288d1"/>
    <ellipse id="Ellipse_130" data-name="Ellipse 130" cx="2.431" cy="0.411" rx="2.431" ry="0.411" transform="translate(1175.584 608.769)" fill="#0288d1" opacity="0.1"/>
    <ellipse id="Ellipse_131" data-name="Ellipse 131" cx="3.571" cy="0.604" rx="3.571" ry="0.604" transform="translate(1199.503 608.745)" fill="#0288d1" opacity="0.1"/>
    <path id="Path_1121" data-name="Path 1121" d="M659.76,779.579a7.475,7.475,0,0,0,2.652-.5c.615-.437,3.133-.955,3.286-.259s3.062,3.488.761,3.507-5.345-.358-5.957-.732S659.76,779.579,659.76,779.579Z" transform="translate(540.915 -173.036)" fill="#a8a8a8"/>
    <path id="Path_1122" data-name="Path 1122" d="M666.492,790.167c-2.3.019-5.344-.358-5.957-.732-.467-.284-.652-1.3-.716-1.775h-.068s.13,1.644.742,2.017,3.657.75,5.957.732c.664-.006.893-.239.881-.6C667.239,790.031,666.986,790.163,666.492,790.167Z" transform="translate(540.924 -181.119)" opacity="0.2"/>
  </g>
</svg>
