<svg xmlns="http://www.w3.org/2000/svg" xmlns:xlink="http://www.w3.org/1999/xlink" width="340.663" height="257.181" viewBox="0 0 340.663 257.181">
  <defs>
    <linearGradient id="linear-gradient" x1="0.5" y1="1" x2="0.5" gradientUnits="objectBoundingBox">
      <stop offset="0" stop-color="gray" stop-opacity="0.251"/>
      <stop offset="0.54" stop-color="gray" stop-opacity="0.122"/>
      <stop offset="1" stop-color="gray" stop-opacity="0.102"/>
    </linearGradient>
    <linearGradient id="linear-gradient-2" x1="0.5" y1="1" x2="0.5" y2="0" xlink:href="#linear-gradient"/>
    <linearGradient id="linear-gradient-3" x1="3.499" y1="1.031" x2="3.499" y2="0.019" xlink:href="#linear-gradient"/>
  </defs>
  <g id="Group_494" data-name="Group 494" transform="translate(0 0.077)">
    <ellipse id="Ellipse_108" data-name="Ellipse 108" cx="29.834" cy="7.37" rx="29.834" ry="7.37" transform="translate(275.253 241.137)" fill="#0288d1" opacity="0.1"/>
    <ellipse id="Ellipse_109" data-name="Ellipse 109" cx="29.834" cy="7.37" rx="29.834" ry="7.37" transform="translate(11.9 242.364)" fill="#0288d1" opacity="0.1"/>
    <path id="Path_880" data-name="Path 880"
          d="M526.125,94.887s-4.193-1.7-17.526,4.416-15.008,5.337-18.453,4.4-5.364-1.156-9.077-6.258c0,0-2.611-14.149-5.135-16.343s-13.261,1.249-13.261,1.249S449.8,85.306,447.349,68.105c0,0,1.74-12.966-.629-16.945,0,0,4.768,2.065,12.677-1.267s14.212,3.576,14.212,3.576S475.6,58.625,475.4,61.7s1.052,4.226,4.819,2.742c0,0,1.848-2.631-.772-6.979s-4.488-7.59-3.755-10.967,2.831-8.046,9.584-10.4,15.926-2.8,20.33-4.628,5.469-3.025,5.469-3.025-2.715,2.724,3.677,14.23,2.316,16.5,2.316,16.5-3.4,8.094-18.387,7.45c0,0-14.445.527-6.556,6.655,0,0,5.045-1.028,12.585-3.424s12.984,7.495,14.334,14.379A18.041,18.041,0,0,0,526.125,94.887Z"
          transform="translate(-322.066 -25.544)" fill="#0288d1"/>
    <path id="Path_881" data-name="Path 881" d="M621.191,57.7l.081-.021c.578,2.2-5.88,11.026-11.4,18.038l-.066-.051C617.6,65.771,621.641,59.391,621.191,57.7Z" transform="translate(-436.553 -46.07)" fill="#444053"/>
    <path id="Path_882" data-name="Path 882" d="M573.149,117.55l.033.089c-4.408,5.606-9.951,12.293-14.388,17.246-.423.474-.843.969-1.249,1.475l-.125-.1c.405-.507.828-1,1.252-1.49C563.106,129.828,568.744,123.153,573.149,117.55Z" transform="translate(-399.776 -88.098)" fill="#444053"/>
    <path id="Path_883" data-name="Path 883" d="M533.61,179.88l.086.149c-8.076,10.082-8.609,25.736-8.642,25.873l-1.7-1.967C523.386,203.8,525.478,190.03,533.61,179.88Z" transform="translate(-375.859 -131.853)" fill="#444053"/>
    <path id="Path_884" data-name="Path 884" d="M533.69,155.223s-9.536-4.95-16.942-3.174-24.139-6.276-24.139-6.276-7.1-2.885-8.52-6.169c0,0-4.867-5.144-5.144-7.808s-5.016-9.357-8.106-9.617" transform="translate(-338.998 -91.348)" fill="none" stroke="#444053" stroke-miterlimit="10" stroke-width="1"/>
    <path id="Path_885" data-name="Path 885" d="M667.028,232.574s-4.8-3.23-4.238-6.994" transform="translate(-473.713 -163.934)" fill="none" stroke="#444053" stroke-miterlimit="10" stroke-width="1"/>
    <path id="Path_886" data-name="Path 886" d="M634.656,234.2s-6.854-2.491-7.546-12.251" transform="translate(-448.698 -161.386)" fill="none" stroke="#444053" stroke-miterlimit="10" stroke-width="1"/>
    <path id="Path_887" data-name="Path 887" d="M603.943,236.349a15.343,15.343,0,0,1-4.378-14.939" transform="translate(-429.051 -161.007)" fill="none" stroke="#444053" stroke-miterlimit="10" stroke-width="1"/>
    <path id="Path_888" data-name="Path 888" d="M565.753,227.036s-4.366-9.152-.483-15.106" transform="translate(-404.157 -154.352)" fill="none" stroke="#444053" stroke-miterlimit="10" stroke-width="1"/>
    <path id="Path_889" data-name="Path 889" d="M672.586,212.82s-4.962,1.573-3.9,4.172" transform="translate(-477.78 -154.977)" fill="none" stroke="#444053" stroke-miterlimit="10" stroke-width="1"/>
    <path id="Path_890" data-name="Path 890" d="M645.995,182.61s-6.637,2.107-6.795,11.494" transform="translate(-457.185 -133.77)" fill="none" stroke="#444053" stroke-miterlimit="10" stroke-width="1"/>
    <path id="Path_891" data-name="Path 891" d="M617.769,175.34s-6.038,7.45-5.594,14.23" transform="translate(-438.197 -128.666)" fill="none" stroke="#444053" stroke-miterlimit="10" stroke-width="1"/>
    <path id="Path_892" data-name="Path 892" d="M582.994,185.15s-6,5.734-5.233,8.925" transform="translate(-414.008 -135.553)" fill="none" stroke="#444053" stroke-miterlimit="10" stroke-width="1"/>
    <path id="Path_893" data-name="Path 893" d="M568.233,176.377s-5.626,1.01-6.413-.837" transform="translate(-402.865 -128.807)" fill="none" stroke="#444053" stroke-miterlimit="10" stroke-width="1"/>
    <path id="Path_894" data-name="Path 894" d="M558.81,155.56s2.843,3.764,3.576,2.92" transform="translate(-400.752 -114.781)" fill="none" stroke="#444053" stroke-miterlimit="10" stroke-width="1"/>
    <path id="Path_895" data-name="Path 895" d="M612.392,139.925S598.213,140.947,595,136.68" transform="translate(-426.157 -101.527)" fill="none" stroke="#444053" stroke-miterlimit="10" stroke-width="1"/>
    <path id="Path_896" data-name="Path 896" d="M548.8,91.91s6.655,14.284,11.485,16.092" transform="translate(-393.725 -70.099)" fill="none" stroke="#444053" stroke-miterlimit="10" stroke-width="1"/>
    <path id="Path_897" data-name="Path 897" d="M572.22,69.08s4.089,13.139,9.152,17.24" transform="translate(-410.166 -54.073)" fill="none" stroke="#444053" stroke-miterlimit="10" stroke-width="1"/>
    <path id="Path_898" data-name="Path 898" d="M632.731,111.064s-10.785,4.628-17.261-.054" transform="translate(-440.527 -83.507)" fill="none" stroke="#444053" stroke-miterlimit="10" stroke-width="0.75"/>
    <path id="Path_899" data-name="Path 899" d="M604.46,59.68s2.465,9.658,5.784,11.992" transform="translate(-432.798 -47.474)" fill="none" stroke="#444053" stroke-miterlimit="10" stroke-width="0.75"/>
    <path id="Path_900" data-name="Path 900" d="M648.313,74.89s-6.058,2.295-8.323.536" transform="translate(-457.74 -58.151)" fill="none" stroke="#444053" stroke-miterlimit="10" stroke-width="0.75"/>
    <path id="Path_901" data-name="Path 901" d="M535.992,166.15s0,8.419-2.292,9.018" transform="translate(-383.125 -122.215)" fill="none" stroke="#444053" stroke-miterlimit="10" stroke-width="1"/>
    <path id="Path_902" data-name="Path 902" d="M478.52,193.526s9.1.781,13.3-3.916" transform="translate(-344.389 -138.684)" fill="none" stroke="#444053" stroke-miterlimit="10" stroke-width="1"/>
    <path id="Path_903" data-name="Path 903" d="M514.009,132.78s-2.2,8.538-8.279,10.839" transform="translate(-363.49 -98.79)" fill="none" stroke="#444053" stroke-miterlimit="10" stroke-width="1"/>
    <path id="Path_904" data-name="Path 904" d="M460.2,164.413a11.913,11.913,0,0,0,11.983-3.463" transform="translate(-331.529 -118.565)" fill="none" stroke="#444053" stroke-miterlimit="10" stroke-width="1"/>
    <path id="Path_905" data-name="Path 905" d="M498.751,108.15s-.6,7.251-4.551,10.645" transform="translate(-355.396 -81.5)" fill="none" stroke="#444053" stroke-miterlimit="10" stroke-width="1"/>
    <path id="Path_906" data-name="Path 906" d="M461,131.475s5.346.039,6.6-1.7" transform="translate(-332.09 -96.677)" fill="none" stroke="#444053" stroke-miterlimit="10" stroke-width="1"/>
    <path id="Path_907" data-name="Path 907"
          d="M210.056,59.45c-21.278,3.549-42.588,1.639-63.1-1.007s-40.982-6.026-62.3-5.364C70.94,53.508,55.69,56.2,46.2,64.469,37.08,72.423,35.775,83.3,35.861,93.131c.066,7.4.76,15.058,5.769,21.007,3.478,4.127,8.794,7.125,12.814,10.943,14.006,13.285,10.034,33.866,1.165,51.293-4.172,8.177-9.271,16.2-12.069,24.586s-3.075,17.413,2.193,24.353c5.227,6.881,15.225,10.845,25.629,12.969,21.126,4.312,44.573,2.086,67.252-1.01,50.2-6.887,99.833-18.027,149.326-29.145,18.319-4.113,36.718-8.249,54.342-14.3,9.787-3.356,19.743-7.578,26.01-14.257,7.954-8.478,8.025-20.181.167-27.28-13.184-11.92-42.678-9.679-52.926-23.245-5.644-7.45-3.347-17.469.966-26.275,9.238-18.894,27.342-37.445,24.735-56.431-1.788-13.041-14.418-23.96-31.2-26.979-17.583-3.162-40.055,2.119-50,15.085C249.8,47.828,228.843,56.321,210.056,59.45Z"
          transform="translate(-33.644 -18.54)" fill="#0288d1" opacity="0.1"/>
    <rect id="Rectangle_212" data-name="Rectangle 212" width="283.207" height="160.427" rx="12.49" transform="translate(22.735 44.68)" fill="url(#linear-gradient)"/>
    <rect id="Rectangle_213" data-name="Rectangle 213" width="282.34" height="157.638" rx="12.49" transform="translate(23.185 46.936)" fill="#fff"/>
    <rect id="Rectangle_214" data-name="Rectangle 214" width="282.34" height="157.638" rx="12.49" transform="translate(23.185 46.936)" fill="#fff"/>
    <rect id="Rectangle_215" data-name="Rectangle 215" width="282.34" height="157.638" rx="12.49" transform="translate(23.185 46.936)" fill="#5a5773" opacity="0.04"/>
    <path id="Path_908" data-name="Path 908" d="M387.108,170.15H107.623a1.433,1.433,0,0,0-1.433,1.433v6.062H388.53V171.6A1.433,1.433,0,0,0,387.108,170.15Z" transform="translate(-83.017 -125.023)" fill="#5a5773"/>
    <g id="buttons" transform="translate(26.886 46.936)">
      <circle id="Ellipse_110" data-name="Ellipse 110" cx="1.937" cy="1.937" r="1.937" fill="#fff"/>
      <circle id="Ellipse_111" data-name="Ellipse 111" cx="1.937" cy="1.937" r="1.937" transform="translate(5.215)" fill="#fff"/>
      <circle id="Ellipse_112" data-name="Ellipse 112" cx="1.937" cy="1.937" r="1.937" transform="translate(10.43)" fill="#fff"/>
    </g>
    <rect id="Rectangle_216" data-name="Rectangle 216" width="235.427" height="117.052" rx="10.19" transform="translate(42.085 87.519)" fill="#fff"/>
    <rect id="Rectangle_217" data-name="Rectangle 217" width="67.72" height="7.108" rx="3.554" transform="translate(32.102 60.576)" fill="#5a5773" opacity="0.2"/>
    <rect id="Rectangle_218" data-name="Rectangle 218" width="67.72" height="7.108" rx="3.554" transform="translate(159.798 101.105)" fill="#0288d1" opacity="0.2"/>
    <rect id="Rectangle_219" data-name="Rectangle 219" width="105.743" height="7.108" rx="3.554" transform="translate(159.798 121.006)" fill="#0288d1" opacity="0.2"/>
    <rect id="Rectangle_220" data-name="Rectangle 220" width="105.743" height="7.108" rx="3.554" transform="translate(159.798 132.628)" fill="#0288d1" opacity="0.2"/>
    <rect id="Rectangle_221" data-name="Rectangle 221" width="105.743" height="7.108" rx="3.554" transform="translate(159.798 144.251)" fill="#0288d1" opacity="0.2"/>
    <rect id="Rectangle_222" data-name="Rectangle 222" width="105.743" height="7.108" rx="3.554" transform="translate(159.798 155.873)" fill="#0288d1" opacity="0.2"/>
    <rect id="Rectangle_223" data-name="Rectangle 223" width="210.692" height="7.108" rx="3.554" transform="translate(54.849 168.688)" fill="#0288d1" opacity="0.2"/>
    <rect id="Rectangle_224" data-name="Rectangle 224" width="210.692" height="7.108" rx="3.554" transform="translate(54.849 180.31)" fill="#0288d1" opacity="0.2"/>
    <rect id="Rectangle_225" data-name="Rectangle 225" width="210.692" height="7.108" rx="3.554" transform="translate(54.849 191.932)" fill="#0288d1" opacity="0.2"/>
    <path id="Path_909" data-name="Path 909" d="M746.279,678.54s1.767,2.31-.817,5.8-4.712,6.434-3.85,8.609c0,0,3.895-6.479,7.069-6.556S749.768,682.435,746.279,678.54Z" transform="translate(-528.941 -481.908)" fill="#0288d1"/>
    <path id="Path_910" data-name="Path 910" d="M746.512,678.54a2.854,2.854,0,0,1,.361.724c3.1,3.636,4.744,7.03,1.77,7.113-2.772.08-6.1,5.036-6.893,6.285a2.316,2.316,0,0,0,.1.3s3.9-6.479,7.069-6.556S750,682.435,746.512,678.54Z" transform="translate(-529.174 -481.908)" opacity="0.1"/>
    <path id="Path_911" data-name="Path 911" d="M767.8,687.2c0,.814-.089,1.472-.2,1.472s-.2-.659-.2-1.472.113-.429.227-.429S767.8,686.382,767.8,687.2Z" transform="translate(-547.173 -487.619)" fill="#ffd037"/>
    <path id="Path_912" data-name="Path 912" d="M769.253,690.329c-.715.387-1.338.623-1.392.525s.483-.495,1.192-.894.432-.107.486,0S769.965,689.939,769.253,690.329Z" transform="translate(-547.501 -489.782)" fill="#ffd037"/>
    <path id="Path_913" data-name="Path 913" d="M717.068,678.54s-1.767,2.31.814,5.8,4.714,6.434,3.853,8.609c0,0-3.9-6.479-7.069-6.556S713.579,682.435,717.068,678.54Z" transform="translate(-509.064 -481.908)" fill="#0288d1"/>
    <path id="Path_914" data-name="Path 914" d="M717.068,678.54a2.79,2.79,0,0,0-.364.724c-3.093,3.636-4.741,7.03-1.767,7.114,2.771.08,6.094,5.036,6.89,6.285a2.291,2.291,0,0,1-.092.3s-3.9-6.479-7.069-6.556S713.579,682.435,717.068,678.54Z" transform="translate(-509.064 -481.908)" opacity="0.1"/>
    <path id="Path_915" data-name="Path 915" d="M715.38,687.2c0,.814.092,1.472.206,1.472s.2-.659.2-1.472-.113-.423-.224-.423S715.38,686.389,715.38,687.2Z" transform="translate(-510.663 -487.626)" fill="#ffd037"/>
    <path id="Path_916" data-name="Path 916" d="M710.582,690.329c.715.387,1.338.623,1.392.525s-.483-.495-1.192-.894-.432-.107-.486,0S709.866,689.939,710.582,690.329Z" transform="translate(-506.991 -489.782)" fill="#ffd037"/>
    <ellipse id="Ellipse_113" data-name="Ellipse 113" cx="18.477" cy="2.834" rx="18.477" ry="2.834" transform="translate(194.195 223.047)" fill="#0288d1" opacity="0.1"/>
    <path id="Path_917" data-name="Path 917"
          d="M729.169,713.92l-.089.721-.122,1.019-.054.426-.122,1.019-.054.426-.125,1.016-1.412,11.593c-.128,1.034-1.818,1.842-3.874,1.842h-7.337c-2.041,0-3.728-.808-3.853-1.842l-1.418-11.584-.122-1.016-.054-.426-.125-1.019-.051-.426-.125-1.019-.089-.721c-.069-.6.846-1.079,2-1.079h15.026C728.32,712.841,729.235,713.333,729.169,713.92Z"
          transform="translate(-506.983 -505.993)" fill="#65617d"/>
    <path id="Path_918" data-name="Path 918" d="M700.863,700.32l-.122,1.019h-18.6l-.125-1.019Z" transform="translate(-478.772 -491.672)" fill="#9d9cb5"/>
    <path id="Path_919" data-name="Path 919" d="M701.1,705.16l-.122,1.019H682.735l-.125-1.019Z" transform="translate(-479.186 -495.07)" fill="#9d9cb5"/>
    <path id="Path_920" data-name="Path 920" d="M701.347,710.01l-.125,1.019h-17.89l-.122-1.019Z" transform="translate(-479.607 -498.475)" fill="#9d9cb5"/>
    <rect id="Rectangle_226" data-name="Rectangle 226" width="89.999" height="66.021" rx="8.5" transform="translate(54.849 97.162)" fill="#0288d1" opacity="0.2"/>
    <path id="Path_921" data-name="Path 921"
          d="M1019.891,505.429c.113-.3-.727-2-.727-2.086s-.867-1.028-.867-1.556-1.147-1.669-1.147-1.669a2.894,2.894,0,0,1-1.708-2.029c-.167-1.392-1.845-1.416-1.848-1.416h0v-.319a4.389,4.389,0,0,0-.206-1.624,1.636,1.636,0,0,0-.951-.808,3.6,3.6,0,0,0-.5-1.419,1.594,1.594,0,0,1-.393-1.49c.17-.525-.224-1.86-1.034-2.056s-1.737-.5-1.737-.5l-.224.039-.11-.039a4.648,4.648,0,0,1-.6.075.736.736,0,0,1-.474-.155,9.863,9.863,0,0,0-2.98-.894,6.812,6.812,0,0,1-1.624-.557s-.84-.638-1.192-.918a7.813,7.813,0,0,1-1.055-1.451v-.021h0a5.144,5.144,0,0,1-.253-.73h0a6.576,6.576,0,0,0,1.04-1.433c.03-.054.057-.107.083-.164a.624.624,0,0,0,.182-.027l.075-.03a1.211,1.211,0,0,0,.6-.709h0q.031-.091.054-.185V481.2l.027-.125a.636.636,0,0,1,0-.072l.018-.125V480.8a.415.415,0,0,1,.021-.158h0a5.607,5.607,0,0,1,.086-.6h0a10.743,10.743,0,0,1,.942-2.086h0c.045-.1.089-.2.128-.3s.078-.224.11-.337l.027-.1c.021-.083.039-.167.057-.25s0-.075.021-.113q.027-.17.045-.349a4.31,4.31,0,0,0-.3-1.952c-.208-.522-.521-.992-.733-1.514-.322-.79-.408-1.687-.8-2.441a2.906,2.906,0,0,0-3.487-1.419c-.6.227-1.138.665-1.755.861a5.849,5.849,0,0,1-2.569-.051,3.2,3.2,0,0,0-2.491.429c-.793.644-1.007,1.854-1.752,2.56-.3.3-.7.486-1.031.76a1.682,1.682,0,0,0-.519.709l-.018.057a.533.533,0,0,0-.018.074.69.69,0,0,0-.015.083.338.338,0,0,0,0,.057.634.634,0,0,0,0,.149h0a1.153,1.153,0,0,0,.021.14v.039a.346.346,0,0,0,.036.116c.015.039,0,.015,0,.021s.033.086.051.128l.027.063a.05.05,0,0,0,.024.051,3.705,3.705,0,0,1,.259.647.718.718,0,0,1-.027.426,1.257,1.257,0,0,1-.3.408,5.765,5.765,0,0,0-1.264,2.023q-.051.131-.089.259h.039a1.693,1.693,0,0,0,.244.051,1.191,1.191,0,0,0,.14,0,2.182,2.182,0,0,0,.572-.042l.143-.036a3.239,3.239,0,0,0,.566-.206q0,.085,0,.17v.1a6.609,6.609,0,0,0,3.674,5.912,1.231,1.231,0,0,0,.024.179l.018.152-.074-.072s-.5-.25-.98.471a3.165,3.165,0,0,1-1.371,1.058s-5.1.8-5.293,1.472l-2.384.14s-.84.11-.924,1.863-.531,1.916-.531,1.916a6.63,6.63,0,0,0-.894,2.614,1.457,1.457,0,0,1-.757,1.335l-.11,1.585a1.094,1.094,0,0,0-1.192.945,3.768,3.768,0,0,1-.7,1.582s-1.541,1.281-1.624,2.363l-.954.6s-2.211-.5-2.715-1.389c0,0-.06-.06-.155-.146v-.021h0a8.963,8.963,0,0,0-.924-.814.67.67,0,0,1,.045.447l-.164-.182-.441-.489s-3.576-3.35-5.662-3.615h0c-.027-.054-.164-.6-.522-.253a2.921,2.921,0,0,0-.021,4.282l3.35,3.126.086.063.718.924a8.378,8.378,0,0,0-.3.828v.027l-.054.161a.37.37,0,0,0-.015.054c-.018.054-.033.1-.048.155l-.027.089v.054c-.08.28-.131.495-.155.614l-.188-.06.182.08v.086l.173.074c.98.426,5.874,2.575,6.124,2.9a3.6,3.6,0,0,0,3.808.527,4.011,4.011,0,0,0,2.041-2.25,23.483,23.483,0,0,0,1.681-2.587c.057-.334,1.314-.721,1.314-.721s.113,3.722-.53,5.087a64.581,64.581,0,0,0-1.848,7.394.857.857,0,0,1,.238,0l-.072.349a.812.812,0,0,1,.3,0c-.089.685-.6,3.874-.6,3.874a7.938,7.938,0,0,1-.447,1.946,13.939,13.939,0,0,0-.3,3.114l-.45,1.889s.06.131.17.325h0a4.835,4.835,0,0,0,1.287,1.666,3.3,3.3,0,0,1-.226.864,3.04,3.04,0,0,0-.224,1.335,17.343,17.343,0,0,0-.42,2.751,10.5,10.5,0,0,1-.3,2.113l-.5,4.837a45.794,45.794,0,0,0-.167,5.337,10.243,10.243,0,0,1-.113,2.682s.337,3.308.253,3.668a6.842,6.842,0,0,0-.253,2.78,15.175,15.175,0,0,1,.113,3.224s.167,3.114.364,4.115a7.043,7.043,0,0,1-.057,2.28,18.791,18.791,0,0,1-.28,2.14,2.325,2.325,0,0,0,.671,2.918c1.481,1.445.563,1.222.563,1.222s-1.192-.6-1.037.614c.131,1.135.316.84.334.808l-.28.915.2.027-.161.194a4.178,4.178,0,0,1-.566.6,1.213,1.213,0,0,0-.364.8,21.823,21.823,0,0,1-4,3.391,11.572,11.572,0,0,0-2.274,1.529c-.346.375-.3.68.426.918a10.9,10.9,0,0,0,6.073.11,7.1,7.1,0,0,0,2.98-1.916,4.218,4.218,0,0,1,2.384-.39c1.192.224,3.528-1.305,3.528-1.305l-.045-.393-.122-1.138a.894.894,0,0,1-.2-.691,3.576,3.576,0,0,0-.1-1c-.021-.11-.042-.221-.063-.322l.214-.042s-.277-1.416.227-1.7.361-3.919.361-3.919a4.394,4.394,0,0,0-.978-.971c-.337-.137-.03-1.866.03-2.086s.5-4.533.5-4.533a5.8,5.8,0,0,1,.054-1.943,9.526,9.526,0,0,0-.28-2.837.519.519,0,0,1,.14-.611c.3-.334.2-3.308.2-3.308s-.027-1.49-.027-1.892a6.712,6.712,0,0,1,.644-2.277,4.376,4.376,0,0,0,.11-1.946h0l.018-.11a.415.415,0,0,1,.024-.158l.024-.149a21.629,21.629,0,0,1,.548-2.414c.364-1.165.784-3.221.784-3.221l2.6-6.789.03-.08a10.721,10.721,0,0,1,1.192,4.282,27.036,27.036,0,0,1,.226,3.141c-.072.668.194,3.806.194,3.806s.364,4.5.364,4.7a27.668,27.668,0,0,0,.73,4.2,3.67,3.67,0,0,1-.45,2.307,35.03,35.03,0,0,0,.057,4.253s-.42,3.224-.5,3.892a15.931,15.931,0,0,0-.14,4.226c.28,1,.167,1.138.167,1.138s1.01,1.031.42,1.115a1.541,1.541,0,0,0-1.12,2.026,26.692,26.692,0,0,0,1.234,2.98l.465-.1v.331l.033,1.657a9.669,9.669,0,0,1,.083,1.946c-.081.262-.194,1.508-.247,2.161-.021.238-.033.4-.033.4s0,1.472,3.108,1.028,3.665-1.669,3.665-1.669l.024-.152c.045-.28.146-.876.23-1.21a8.786,8.786,0,0,0-.894-2.447,5.077,5.077,0,0,0-.447-1.666,1.489,1.489,0,0,1-.227-.6c-.024-.113-.048-.229-.066-.343a1.991,1.991,0,0,1,.209.036s-.17-.972.477-1.279a.915.915,0,0,0,.39-1.222,9.444,9.444,0,0,1,.25-1.836.894.894,0,0,1,.224-.894c.393-.39.7-3.114.7-3.114l.057-10.508a10.1,10.1,0,0,0-.027-2.614c-.224-.751-.447-2.2-.14-2.587s.027-2.193.027-2.193,0-3.809.42-4.768.28-6.923.28-6.923l.11-3.919s.915-.864.7-5.364a7.3,7.3,0,0,1,2.241.039c.3.25,2.295,1.529,3.472.721a15.623,15.623,0,0,0,1.4-1.082l-.495-8.344.495.772c0-1.165,3.3-4.947,3.3-4.947a53.387,53.387,0,0,1,3.749-4.446,14.112,14.112,0,0,0,1.988-2.98,12.108,12.108,0,0,1,.674-1.389C1020.788,507.068,1019.781,505.733,1019.891,505.429Zm-7.221,2.918c-.84.083-2.6,2-2.631,2.42a1.717,1.717,0,0,1-.372.745c0-.167-.027-.337-.042-.51a51.4,51.4,0,0,1-.3-5.74,16.944,16.944,0,0,0,.11-2.754h0l.033-.045a14.168,14.168,0,0,0,2.316,3.8s.3.894.674.915S1012.67,508.347,1012.67,508.347Z"
          transform="translate(-684.616 -334.84)" fill="url(#linear-gradient-2)"/>
    <path id="Path_922" data-name="Path 922" d="M978.65,586.174s1.022-5.364,4.3-5.364l2.4,4.938-1.6,1.1S980.277,586.946,978.65,586.174Z" transform="translate(-695.476 -413.303)" fill="#65617d"/>
    <path id="Path_923" data-name="Path 923" d="M985.355,585.712l-1.6,1.1a18.951,18.951,0,0,1-4.2-.352,4.839,4.839,0,0,1-.909-.3l.018-.086v-.018a11.932,11.932,0,0,1,.62-1.967c.1-.241.215-.489.34-.736a4.99,4.99,0,0,1,2.086-2.28,2.827,2.827,0,0,1,1.094-.3h.146l.054.11.811,1.669Z" transform="translate(-695.476 -413.281)" opacity="0.1"/>
    <path id="Path_924" data-name="Path 924" d="M1086.692,635.879s3.448-.331,3.752-.08,2.262,1.517,3.418.715.388-3.576.388-3.7-.11-4.056-.11-4.056l-2.068-2.786-2.593-4.881-5.3-.524.137,7.748-.027,3.972Z" transform="translate(-769.557 -441.214)" fill="#65617d"/>
    <path id="Path_925" data-name="Path 925" d="M1086.692,635.879s3.448-.331,3.752-.08,2.262,1.517,3.418.715.388-3.576.388-3.7-.11-4.056-.11-4.056l-2.068-2.786-2.593-4.881-5.3-.524.137,7.748-.027,3.972Z" transform="translate(-769.557 -441.214)" opacity="0.1"/>
    <path id="Path_926" data-name="Path 926" d="M972.229,568.336s-.277,3.365-2.384,3.421c0,0-.6-.358-1.395-.957-1.842-1.38-4.768-4.029-3.958-6.494,1.159-3.531,6.786,2.98,6.786,2.98l.435.486Z" transform="translate(-685.44 -400.981)" fill="#fbbebe"/>
    <path id="Path_927" data-name="Path 927" d="M981.458,578.945s-.277,3.365-2.384,3.421c0,0-.6-.358-1.395-.957l-.179-.229a2.743,2.743,0,0,0,1.15.3,1.553,1.553,0,0,0,1.49-.945,11.9,11.9,0,0,0,.6-1.338,4.176,4.176,0,0,0,.212-.826Z" transform="translate(-694.669 -411.59)" opacity="0.1"/>
    <path id="Path_928" data-name="Path 928" d="M980.967,584.4l-.471-.6-1.588-2.044-.808-1.046a2.72,2.72,0,0,0,1.147.3,1.544,1.544,0,0,0,1.49-.945,11.652,11.652,0,0,0,.581-1.335c.262-.745.256-1.127.164-1.258a7.35,7.35,0,0,1,.912.811h0l.152.143.057.113.831,1.609a.428.428,0,0,1,0,.068C983.494,580.73,983.762,583.945,980.967,584.4Z"
          transform="translate(-695.089 -410.951)" fill="#e7effd"/>
    <path id="Path_929" data-name="Path 929"
          d="M1007.008,828.568s-2.319,1.52-3.478,1.3a4.172,4.172,0,0,0-2.345.387,6.96,6.96,0,0,1-2.923,1.9,10.71,10.71,0,0,1-5.987-.11c-.7-.235-.76-.539-.42-.912a12.721,12.721,0,0,1,2.241-1.517,21.658,21.658,0,0,0,3.946-3.365,1.192,1.192,0,0,1,.358-.8,4.1,4.1,0,0,0,.557-.6c.3-.349.575-.715.575-.715l6.827.256s.116.492.209,1a3.591,3.591,0,0,1,.1.992.894.894,0,0,0,.194.688l.122,1.126Z"
          transform="translate(-704.603 -584.118)" fill="#65617d"/>
    <path id="Path_930" data-name="Path 930"
          d="M1074.693,831.752c-.08.331-.182.921-.226,1.192a.505.505,0,0,1-.021.152s-.551,1.213-3.615,1.654-3.061-1.019-3.061-1.019l.03-.4c.054-.644.164-1.88.244-2.143a9.8,9.8,0,0,0-.08-1.931l-.033-1.645-.024-1.141,5.066-.524a9.759,9.759,0,0,0,.164,1.129,1.456,1.456,0,0,0,.224.6,5.1,5.1,0,0,1,.441,1.654A8.358,8.358,0,0,1,1074.693,831.752Z"
          transform="translate(-758.037 -585.388)" fill="#65617d"/>
    <path id="Path_931" data-name="Path 931" d="M1023.5,824.473s.116.492.209,1c-.736.134-3.955.691-4.768.3a12.626,12.626,0,0,0-2.87-.688l.033-.113c.3-.349.575-.715.575-.715Z" transform="translate(-721.744 -584.195)" opacity="0.1"/>
    <path id="Path_932" data-name="Path 932" d="M1073.5,827.109a19.507,19.507,0,0,0-5.215.536l-.024-1.141,5.066-.525A9.768,9.768,0,0,0,1073.5,827.109Z" transform="translate(-758.381 -585.41)" opacity="0.1"/>
    <path id="Path_933" data-name="Path 933"
          d="M1038.534,650l-.107,3.874s.137,5.93-.277,6.854-.414,4.717-.414,4.717.277,1.788-.027,2.178-.084,1.821.137,2.566a10.08,10.08,0,0,1,.027,2.593l-.054,10.43s-.3,2.7-.691,3.09a.909.909,0,0,0-.221.894,9.291,9.291,0,0,0-.247,1.821.916.916,0,0,1-.384,1.213c-.632.3-.471,1.27-.471,1.27-1.517-.361-5.82.6-5.82.6a26.417,26.417,0,0,1-1.216-2.953,1.529,1.529,0,0,1,1.106-2.014c.578-.081-.414-1.1-.414-1.1s.11-.137-.167-1.132a15.8,15.8,0,0,1,.14-4.193c.083-.661.495-3.874.495-3.874a35.143,35.143,0,0,1-.054-4.22,3.686,3.686,0,0,0,.441-2.289,27.62,27.62,0,0,1-.718-4.172c0-.2-.358-4.664-.358-4.664a37.2,37.2,0,0,1-.247-3.779,24.34,24.34,0,0,0-.224-3.117,10.593,10.593,0,0,0-1.192-4.25l-.03.081-2.563,6.783s-.414,2.041-.772,3.2a21.039,21.039,0,0,0-.539,2.384l-.024.149-.024.155-.018.11h0a4.415,4.415,0,0,1-.113,1.931,6.883,6.883,0,0,0-.632,2.262c0,.387.027,1.877.027,1.877s.11,2.95-.194,3.278a.516.516,0,0,0-.137.6,9.507,9.507,0,0,1,.274,2.813,5.818,5.818,0,0,0-.054,1.931s-.441,4.276-.5,4.5-.358,1.931-.027,2.068a4.416,4.416,0,0,1,.966.966s.137,3.615-.358,3.889-.224,1.684-.224,1.684-4,.772-4.908.331a12.6,12.6,0,0,0-2.87-.688l.274-.894c-.018.033-.2.328-.328-.8-.14-1.192,1.019-.6,1.019-.6s.912.221-.551-1.213a2.314,2.314,0,0,1-.661-2.9,18.491,18.491,0,0,0,.274-2.125,7.023,7.023,0,0,0,.057-2.262c-.194-.992-.358-4.083-.358-4.083a14.953,14.953,0,0,0-.113-3.2,6.782,6.782,0,0,1,.25-2.76c.083-.375-.25-3.642-.25-3.642a10.211,10.211,0,0,0,.113-2.682,45.281,45.281,0,0,1,.164-5.3l.5-4.8a9.917,9.917,0,0,0,.3-2.086,16.736,16.736,0,0,1,.414-2.73,3.026,3.026,0,0,1,.221-1.326,10.192,10.192,0,0,0,.387-2.384l2.649-6.068,1.3-5.364,17.517-.167s.063.465.17,1.308.256,2.086.423,3.633c.152,1.4.319,3.049.483,4.881C1039.639,648.953,1038.534,650,1038.534,650Z"
          transform="translate(-720.546 -450.122)" fill="#3f3d56"/>
    <path id="Path_934" data-name="Path 934" d="M1068.077,516.764,1064,521.13s-5.239-2.086-4.688-2.816a4.083,4.083,0,0,0,.057-2.119c-.194-1.529-.6-3.278-.6-3.278s9.158-1.49,8.383.054a2.54,2.54,0,0,0-.057,1.833A6.939,6.939,0,0,0,1068.077,516.764Z" transform="translate(-751.719 -365.188)" fill="#fbbebe"/>
    <path id="Path_935" data-name="Path 935" d="M1067.141,512.92c-.28.566-.414.62-.238,1.228-1.192,1.284-2.721,2.682-4.616,2.682a6.533,6.533,0,0,1-2.92-.685c-.194-1.529-.6-3.278-.6-3.278S1067.916,511.377,1067.141,512.92Z" transform="translate(-751.719 -365.153)" opacity="0.1"/>
    <path id="Path_936" data-name="Path 936" d="M1061.673,489.552a6.567,6.567,0,0,1-13.133,0v-.1a6.565,6.565,0,0,1,13.13.1Z" transform="translate(-744.538 -344.598)" fill="#fbbebe"/>
    <path id="Path_937" data-name="Path 937" d="M1052.292,641.937c-.87,0-3.767.03-7,.083h-.039l-1.07.018h-.033c-3.838.06-7.62-.688-9.14-.548-3.227.3,1.159-2.98,1.159-2.98a27.069,27.069,0,0,0,7.352.742l.93-.048a40.662,40.662,0,0,0,7.421-.894C1051.977,639.156,1052.126,640.4,1052.292,641.937Z" transform="translate(-734.206 -453.667)" opacity="0.1"/>
    <path id="Path_938" data-name="Path 938" d="M1052.292,641.384c-.87,0-3.767.033-7,.083h-.039l-1.07.018h-.033c-3.838.063-7.62-.688-9.14-.545-3.227.3,1.159-2.98,1.159-2.98a26.935,26.935,0,0,0,7.352.742l.93-.048a40.4,40.4,0,0,0,7.421-.894C1051.977,638.6,1052.126,639.843,1052.292,641.384Z" transform="translate(-734.206 -453.281)" fill="#5f5d7e"/>
    <path id="Path_939" data-name="Path 939" d="M1043.485,531.164l-5.066,2.384-3.919,30.29s2.318-1.049,3.642-.387,5.406.057,5.406.057,2.98-.167,3.421.167,5.629-1.38,5.629-1.38.939-2.086.221-2.429.221-3.576.221-3.576l-.441-21.85-.894-2.813-2.384-1.436-2.426,1.931-1.159.167Z" transform="translate(-734.682 -377.768)" opacity="0.1"/>
    <path id="Path_940" data-name="Path 940" d="M1043.464,530.061l-5.066,2.384-3.928,30.293s2.318-1.049,3.642-.387,5.406.057,5.406.057,2.98-.167,3.421.164,5.629-1.377,5.629-1.377.939-2.086.22-2.429.221-3.576.221-3.576l-.441-21.85-.894-2.813-2.384-1.436-2.426,1.931-1.159.167Z" transform="translate(-734.661 -376.996)" fill="#e7effd"/>
    <path id="Path_941" data-name="Path 941"
          d="M1055.047,536.052s1.463,1.737,1.437,2.086-.084,1.216-.084,1.216l-1.1,2.232s-.6,2.786-.6,3.367-.966,5.6-.966,5.6l-1.183,7.733-1.463,10.132,1.49,2.566,1.767-1.49,2.345-18.041.495-3.558s.524-6.4.524-7.063a22.478,22.478,0,0,0-.3-2.4,2.825,2.825,0,0,1,1.851-2.041c1.49-.384-.113-.083-.113-.083l-.852-.688-.745.3S1055.489,535.28,1055.047,536.052Z"
          transform="translate(-746.328 -381.58)" opacity="0.1"/>
    <path id="Path_942" data-name="Path 942"
          d="M1054.554,535.457s1.46,1.737,1.433,2.086-.083,1.213-.083,1.213l-1.1,2.235s-.6,2.786-.6,3.365-.966,5.6-.966,5.6l-1.156,7.724-1.463,10.132,1.49,2.566,1.764-1.49,2.345-18.041.5-3.558s.524-6.4.524-7.063a22.6,22.6,0,0,0-.3-2.4,2.824,2.824,0,0,1,1.848-2.041c1.49-.387-.11-.08-.11-.08l-.855-.691-.745.3S1054.995,534.685,1054.554,535.457Z"
          transform="translate(-745.998 -381.151)" fill="#0288d1"/>
    <path id="Path_943" data-name="Path 943" d="M1057.975,526.79s-.221.167-.277,1.27a22.073,22.073,0,0,1-.828,3.576s2.87-1.985,4.3-1.764Z" transform="translate(-750.385 -375.381)" opacity="0.1"/>
    <path id="Path_944" data-name="Path 944" d="M1057.975,525.68s-.221.167-.277,1.27a22.074,22.074,0,0,1-.828,3.576s2.87-1.985,4.3-1.764Z" transform="translate(-750.385 -374.602)" fill="#e7effd"/>
    <path id="Path_945" data-name="Path 945" d="M1076.214,523.83l-4.524,3.972a46.089,46.089,0,0,1,4.3,2.813c.5.551.992-5.406.992-5.406Z" transform="translate(-760.789 -373.303)" opacity="0.1"/>
    <path id="Path_946" data-name="Path 946" d="M1076.764,522.72l-4.524,3.973a45.716,45.716,0,0,1,4.3,2.813c.495.551.992-5.406.992-5.406Z" transform="translate(-761.175 -372.524)" fill="#e7effd"/>
    <path id="Path_947" data-name="Path 947"
          d="M1030.179,526.693s-.495-.247-.966.471a3.113,3.113,0,0,1-1.35,1.046s-5.021.8-5.215,1.463l-2.345.137s-.828.11-.894,1.851-.524,1.9-.524,1.9a6.787,6.787,0,0,0-.894,2.593,1.451,1.451,0,0,1-.745,1.326l3.448,8.964s.11,3.7-.525,5.048a64.175,64.175,0,0,0-1.821,7.34s.5-.11.468.22-.6,3.946-.6,3.946a8.034,8.034,0,0,1-.441,1.931,14.064,14.064,0,0,0-.3,3.087l-.441,1.877s1.046,2.345,2.646,2.014,4.494-6.595,4.494-6.595l1.848-6.759,1.436-6.675.414-4.524.662-10.016.966-6.619S1030.567,527.164,1030.179,526.693Z"
          transform="translate(-722.425 -375.284)" opacity="0.1"/>
    <path id="Path_948" data-name="Path 948"
          d="M1029.622,525.583s-.5-.247-.965.471a3.131,3.131,0,0,1-1.353,1.046s-5.021.8-5.215,1.463l-2.342.137s-.828.11-.912,1.848-.525,1.9-.525,1.9a6.785,6.785,0,0,0-.894,2.593,1.445,1.445,0,0,1-.745,1.326l3.46,8.976s.11,3.7-.524,5.048a64.175,64.175,0,0,0-1.821,7.34s.5-.11.471.22-.6,3.943-.6,3.943a7.861,7.861,0,0,1-.441,1.931,13.893,13.893,0,0,0-.3,3.09l-.441,1.878s1.049,2.345,2.649,2.011,4.5-6.592,4.5-6.592l1.848-6.759,1.434-6.676.4-4.542.662-10.016.966-6.619S1030.007,526.054,1029.622,525.583Z"
          transform="translate(-722.032 -374.505)" fill="#65617d"/>
    <path id="Path_949" data-name="Path 949" d="M984.969,585.333l-1.6,1.1a18.944,18.944,0,0,1-4.2-.352l-.894-.4-.179-.078.185.06a3.654,3.654,0,0,0,2.208.077c2.265-.763,2.015-4.5,1.925-5.346a.785.785,0,0,0-.018-.161h0v.021a1.482,1.482,0,0,0,.1.146l.1.107h0l.828,1.591a.428.428,0,0,1,0,.068Z" transform="translate(-695.09 -412.902)" opacity="0.1"/>
    <path id="Path_950" data-name="Path 950"
          d="M990.884,561.14l-.772.22-.11,1.571a1.068,1.068,0,0,0-1.159.939,3.787,3.787,0,0,1-.688,1.573s-1.517,1.27-1.6,2.345l-.939.578s-2.178-.5-2.682-1.38c0,0,1,7.116-4.3,5.364,0,0,5.93,2.593,6.208,2.953a3.467,3.467,0,0,0,3.752.525,3.935,3.935,0,0,0,2.015-2.235,23.059,23.059,0,0,0,1.654-2.566c.054-.331,1.3-.718,1.3-.718l2.384-5.737Z"
          transform="translate(-695.462 -399.494)" fill="#65617d"/>
    <path id="Path_951" data-name="Path 951"
          d="M1083.456,526.362l.8-3.642a4.287,4.287,0,0,0,.718,1.463l1.192.894a7,7,0,0,0,1.6.551,9.67,9.67,0,0,1,2.923.894c.274.3,1.38.083,1.38.083s.909.3,1.71.5,1.192,1.517,1.02,2.041a1.594,1.594,0,0,0,.387,1.49,3.559,3.559,0,0,1,.5,1.407,1.616,1.616,0,0,1,.936.8,5.517,5.517,0,0,1,.194,1.931l-4.11,5.793a17.054,17.054,0,0,1-.11,2.733c-.164.5.578,8.94.578,8.94l.855,14.51a15.057,15.057,0,0,1-1.38,1.076c-.247.11-.495-5.132-.495-5.323s-6.374-9.536-6.374-9.536a8.562,8.562,0,0,1-.855-1.684c0-.3-.8-3.09-.8-3.09l-1.213-5.364Z"
          transform="translate(-768.665 -372.524)" opacity="0.1"/>
    <path id="Path_952" data-name="Path 952"
          d="M1097.921,534.466v.316l-4.107,5.787h0a16.7,16.7,0,0,1-.11,2.733c-.1.3.113,3.257.3,5.695.14,1.758.268,3.242.268,3.242l.364,6.154.492,8.344a15.05,15.05,0,0,1-1.38,1.076c-.247.11-.495-5.132-.495-5.326s-6.374-9.536-6.374-9.536a8.563,8.563,0,0,1-.855-1.684c0-.3-.8-3.09-.8-3.09l-1.213-5.364.551-16.441.468-3.642a7.814,7.814,0,0,0,1.049,1.46l1.192.912a7,7,0,0,0,1.6.551,9.667,9.667,0,0,1,2.923.894c.274.3,1.38.083,1.38.083s.912.3,1.711.5,1.192,1.517,1.019,2.041a1.6,1.6,0,0,0,.387,1.49,3.557,3.557,0,0,1,.5,1.407,1.615,1.615,0,0,1,.936.8A4.468,4.468,0,0,1,1097.921,534.466Z"
          transform="translate(-769.437 -372.531)" fill="#65617d"/>
    <path id="Path_953" data-name="Path 953" d="M1017.53,808.76c.137,0,5.93.22,5.82,1.159S1017.53,808.76,1017.53,808.76Z" transform="translate(-722.769 -573.321)" opacity="0.1"/>
    <path id="Path_954" data-name="Path 954" d="M1021.88,814s3.889.635,2.87,1.213S1021.88,814,1021.88,814Z" transform="translate(-725.823 -577)" opacity="0.1"/>
    <path id="Path_955" data-name="Path 955" d="M1070.39,806.73s6.455.551,5.489,1.266a8.481,8.481,0,0,1-3.365.855C1072.4,808.879,1070.39,806.73,1070.39,806.73Z" transform="translate(-759.876 -571.896)" opacity="0.1"/>
    <path id="Path_956" data-name="Path 956" d="M1067.8,816.26s3.576.6,3.7,1.3S1067.8,816.26,1067.8,816.26Z" transform="translate(-758.058 -578.586)" opacity="0.1"/>
    <path id="Path_957" data-name="Path 957" d="M1074.46,760.53s3.278.772,3.478,1.3Z" transform="translate(-762.733 -539.464)" opacity="0.1"/>
    <path id="Path_958" data-name="Path 958" d="M1030.171,768.49s-1.711.5-.054,1.49S1030.171,768.49,1030.171,768.49Z" transform="translate(-731.098 -545.052)" opacity="0.1"/>
    <path id="Path_959" data-name="Path 959" d="M1057.43,677.965c.194,0,3.2-.992,4.25-.551a6.989,6.989,0,0,0,2.342.441Z" transform="translate(-750.779 -481.038)" opacity="0.1"/>
    <path id="Path_960" data-name="Path 960" d="M1049.513,686.493l-.03.274-2.572,6.735s-.414,2.041-.772,3.2a21.013,21.013,0,0,0-.539,2.384l2.277-14.117Z" transform="translate(-742.474 -486.422)" opacity="0.1"/>
    <path id="Path_961" data-name="Path 961" d="M1068.092,643.573l-1.07.018h-.033l-.629-2.78.93-.051Z" transform="translate(-757.047 -455.387)" fill="#3f3d56"/>
    <path id="Path_962" data-name="Path 962" d="M1089.68,632.659l-.685.566-2.295,1.886s-6.2,3.311-7.915.167c-1.508-2.771,5.528-4.75,7.224-5.182l.361-.086Z" transform="translate(-765.622 -447.84)" fill="#fbbebe"/>
    <path id="Path_963" data-name="Path 963" d="M1026.88,547.9s1.213.551,1.49,1.323S1026.88,547.9,1026.88,547.9Z" transform="translate(-729.333 -390.2)" opacity="0.1"/>
    <path id="Path_964" data-name="Path 964" d="M1011.417,575.67s-1.764,2.152-1.049,2.98S1011.417,575.67,1011.417,575.67Z" transform="translate(-717.622 -409.694)" opacity="0.1"/>
    <path id="Path_965" data-name="Path 965" d="M1116.16,552s-1.654.167-1.71,1.6Z" transform="translate(-790.806 -393.078)" opacity="0.1"/>
    <path id="Path_966" data-name="Path 966" d="M1068.72,615.332c.167-.167,3.972-5.793,4.857-5.3Z" transform="translate(-758.704 -433.797)" opacity="0.1"/>
    <path id="Path_967" data-name="Path 967"
          d="M1061.708,489.587a6.556,6.556,0,0,1-.778,3.1h-.048c-.417-.089-.635-.572-.951-.876a1.29,1.29,0,0,0-1.49-.209,1.514,1.514,0,0,0-.733,1.416c-.208-.894-.143-1.824-.348-2.709s-.823-1.788-1.669-1.788c-.364,0-.79.134-1.052-.14a2.617,2.617,0,0,1-.3-.623c-.6-.98-2.444-.486-3.195.018a19.457,19.457,0,0,1-2.557,1.731,6.565,6.565,0,0,1,13.13.1Z"
          transform="translate(-744.573 -344.633)" opacity="0.1"/>
    <path id="Path_968" data-name="Path 968"
          d="M1050.349,479.231a4.207,4.207,0,0,0,.3.626c.262.271.688.131,1.052.137.846.015,1.466.912,1.669,1.788s.14,1.824.352,2.706a1.49,1.49,0,0,1,.73-1.413,1.3,1.3,0,0,1,1.49.206c.316.3.533.79.951.876s.817-.313.966-.751a11.509,11.509,0,0,0,.238-1.374,17.822,17.822,0,0,1,1.061-2.384,4.325,4.325,0,0,0-.027-3.081c-.209-.519-.516-.983-.724-1.49-.319-.784-.4-1.672-.79-2.42a2.861,2.861,0,0,0-3.436-1.413c-.6.227-1.12.662-1.729.858a5.678,5.678,0,0,1-2.53-.054,3.114,3.114,0,0,0-2.456.426c-.781.641-1,1.842-1.728,2.542-.3.3-.691.483-1.016.754a1.4,1.4,0,0,0-.569,1.121c.051.572.6,1.091.4,1.621a1.258,1.258,0,0,1-.3.4,5.777,5.777,0,0,0-1.335,2.274c1.49.459,3.075-1.168,4.229-1.937C1047.906,478.748,1049.744,478.253,1050.349,479.231Z"
          transform="translate(-740.593 -336.288)" fill="#7c5c5c"/>
    <path id="Path_969" data-name="Path 969" d="M1106.939,632.659l-.685.566a19.7,19.7,0,0,0-3.093-3.025l.107-.1.361-.086Z" transform="translate(-782.881 -447.84)" opacity="0.1"/>
    <path id="Path_970" data-name="Path 970" d="M1107.993,629.552s-.244.614-.5,1.144-.533,1.013-.545.623c-.03-.775-3.227-3.368-3.227-3.368l.432-.423.5-.489Z" transform="translate(-783.274 -445.756)" fill="#e7effd"/>
    <path id="Path_971" data-name="Path 971" d="M1108.167,614.132l.364,6.154c-.858-1.332-3.21-4.747-4.72-4.637l3.669-4.22a4.92,4.92,0,0,0,.42-.539C1108.039,612.648,1108.167,614.132,1108.167,614.132Z" transform="translate(-783.337 -434.418)" opacity="0.1"/>
    <path id="Path_972" data-name="Path 972" d="M1109.011,629.552s-.244.614-.5,1.144c-.963-1.317-2.283-2.876-3.341-3.168l.5-.489Z" transform="translate(-784.292 -445.756)" opacity="0.1"/>
    <path id="Path_973" data-name="Path 973"
          d="M1111.2,560.58l.992.772s1.657.03,1.821,1.407a2.876,2.876,0,0,0,1.684,2.015s1.13,1.132,1.13,1.657.855,1.46.855,1.544.829,1.764.718,2.068.894,1.627.578,2.125a12.763,12.763,0,0,0-.661,1.38,13.99,13.99,0,0,1-1.958,2.95,52.843,52.843,0,0,0-3.7,4.417s-3.257,3.749-3.257,4.908c0,0-3.171-5.3-5.048-5.159l3.669-4.22a2.86,2.86,0,0,0,.664-1.1c.03-.411,1.764-2.319,2.593-2.4,0,0,.137-1.129-.22-1.159s-.662-.894-.662-.894-2.429-2.87-2.456-4.691S1111.2,560.58,1111.2,560.58Z"
          transform="translate(-783.723 -399.101)" fill="#65617d"/>
    <path id="Path_974" data-name="Path 974" d="M1127.776,569.37s-2.318,1.711-1.821,2.265S1127.776,569.37,1127.776,569.37Z" transform="translate(-798.833 -405.272)" opacity="0.1"/>
    <path id="Path_975" data-name="Path 975" d="M1132.6,591.625s4.3-1.38,4.744,0Z" transform="translate(-803.547 -420.464)" opacity="0.1"/>
    <path id="Path_976" data-name="Path 976" d="M1007.008,838.08s-2.319,1.52-3.478,1.3a4.173,4.173,0,0,0-2.345.387,6.962,6.962,0,0,1-2.923,1.9,10.71,10.71,0,0,1-5.987-.11c-.7-.235-.76-.539-.42-.912,1.618.322,5.239.963,6.214.5a25.864,25.864,0,0,0,3.09-1.931s2.384-.331,2.7-.331a29.5,29.5,0,0,0,3.1-1.192Z" transform="translate(-704.603 -593.63)"
          opacity="0.1"/>
    <path id="Path_977" data-name="Path 977" d="M1074.5,849.45a.5.5,0,0,1-.021.152s-.551,1.213-3.615,1.654-3.061-1.019-3.061-1.019l.03-.4C1068.8,850.21,1070.914,850.618,1074.5,849.45Z" transform="translate(-758.058 -601.885)" opacity="0.1"/>
    <path id="Path_978" data-name="Path 978" d="M1029.1,568.26s0,6.291-.536,6.911S1029.1,568.26,1029.1,568.26Z" transform="translate(-730.411 -404.492)" opacity="0.1"/>
    <path id="Path_979" data-name="Path 979" d="M1114.17,575.07l.8,2.247S1115.287,575.112,1114.17,575.07Z" transform="translate(-790.609 -409.273)" opacity="0.1"/>
    <g id="Group_491" data-name="Group 491" transform="translate(302.342 140.103)" opacity="0.1">
      <path id="Path_980" data-name="Path 980" d="M1047.569,490.429c.2-.516-.328-1.025-.4-1.579a1.015,1.015,0,0,0-.09.5,9.725,9.725,0,0,0,.426,1.192A.686.686,0,0,0,1047.569,490.429Z" transform="translate(-1045.856 -488.85)"/>
      <path id="Path_981" data-name="Path 981"
            d="M1053.838,500.486c-.2-.87-.137-1.788-.34-2.661s-.822-1.788-1.669-1.788c-.364,0-.79.131-1.052-.14-.161-.164-.191-.423-.3-.626-.6-.977-2.444-.48-3.2.021-1.126.748-2.682,2.318-4.124,1.961-.068.167-.134.337-.188.513,1.49.459,3.075-1.168,4.229-1.937.754-.5,2.593-1,3.2-.018a4.193,4.193,0,0,0,.3.626c.262.271.688.131,1.052.137.846.015,1.466.912,1.669,1.788s.14,1.824.352,2.706a1.491,1.491,0,0,1,.071-.581Z"
            transform="translate(-1042.97 -492.964)"/>
      <path id="Path_982" data-name="Path 982" d="M1083.608,509.49c-.149.438-.542.84-.968.751s-.632-.572-.948-.876a1.3,1.3,0,0,0-1.49-.209,1.507,1.507,0,0,0-.733,1.338,1.439,1.439,0,0,1,.65-.8,1.3,1.3,0,0,1,1.49.206c.316.3.533.79.951.876s.816-.313.965-.751a3.507,3.507,0,0,0,.152-.793A1.863,1.863,0,0,1,1083.608,509.49Z"
            transform="translate(-1068.591 -503.002)"/>
      <path id="Path_983" data-name="Path 983" d="M1095.031,496.554a19.094,19.094,0,0,0-1.061,2.384c-.036.173-.06.352-.081.53a18.382,18.382,0,0,1,1.058-2.384,4.132,4.132,0,0,0,.253-1.144A4.161,4.161,0,0,1,1095.031,496.554Z" transform="translate(-1078.715 -493.827)"/>
    </g>
    <circle id="Ellipse_114" data-name="Ellipse 114" cx="0.069" cy="0.069" r="0.069" transform="translate(278.722 162.668)" fill="#e6e8ec"/>
    <rect id="Rectangle_227" data-name="Rectangle 227" width="53.993" height="62.051" rx="6.61" transform="translate(253.046 164.274)" fill="#fff"/>
    <rect id="Rectangle_228" data-name="Rectangle 228" width="53.993" height="62.051" rx="6.61" transform="translate(253.046 164.274)" fill="#5a5773" opacity="0.1"/>
    <rect id="Rectangle_229" data-name="Rectangle 229" width="48.486" height="55.722" rx="6.61" transform="translate(255.799 167.439)" fill="#fff"/>
    <rect id="Rectangle_230" data-name="Rectangle 230" width="33.264" height="11.479" rx="5.74" transform="translate(262.853 178.614)" fill="#0288d1"/>
    <rect id="Rectangle_231" data-name="Rectangle 231" width="30.823" height="2.342" transform="translate(264.075 194.293)" fill="#0288d1"/>
    <rect id="Rectangle_232" data-name="Rectangle 232" width="42.413" height="2.342" transform="translate(258.836 199.236)" fill="#0288d1"/>
    <rect id="Rectangle_233" data-name="Rectangle 233" width="42.413" height="2.342" transform="translate(258.836 204.44)" fill="#0288d1"/>
    <rect id="Rectangle_234" data-name="Rectangle 234" width="42.413" height="2.342" transform="translate(258.836 209.643)" fill="#0288d1"/>
    <rect id="Rectangle_235" data-name="Rectangle 235" width="127.134" height="62.051" rx="6.61" transform="translate(0 143.762)" fill="#fff"/>
    <rect id="Rectangle_236" data-name="Rectangle 236" width="127.134" height="62.051" rx="6.61" transform="translate(0 143.762)" fill="#5a5773" opacity="0.1"/>
    <rect id="Rectangle_237" data-name="Rectangle 237" width="114.161" height="55.722" rx="6.61" transform="translate(6.485 146.927)" fill="#fff"/>
    <rect id="Rectangle_238" data-name="Rectangle 238" width="78.32" height="11.479" rx="5.74" transform="translate(23.099 158.105)" fill="#0288d1"/>
    <rect id="Rectangle_239" data-name="Rectangle 239" width="72.574" height="2.342" transform="translate(25.971 173.781)" fill="#0288d1"/>
    <rect id="Rectangle_240" data-name="Rectangle 240" width="99.863" height="2.342" transform="translate(13.634 178.725)" fill="#0288d1"/>
    <rect id="Rectangle_241" data-name="Rectangle 241" width="99.863" height="2.342" transform="translate(13.634 183.928)" fill="#0288d1"/>
    <rect id="Rectangle_242" data-name="Rectangle 242" width="99.863" height="2.342" transform="translate(13.634 189.131)" fill="#0288d1"/>
    <path id="Path_984" data-name="Path 984"
          d="M132.662,599.666c.355-1.293.6-2.432.6-2.432a5.066,5.066,0,0,1,.662-2.465v-.358h0l.1-2.625a8.741,8.741,0,0,0-.6-1.4c-.441-.843.149-3.85.149-3.85s1.916-4.193,1.594-6.914,4.059-11.87,4.059-11.87a11.767,11.767,0,0,0-.274-2.682,2.055,2.055,0,0,1-.03-.557.523.523,0,0,1,0-.068v.021a20.5,20.5,0,0,1,1.666-5.066l.057-6.377a18.789,18.789,0,0,1,.894-8.776c.581-1.74.963-3.135,1.213-4.214.03-.122.057-.238.08-.352-3-.578-5.3-1.049-5.3-1.049s2.035-7.266,3.278-8.5,2.333-5.236,2.333-5.236.817-5.156-.119-6.705a10.1,10.1,0,0,1-.977-4.172s-2.211-1.737-2.467-2.479a12.156,12.156,0,0,1-.632-3.278c.033-.864.349-1.639.271-2.1s.748-2.172.4-3.013a2.306,2.306,0,0,1-.119-.8v-.024h0a11.153,11.153,0,0,1,.283-2.143,6.079,6.079,0,0,1,2.295-1.115l.057-.2.149-.51a2.5,2.5,0,0,1,.226-.125l.015-.188.048-.742-.286-1.693c-.6-2.938,3.314-3.221,3.314-3.221a2.048,2.048,0,0,1,1.135-.924c.793-.244-.036,4.384-.414,4.667a15.819,15.819,0,0,0-1.624,2.339h0l-.072.116a1.612,1.612,0,0,1,.173.194l-.188,1-.03.152a4.172,4.172,0,0,1,.581,1.082,2.247,2.247,0,0,0-.632,1.627,5.242,5.242,0,0,1-.3,2.006c.042-.045.563-.566,1.058-.417s1.872.623,1.872.623,1.034.223.93.45.665,1.264.665,1.264l2.9-2.542c.033-.081.063-.158.092-.238a6.657,6.657,0,0,0,.3-1.153,6.23,6.23,0,0,1-.894-.319,1.946,1.946,0,0,1-.757-.525,3.129,3.129,0,0,1-.4-1.225,17.173,17.173,0,0,0-.951-2.357,7.537,7.537,0,0,1-.4-4.172,2.777,2.777,0,0,1,.477-1.192c.483-.611,1.32-.834,1.943-1.311s1.04-1.231,1.755-1.579a3.383,3.383,0,0,1,2.134-.1,11.4,11.4,0,0,1,3.889,1.582,2.02,2.02,0,0,0,1.311.489,1.809,1.809,0,0,0,.983-.665.223.223,0,0,1,0-.042l.033-.033a4.914,4.914,0,0,1,.352,2.11,1.574,1.574,0,0,1-.024.334v.116a.545.545,0,0,0,0,.1h0a.493.493,0,0,0,.018.146,1.046,1.046,0,0,0,.247.39,2.128,2.128,0,0,1,.215.319.425.425,0,0,0-.033-.116,1.663,1.663,0,0,1,.256.894.873.873,0,0,1-.235.623,2.766,2.766,0,0,1-.471.352,5.349,5.349,0,0,1-2.766,5.451c-.036.078-.072.158-.1.238A6.664,6.664,0,0,0,158,505.17a.714.714,0,0,0,.024.223c.024.075.069.081.1.122h0s4.619.224,5.746-.721,2.652,2.512,2.652,2.512,1.645.384,1.988.078,2.277.042,2.277.042a4.172,4.172,0,0,1,2.926-.945,8.549,8.549,0,0,1,2.167-1.1h0l.054-.018h0a2.336,2.336,0,0,1,1.046-.092,21,21,0,0,0,3.046-2.774c.7-.986,3.987-4.6,3.987-4.619l.021-.179.057-.542a1.818,1.818,0,0,0,.28.036l.072-.188a10.229,10.229,0,0,1,.73-1.514s.027-.688-.167-.867a11.727,11.727,0,0,1,.188-2.682s2.232-4.709,3.928-1.064c0,0,3.379,2.447.364,5.027,0,0-1.192.519-1.362.957-.119.3-.545,1.079-.831,1.606l-.128.235.033.03-.06.447-.024.176c.533.331.894.653.8.894a5.065,5.065,0,0,0-.378,1.225s-4.214,4.858-4.816,7c0,0-11.044,6-14.6,6.324l.492,3.23a25.753,25.753,0,0,1,.042,2.62c-.075.685.28,3.818.28,3.818s.438,4.607.936,5.269.3,3.409.3,3.409a23.213,23.213,0,0,0,.56,3.922,10.021,10.021,0,0,1,0,3.9s1.642,4.193-2.56,1.231c0,0-2.11-.212-4.542-.387v.241c0,.316-.015.656-.024,1.013-.06,2.363-.17,5.618-.372,8.076-.358,4.348-2.015,12.913-2.015,12.913l-.167,4.327a5.733,5.733,0,0,1,.077,1.243,8.047,8.047,0,0,1-1.332,4.288l-.444,2.876a11.334,11.334,0,0,0-.909,3.007,1.351,1.351,0,0,0,.024.277,2.211,2.211,0,0,1,.021.444,24.317,24.317,0,0,1-.918,4.417s-.17,3.162-.65,3.326c-.411.143.471,1.845.733,2.333a.486.486,0,0,0,.021-.089l.057.1a2.246,2.246,0,0,1,.116.808,1.153,1.153,0,0,1-.569,1.091c-.921.516-1.422.954-.665,1.168a8.437,8.437,0,0,1,.828.206l.045-.1a.51.51,0,0,1,.3.566,2.315,2.315,0,0,1-.325,1.061,11.551,11.551,0,0,1-1.371,2.289l-.364-.054a1.818,1.818,0,0,0,.2.4,1.514,1.514,0,0,0,.519.5,1.658,1.658,0,0,0,.638.244,1.838,1.838,0,0,1,1.317.706,1.4,1.4,0,0,1-.25,2.167l-3.43,1.037s-5.853.533-5.5-.76.6-2.432.6-2.432a5.17,5.17,0,0,1,.56-2.3,3.057,3.057,0,0,1,.221-.334l-.206-.03s-.34-2.906-.9-3.469c-.125-.134-.152-.232-.119-.3-.051-.158.1-.244.3-.3a.465.465,0,0,0,.039.113,2.866,2.866,0,0,1,.566-.039s.247-1.505-.346-2.086a.566.566,0,0,1-.1-.453,2.322,2.322,0,0,1,.086-.614.22.22,0,0,0,.021.036,22.557,22.557,0,0,1,1.49-3.5,4.379,4.379,0,0,0-.259-1.94c-.358-.566.337-7.468.337-7.468a22.633,22.633,0,0,1,.471-4.89,5.508,5.508,0,0,0-.39-3.412.476.476,0,0,1,.015-.1.119.119,0,0,0,0-.027s.03-.206.077-.525v.033c.131-.894.373-2.477.533-3.216.229-1.046.188-6.1.188-6.1l-.772-2.176-1.66,3.654-1.788,4.887a4.205,4.205,0,0,0-.894,2.086v.158a2.471,2.471,0,0,1,0,.331,2.956,2.956,0,0,1-.56,1.743s-.516,2.321-1.192,2.891a2.7,2.7,0,0,0-.73,1.717,29.346,29.346,0,0,1-1.338,3.943,5.93,5.93,0,0,0-.42,2.292h0v.122s-.158,1.21-.194,2.229v.361a.066.066,0,0,1,0-.024,3.454,3.454,0,0,0,.066.826v-.122a8.669,8.669,0,0,1,.164,2.122,5.444,5.444,0,0,1-1.04,3.475c-1.335,1.418-2.131,1.192-2.131,1.192s.545,1.857,1.287,2.253a.474.474,0,0,1,.08.054.183.183,0,0,1,.021-.1.894.894,0,0,1,.2.691,4.941,4.941,0,0,1-1.043,2.682,1.491,1.491,0,0,1-.653.352,1.153,1.153,0,0,0,.116.078,2.32,2.32,0,0,0,.256.131,1.267,1.267,0,0,0,.381.116,1.812,1.812,0,0,1,1.317.706,1.392,1.392,0,0,1-.25,2.164l-3.43,1.037S132.3,600.959,132.662,599.666Z"
          transform="translate(-101.589 -349.202)" fill="url(#linear-gradient-3)"/>
    <path id="Path_985" data-name="Path 985" d="M194.5,853.953l3.323-1.04a1.426,1.426,0,0,0,.244-2.169,1.74,1.74,0,0,0-1.272-.7,1.557,1.557,0,0,1-.62-.247,1.49,1.49,0,0,1-.5-.495,2.444,2.444,0,0,1-.325-1.281s-3.558-1.192-4.583-.176a2.68,2.68,0,0,0-.456.623,5.364,5.364,0,0,0-.548,2.3s-.227,1.135-.575,2.432S194.5,853.953,194.5,853.953Z"
          transform="translate(-141.274 -600.47)" fill="#2d293d"/>
    <path id="Path_986" data-name="Path 986" d="M140.881,846.435l3.323-1.04a1.424,1.424,0,0,0,.244-2.167,1.741,1.741,0,0,0-1.275-.7,1.169,1.169,0,0,1-.37-.113,2.344,2.344,0,0,1-.247-.134,2.1,2.1,0,0,1-.825-1.788s-3.558-1.192-4.583-.176a2.63,2.63,0,0,0-.364.453,5.2,5.2,0,0,0-.644,2.471s-.229,1.138-.575,2.432S140.881,846.435,140.881,846.435Z"
          transform="translate(-103.627 -595.184)" fill="#2d293d"/>
    <path id="Path_987" data-name="Path 987" d="M193.453,847.842a2.679,2.679,0,0,0-.453.623h0l5.364.832a2.444,2.444,0,0,1-.325-1.281S194.49,846.826,193.453,847.842Z" transform="translate(-143.957 -600.468)" opacity="0.1"/>
    <path id="Path_988" data-name="Path 988" d="M139.6,840.779l-.039,1.01c.787,1.416,4.855,1.269,6.059.623a2.323,2.323,0,0,1-.247-.134,2.1,2.1,0,0,1-.825-1.788s-3.558-1.192-4.583-.176A2.639,2.639,0,0,0,139.6,840.779Z" transform="translate(-106.442 -595.184)" opacity="0.1"/>
    <path id="Path_989" data-name="Path 989"
          d="M137.73,702.644a9.259,9.259,0,0,1,.6,1.4l-.146,3.618c.858,1.55,5.644,1.228,6.318.429s1.442-2.929.724-3.323-1.246-2.253-1.246-2.253.772.215,2.068-1.192,1.052-4.688.849-5.474a16,16,0,0,1,.134-3.391,6.784,6.784,0,0,1,.414-2.417,30,30,0,0,0,1.3-3.943,2.69,2.69,0,0,1,.706-1.716c.665-.569,1.168-2.894,1.168-2.894a3,3,0,0,0,.533-1.952,4.013,4.013,0,0,1,.87-2.354l1.749-4.887,1.609-3.657.742,2.184s.036,5.051-.188,6.1-.6,3.832-.6,3.832a5.667,5.667,0,0,1,.376,3.412,23.545,23.545,0,0,0-.465,4.89s-.679,6.9-.334,7.468a4.487,4.487,0,0,1,.247,1.937s-2.032,3.961-1.46,4.536.334,2.086.334,2.086-1.281-.051-.754.521.811,3.454.811,3.454l5.516.855a11.672,11.672,0,0,0,1.329-2.292c.8-1.666-.077-1.517-.808-1.728s-.247-.653.644-1.168.435-1.773.435-1.773-1.243-2.3-.775-2.462.632-3.326.632-3.326,1.061-3.725.87-4.741.867-3.409.867-3.409l.429-2.873a7.936,7.936,0,0,0,1.219-5.415l.173-4.446s1.621-8.55,1.985-12.913c.226-2.783.34-6.589.39-8.964.03-1.335.042-2.217.042-2.217L147.32,649.36a16.273,16.273,0,0,1-.474,2.926,43.524,43.524,0,0,1-1.192,4.217,19.382,19.382,0,0,0-.894,8.776l-.063,6.377s-1.907,4.2-1.594,5.677a12.111,12.111,0,0,1,.262,2.682s-4.244,9.143-3.934,11.852-1.553,6.917-1.553,6.917S137.3,701.8,137.73,702.644Z"
          transform="translate(-105.047 -461.424)" fill="#575988"/>
    <path id="Path_990" data-name="Path 990" d="M165.046,747.043l-6-1.043S162.331,749.624,165.046,747.043Z" transform="translate(-120.124 -529.264)" opacity="0.05"/>
    <path id="Path_991" data-name="Path 991" d="M161.752,726.39s-.3,2.122.986,2.98C162.726,729.364,160.417,728.908,161.752,726.39Z" transform="translate(-121.729 -515.498)" opacity="0.1"/>
    <path id="Path_992" data-name="Path 992" d="M164.85,703.67s4.878,4.342,6.723,4.071S164.85,703.67,164.85,703.67Z" transform="translate(-124.196 -499.549)" opacity="0.1"/>
    <path id="Path_993" data-name="Path 993" d="M204,757s3.794,1.019,3.85,2.557S204,757,204,757Z" transform="translate(-151.679 -536.986)" opacity="0.1"/>
    <path id="Path_994" data-name="Path 994" d="M196.356,821s5.364,1.216,3.809,1.845a25.972,25.972,0,0,1-4.1,1.082S194.315,823.956,196.356,821Z" transform="translate(-145.617 -581.914)" opacity="0.05"/>
    <g id="Group_492" data-name="Group 492" transform="translate(32.529 190.612)" opacity="0.05">
      <path id="Path_995" data-name="Path 995" d="M212.632,829.2a1.073,1.073,0,0,0,.525-.763l.051.1s.459,1.255-.435,1.788c-.1.057-.2.116-.3.173-.158-.036-.331-.066-.495-.113C211.252,830.162,211.738,829.721,212.632,829.2Z" transform="translate(-189.561 -777.749)"/>
      <path id="Path_996" data-name="Path 996" d="M191.425,826.655c-.143-.143-.122-.495,0-.945a2.56,2.56,0,0,1,.256,1.341A1.043,1.043,0,0,0,191.425,826.655Z" transform="translate(-175.31 -775.832)"/>
      <path id="Path_997" data-name="Path 997" d="M197.217,752.48a6.232,6.232,0,0,1,.3,1.7,6.5,6.5,0,0,0-.375-1.174S197.173,752.8,197.217,752.48Z" transform="translate(-179.392 -724.425)"/>
      <path id="Path_998" data-name="Path 998" d="M156.086,741.624a2.188,2.188,0,0,1-.033-.5c.057.346.092.665.113.945C156.143,741.922,156.116,741.776,156.086,741.624Z" transform="translate(-150.547 -716.451)"/>
      <path id="Path_999" data-name="Path 999" d="M195.484,804.762a3.037,3.037,0,0,1-.1-1.022,3.447,3.447,0,0,1,.215,1.293A1.257,1.257,0,0,0,195.484,804.762Z" transform="translate(-178.156 -760.41)"/>
      <path id="Path_1000" data-name="Path 1000" d="M190.113,836a17.994,17.994,0,0,1,.522,2.84l5.516.855a11.558,11.558,0,0,0,1.332-2.292c.072-.146.125-.277.173-.4.325.164.444.516-.033,1.5a11.689,11.689,0,0,1-1.329,2.289l-5.528-.849s-.3-2.9-.831-3.472C189.687,836.2,189.871,836.068,190.113,836Z" transform="translate(-174.251 -783.056)"/>
      <path id="Path_1001" data-name="Path 1001"
            d="M214.378,703.342s-.167,3.162-.632,3.326h0c-.212-.533-.349-1.034-.14-1.109.465-.167.635-3.326.635-3.326s1.061-3.722.87-4.741.864-3.406.864-3.406l.432-2.876a7.936,7.936,0,0,0,1.219-5.415l.17-4.446s1.615-8.565,1.967-12.913c.223-2.783.337-6.589.39-8.964,0-.429.018-.811.024-1.132l.158.024s0,.894-.042,2.214c-.051,2.384-.164,6.184-.39,8.967-.352,4.345-1.964,12.913-1.964,12.913l-.173,4.443a7.945,7.945,0,0,1-1.216,5.415l-.435,2.876s-1.058,2.384-.867,3.409S214.378,703.342,214.378,703.342Z"
            transform="translate(-190.878 -658.34)"/>
      <path id="Path_1002" data-name="Path 1002" d="M145.8,837.263a5.364,5.364,0,0,0,.96-2.143c.545.53-.179,2.488-.82,3.248s-5.46,1.121-6.318-.426l.033-.873C140.845,838.344,145.16,838.02,145.8,837.263Z" transform="translate(-139.013 -782.438)"/>
      <path id="Path_1003" data-name="Path 1003" d="M137.6,823.916a9.263,9.263,0,0,1,.6,1.4l-.027.641a10.022,10.022,0,0,0-.423-.936,2.762,2.762,0,0,1-.155-1.141Z" transform="translate(-137.584 -774.548)"/>
      <path id="Path_1004" data-name="Path 1004" d="M159.031,811.581a8.968,8.968,0,0,1-.411-1.106s.772.212,2.065-1.207c.942-1.034,1.07-3.046.992-4.369.2.79.444,4.056-.849,5.474A3.306,3.306,0,0,1,159.031,811.581Z" transform="translate(-152.351 -761.224)"/>
      <path id="Path_1005" data-name="Path 1005"
            d="M168.513,734.805a24.5,24.5,0,0,0-.2,2.715,3.864,3.864,0,0,0-.077-.429,16.24,16.24,0,0,1,.131-3.391,6.853,6.853,0,0,1,.414-2.417,30.454,30.454,0,0,0,1.3-3.943,2.706,2.706,0,0,1,.709-1.717c.665-.572,1.168-2.894,1.168-2.894a3.016,3.016,0,0,0,.533-1.952,4.013,4.013,0,0,1,.87-2.354l1.749-4.887,1.609-3.656.742,2.187v.7l-.6-1.788-1.609,3.654-1.749,4.89a3.972,3.972,0,0,0-.87,2.354,3,3,0,0,1-.533,1.952s-.5,2.322-1.168,2.891a2.69,2.69,0,0,0-.706,1.717,30.621,30.621,0,0,1-1.3,3.946A6.947,6.947,0,0,0,168.513,734.805Z"
            transform="translate(-159.059 -694.521)"/>
    </g>
    <path id="Path_1006" data-name="Path 1006" d="M167.145,500.313l.28,1.687-.048.745-.036.548,1.9.271.229-.387h0a17.442,17.442,0,0,1,1.576-2.342c.364-.283,1.174-4.911.405-4.667a2.011,2.011,0,0,0-1.1.924S166.582,497.378,167.145,500.313Z" transform="translate(-125.766 -353.878)" fill="#ffcdd3"/>
    <path id="Path_1007" data-name="Path 1007" d="M167.94,518.367l1.9.271.229-.387h0a1.69,1.69,0,0,0-2.086-.429Z" transform="translate(-126.365 -368.952)" opacity="0.1"/>
    <path id="Path_1008" data-name="Path 1008" d="M166.2,519.683l2.5.682.066-.375.182-1a1.737,1.737,0,0,0-2.429-.426l-.143.51Z" transform="translate(-125.143 -369.379)" fill="#dce6f2"/>
    <path id="Path_1009" data-name="Path 1009" d="M303.74,497.333l2.634,1.55s.11-.212.265-.5c.277-.527.688-1.32.8-1.606.176-.438,1.32-.96,1.32-.96,2.923-2.584-.346-5.024-.346-5.024-1.639-3.645-3.8,1.067-3.8,1.067a12.124,12.124,0,0,0-.185,2.682c.188.17.161.867.161.867a10.136,10.136,0,0,0-.709,1.514C303.791,497.17,303.74,497.333,303.74,497.333Z"
          transform="translate(-221.695 -349.14)" fill="#ffcdd3"/>
    <path id="Path_1010" data-name="Path 1010" d="M303.74,515.07l2.634,1.55s.11-.212.265-.5c-.37-.331-1.675-1.49-2.119-1.442a3.2,3.2,0,0,1-.638,0C303.791,514.906,303.74,515.07,303.74,515.07Z" transform="translate(-221.695 -366.876)" opacity="0.1"/>
    <path id="Path_1011" data-name="Path 1011" d="M302.71,516.185l2.98,1.606.083-.65.06-.447s-1.693-1.568-2.211-1.532a2.818,2.818,0,0,1-.793-.033l-.054.542Z" transform="translate(-220.972 -367.196)" fill="#dce6f2"/>
    <path id="Path_1012" data-name="Path 1012" d="M190.45,524.5s13.133,2,10.7,1.1a3.308,3.308,0,0,1-2.432-2.959,6.92,6.92,0,0,1,.6-3.034,13.3,13.3,0,0,1,1.272-2.336s-9.87-5.933-8.046-.814a8.088,8.088,0,0,1,.48,2.411,6.8,6.8,0,0,1-.352,2.408A7.212,7.212,0,0,1,190.45,524.5Z" transform="translate(-142.167 -366.665)" fill="#ffcdd3"/>
    <path id="Path_1013" data-name="Path 1013" d="M196.97,516.455a8.088,8.088,0,0,1,.48,2.411c.918.831,1.961.82,3.3.87,1.028.042,2.155.334,2.98-.131A13.3,13.3,0,0,1,205,517.269S195.146,511.336,196.97,516.455Z" transform="translate(-146.585 -366.665)" opacity="0.1"/>
    <circle id="Ellipse_115" data-name="Ellipse 115" cx="5.457" cy="5.457" r="5.457" transform="translate(49.082 142.519)" fill="#ffcdd3"/>
    <path id="Path_1014" data-name="Path 1014" d="M190.45,539.582s13.133,2,10.7,1.1a3.308,3.308,0,0,1-2.432-2.959,7.253,7.253,0,0,0-2.766-1.606,3.973,3.973,0,0,0-2.384-.131,3.279,3.279,0,0,0-.894.373A7.212,7.212,0,0,1,190.45,539.582Z" transform="translate(-142.167 -381.751)" opacity="0.1"/>
    <path id="Path_1015" data-name="Path 1015" d="M166.2,521.48l2.5.682.066-.375a2.226,2.226,0,0,0-2.384-.921Z" transform="translate(-125.143 -371.176)" opacity="0.1"/>
    <path id="Path_1016" data-name="Path 1016" d="M302.71,517.5l2.98,1.606.083-.65a22.576,22.576,0,0,0-3.01-1.454Z" transform="translate(-220.972 -368.508)" opacity="0.1"/>
    <path id="Path_1017" data-name="Path 1017" d="M168.65,652.286c5.066,1,12.308,2.333,13.473,2.026a33.866,33.866,0,0,1,6.678.089c.03-1.335.042-2.217.042-2.217l-19.719-2.825A16.273,16.273,0,0,1,168.65,652.286Z" transform="translate(-126.863 -461.424)" opacity="0.1"/>
    <path id="Path_1018" data-name="Path 1018"
          d="M151.72,558.369s16.706,3.534,18.533,3.055,11.071.471,11.071.471c4.062,2.956,2.479-1.234,2.479-1.234a10.086,10.086,0,0,0,0-3.9,23.846,23.846,0,0,1-.539-3.922s.2-2.748-.28-3.406-.894-5.269-.894-5.269-.337-3.132-.265-3.817-.036-2.62-.036-2.62l-.474-3.23c3.454-.325,14.149-6.339,14.149-6.339.6-2.134,4.676-7.027,4.676-7.027a5.294,5.294,0,0,1,.37-1.225c.3-.721-3.764-2.345-3.764-2.345s-3.221,3.639-3.889,4.622a20.226,20.226,0,0,1-2.953,2.777,2.237,2.237,0,0,0-1.013.092h-.054a8.186,8.186,0,0,0-2.086,1.1,3.993,3.993,0,0,0-2.837.945s-1.869-.346-2.2-.039-1.925-.075-1.925-.075-1.49-3.451-2.566-2.506-5.564.727-5.564.727a6.591,6.591,0,0,0-2.888-1.767,3.948,3.948,0,0,0-2.384-.131,3.1,3.1,0,0,0-.963.42l-2.813,2.551s-.742-1.037-.641-1.264-.894-.447-.894-.447-1.314-.465-1.812-.62-.983.37-1.025.417a5.3,5.3,0,0,0,.3-2.006,2.3,2.3,0,0,1,.611-1.63c-1.451-4-5.2-.84-5.2-.84a7.521,7.521,0,0,0-.161,2.98c.337.843-.465,2.551-.393,3.013s-.229,1.231-.262,2.1a12.927,12.927,0,0,0,.6,3.278c.235.739,2.384,2.479,2.384,2.479a10.423,10.423,0,0,0,.942,4.172c.9,1.556.11,6.705.11,6.705s-1.073,4-2.268,5.236S151.72,558.369,151.72,558.369Z"
          transform="translate(-114.978 -368.902)" fill="#656691"/>
    <path id="Path_1019" data-name="Path 1019" d="M237.692,550.043s.563-1.49,1.025-1.612a10.566,10.566,0,0,0,1.353-.545l-.274-.575s-1.74.408-2.032.894A4.021,4.021,0,0,0,237.692,550.043Z" transform="translate(-175.274 -389.786)" opacity="0.1"/>
    <path id="Path_1020" data-name="Path 1020" d="M269.22,543.818c.074.462,4.136,1.031,4.136,1.031l-1.982-2.149h-.051A8.189,8.189,0,0,0,269.22,543.818Z" transform="translate(-197.462 -386.55)" opacity="0.1"/>
    <circle id="Ellipse_116" data-name="Ellipse 116" cx="0.367" cy="0.367" r="0.367" transform="translate(83.434 151.063)" fill="#575988"/>
    <circle id="Ellipse_117" data-name="Ellipse 117" cx="0.367" cy="0.367" r="0.367" transform="translate(82.936 151.779)" fill="#575988"/>
    <circle id="Ellipse_118" data-name="Ellipse 118" cx="0.367" cy="0.367" r="0.367" transform="translate(82.45 152.437)" fill="#575988"/>
    <circle id="Ellipse_119" data-name="Ellipse 119" cx="0.367" cy="0.367" r="0.367" transform="translate(81.944 153.152)" fill="#575988"/>
    <circle id="Ellipse_120" data-name="Ellipse 120" cx="0.298" cy="0.298" r="0.298" transform="translate(38.816 151.519)" fill="#575988"/>
    <circle id="Ellipse_121" data-name="Ellipse 121" cx="0.298" cy="0.298" r="0.298" transform="translate(38.744 152.193)" fill="#575988"/>
    <circle id="Ellipse_122" data-name="Ellipse 122" cx="0.298" cy="0.298" r="0.298" transform="translate(38.676 152.866)" fill="#575988"/>
    <path id="Path_1021" data-name="Path 1021" d="M192.578,598.15c.045-.051-10.788,12.6-18.518,4.75C174.06,602.9,186.666,605.105,192.578,598.15Z" transform="translate(-130.661 -425.475)" opacity="0.1"/>
    <path id="Path_1022" data-name="Path 1022" d="M238.806,621.679s-6.19-.069-6.9,1.684l-.072,1.851a1.192,1.192,0,0,0,1.15.045c.638-.313,4.446-2.068,5.731-1.1Z" transform="translate(-171.215 -441.992)" opacity="0.1"/>
    <path id="Path_1023" data-name="Path 1023" d="M239.139,621.659s-5.915-.066-6.6,1.606l-.069,1.764a1.132,1.132,0,0,0,1.1.042c.6-.3,4.253-1.97,5.48-1.052Z" transform="translate(-171.664 -441.978)" fill="#656691"/>
    <path id="Path_1024" data-name="Path 1024" d="M230.452,576.2a20.086,20.086,0,0,1-2.554,4.02A16.112,16.112,0,0,1,224,583.7S230.315,577.034,230.452,576.2Z" transform="translate(-165.718 -410.066)" opacity="0.1"/>
    <path id="Path_1025" data-name="Path 1025" d="M244.129,552.36s-1.192,4.414-3.919,5.823Z" transform="translate(-177.098 -393.331)" opacity="0.1"/>
    <path id="Path_1026" data-name="Path 1026" d="M250.039,554.067c.03-.08.781,3.558-3.639,5.385C246.4,559.452,248.268,558.895,250.039,554.067Z" transform="translate(-181.443 -394.528)" opacity="0.1"/>
    <path id="Path_1027" data-name="Path 1027" d="M161.772,540.553a31.048,31.048,0,0,0-2.822,1.955C158.965,542.508,160.47,540.41,161.772,540.553Z" transform="translate(-120.054 -385.038)" opacity="0.1"/>
    <path id="Path_1028" data-name="Path 1028"
          d="M195.887,502.776a1.171,1.171,0,0,1-.456.721,1.124,1.124,0,0,1-.519.092,10.963,10.963,0,0,1-4.911-.653,1.854,1.854,0,0,1-.73-.525,3.006,3.006,0,0,1-.39-1.225,17.736,17.736,0,0,0-.918-2.354,7.748,7.748,0,0,1-.378-4.172,2.792,2.792,0,0,1,.462-1.192c.465-.611,1.278-.834,1.88-1.314s1.007-1.231,1.7-1.582a3.146,3.146,0,0,1,2.062-.1,10.822,10.822,0,0,1,3.785,1.588,1.9,1.9,0,0,0,1.267.486,1.764,1.764,0,0,0,.972-.685,5.066,5.066,0,0,1,.316,2.384,1.027,1.027,0,0,0,0,.358,1.088,1.088,0,0,0,.238.39,1.388,1.388,0,0,1,.2,1.72c-.185.2-.462.3-.641.516-.322.37-.241.924-.253,1.415a.745.745,0,0,1-.137.48.712.712,0,0,1-.679.134,1.854,1.854,0,0,0-.715-.1,1.192,1.192,0,0,0-.641.453A8.448,8.448,0,0,0,195.887,502.776Z"
          transform="translate(-140.064 -349.799)" fill="#2d293d"/>
    <g id="Group_493" data-name="Group 493" transform="translate(48.993 141.974)" opacity="0.1">
      <path id="Path_1029" data-name="Path 1029"
            d="M192.881,513.37a1.83,1.83,0,0,0,.73.528,11,11,0,0,0,4.911.653,1.087,1.087,0,0,0,.519-.1,1.156,1.156,0,0,0,.456-.718,8.473,8.473,0,0,1,1.514-3.174,1.192,1.192,0,0,1,.641-.456,1.913,1.913,0,0,1,.715.1.7.7,0,0,0,.679-.134.733.733,0,0,0,.137-.477,2.11,2.11,0,0,1,.253-1.418c.179-.206.456-.3.641-.513a1.079,1.079,0,0,0,.146-1.091,1.248,1.248,0,0,1,.021,1.463c-.185.2-.459.3-.641.516-.322.37-.238.924-.25,1.416a.73.73,0,0,1-.14.48.709.709,0,0,1-.679.134,1.839,1.839,0,0,0-.712-.1,1.192,1.192,0,0,0-.644.456,8.553,8.553,0,0,0-1.514,3.171.861.861,0,0,1-.971.817,11.025,11.025,0,0,1-4.914-.656,1.866,1.866,0,0,1-.73-.524,1.431,1.431,0,0,1-.218-.45A.539.539,0,0,0,192.881,513.37Z"
            transform="translate(-192.83 -503.161)"/>
      <path id="Path_1030" data-name="Path 1030" d="M228.834,497.8a.736.736,0,0,1-.155-.3,1.027,1.027,0,0,1,0-.358,5.08,5.08,0,0,0-.179-1.985l.03-.033a5.028,5.028,0,0,1,.319,2.384A1.619,1.619,0,0,0,228.834,497.8Z" transform="translate(-217.87 -495.13)"/>
    </g>
    <path id="Path_1031" data-name="Path 1031" d="M201.1,542.308s-6.854.641-7.42-.408" transform="translate(-144.434 -385.988)" opacity="0.1"/>
    <path id="Path_1032" data-name="Path 1032" d="M163.5,532.091s-3.788-.14-4.673,1.246" transform="translate(-119.97 -379.099)" opacity="0.1"/>
  </g>
</svg>
