<svg xmlns="http://www.w3.org/2000/svg" xmlns:xlink="http://www.w3.org/1999/xlink" width="211.495" height="224.349" viewBox="0 0 211.495 224.349">
  <defs>
    <linearGradient id="linear-gradient" x1="0.5" y1="1" x2="0.5" gradientUnits="objectBoundingBox">
      <stop offset="0" stop-color="gray" stop-opacity="0.251"/>
      <stop offset="0.54" stop-color="gray" stop-opacity="0.122"/>
      <stop offset="1" stop-color="gray" stop-opacity="0.102"/>
    </linearGradient>
    <linearGradient id="linear-gradient-2" x1="3.47" y1="1" x2="3.47" xlink:href="#linear-gradient"/>
  </defs>
  <g id="Group_478" data-name="Group 478" transform="translate(0)">
    <g id="Group_469" data-name="Group 469" transform="translate(18 179.349)">
      <text id="Get_more_done_with_TotalRating_Pro_" data-name="Get more done with
TotalRating Pro!" transform="translate(88 13)" fill="#0288d1" font-size="14" font-family="Rubik-Regular, Rubik">
        <tspan x="-63.609" y="0">Get more done with</tspan>
        <tspan font-size="24">
          <tspan x="-87.852" y="26">TotalRating Pro!</tspan>
        </tspan>
      </text>
    </g>
    <g id="Group_477" data-name="Group 477" transform="translate(0)">
      <path id="Path_666" data-name="Path 666"
            d="M260.856,124.5c-8.8,5.569-20.225,5.206-30.231,2.312s-19.2-8.057-28.946-11.724a102.189,102.189,0,0,0-25.433-5.989c-12.426-1.285-26.3.279-34.961,9.282-9.642,10.027-8.9,28.113,1.526,37.314,5.3,4.681,12.251,6.978,18.307,10.633s11.662,9.725,11.15,16.781c-.477,6.531-6.029,11.543-11.776,14.688-4.44,2.43-9.91,5.083-10.446,10.117-.519,4.871,4.082,8.688,8.474,10.858a52.638,52.638,0,0,0,46.25-.179c5.092-2.566,9.773-5.977,15.113-7.976,14.019-5.25,29.469.035,44.315,1.968a97.727,97.727,0,0,0,37.693-2.48c7.353-1.962,14.733-4.96,19.9-10.548,3.723-4.03,6.039-9.128,8.222-14.161q3.486-8.055,6.7-16.222a37.71,37.71,0,0,0,2.884-10.1c.6-6.337-1.935-12.6-5.387-17.951a53.567,53.567,0,0,0-79.344-12.043"
            transform="translate(-128.186 -98.193)" fill="#0288d1" opacity="0.1"/>
      <ellipse id="Ellipse_71" data-name="Ellipse 71" cx="28.268" cy="5.527" rx="28.268" ry="5.527" transform="translate(0 152.114)" fill="#0288d1" opacity="0.1"/>
      <ellipse id="Ellipse_72" data-name="Ellipse 72" cx="59.255" cy="5.527" rx="59.255" ry="5.527" transform="translate(52.989 140.571)" fill="#0288d1" opacity="0.1"/>
      <path id="Path_667" data-name="Path 667" d="M836.32,435.733s8.307-14.715,20.825-18.951a25.608,25.608,0,0,0,12.968-9.7,43.159,43.159,0,0,0,3.825-6.883" transform="translate(-683.856 -328.986)" fill="none" stroke="#535461" stroke-miterlimit="10" stroke-width="2"/>
      <path id="Path_668" data-name="Path 668" d="M1024.035,363.63c-1.426,1.383-8.065,2.813-8.065,2.813s1.628-6.591,3.055-7.976a3.6,3.6,0,1,1,5.01,5.162Z" transform="translate(-826.094 -295.14)" fill="#0288d1"/>
      <path id="Path_669" data-name="Path 669" d="M1005.109,417.314c-1.947.385-8.3-2.022-8.3-2.022s4.95-4.648,6.9-5.035a3.6,3.6,0,1,1,1.4,7.057Z" transform="translate(-810.924 -336.893)" fill="#0288d1"/>
      <path id="Path_670" data-name="Path 670" d="M947.643,479.934c-1.874-.65-6.143-5.933-6.143-5.933s6.62-1.516,8.5-.866a3.6,3.6,0,0,1-2.353,6.8Z" transform="translate(-767.132 -386.604)" fill="#0288d1"/>
      <path id="Path_671" data-name="Path 671" d="M883.92,515.015c-1.96-.323-7.06-4.809-7.06-4.809s6.27-2.611,8.23-2.291a3.6,3.6,0,0,1-1.17,7.1Z" transform="translate(-715.953 -414.248)" fill="#0288d1"/>
      <path id="Path_672" data-name="Path 672" d="M970.23,396.334c0,1.987,3.592,7.749,3.592,7.749s3.6-5.76,3.6-7.747a3.6,3.6,0,0,0-7.193,0Z" transform="translate(-789.879 -323.079)" fill="#0288d1"/>
      <path id="Path_673" data-name="Path 673" d="M899.649,434.853c.594,1.9,5.748,6.318,5.748,6.318s1.712-6.572,1.118-8.467a3.6,3.6,0,0,0-6.872,2.149Z" transform="translate(-733.861 -352.72)" fill="#0288d1"/>
      <path id="Path_674" data-name="Path 674" d="M837.9,487.929c.271,1.97,4.6,7.2,4.6,7.2s2.8-6.187,2.534-8.157a3.6,3.6,0,1,0-7.13.958Z" transform="translate(-685.086 -395.219)" fill="#0288d1"/>
      <path id="Path_675" data-name="Path 675" d="M1024.035,363.63c-1.426,1.383-8.065,2.813-8.065,2.813s1.628-6.591,3.055-7.976a3.6,3.6,0,1,1,5.01,5.162Z" transform="translate(-826.094 -295.14)" opacity="0.25"/>
      <path id="Path_676" data-name="Path 676" d="M1005.109,417.314c-1.947.385-8.3-2.022-8.3-2.022s4.95-4.648,6.9-5.035a3.6,3.6,0,1,1,1.4,7.057Z" transform="translate(-810.924 -336.893)" opacity="0.25"/>
      <path id="Path_677" data-name="Path 677" d="M947.643,479.934c-1.874-.65-6.143-5.933-6.143-5.933s6.62-1.516,8.5-.866a3.6,3.6,0,0,1-2.353,6.8Z" transform="translate(-767.132 -386.604)" opacity="0.25"/>
      <path id="Path_678" data-name="Path 678" d="M883.92,515.015c-1.96-.323-7.06-4.809-7.06-4.809s6.27-2.611,8.23-2.291a3.6,3.6,0,0,1-1.17,7.1Z" transform="translate(-715.953 -414.248)" opacity="0.25"/>
      <path id="Path_679" data-name="Path 679" d="M970.23,396.334c0,1.987,3.592,7.749,3.592,7.749s3.6-5.76,3.6-7.747a3.6,3.6,0,0,0-7.193,0Z" transform="translate(-789.879 -323.079)" opacity="0.25"/>
      <path id="Path_680" data-name="Path 680" d="M899.649,434.853c.594,1.9,5.748,6.318,5.748,6.318s1.712-6.572,1.118-8.467a3.6,3.6,0,0,0-6.872,2.149Z" transform="translate(-733.861 -352.72)" opacity="0.25"/>
      <path id="Path_681" data-name="Path 681" d="M837.9,487.929c.271,1.97,4.6,7.2,4.6,7.2s2.8-6.187,2.534-8.157a3.6,3.6,0,1,0-7.13.958Z" transform="translate(-685.086 -395.219)" opacity="0.25"/>
      <path id="Path_682" data-name="Path 682" d="M838.61,387.958s1.633-16.818,11.349-25.762a25.489,25.489,0,0,0,7.913-14.123,43.089,43.089,0,0,0,.71-7.843" transform="translate(-685.669 -281.504)" fill="none" stroke="#535461" stroke-miterlimit="10" stroke-width="2"/>
      <path id="Path_683" data-name="Path 683" d="M937.517,294.7c-.741,1.843-6.231,5.831-6.231,5.831s-1.183-6.687-.439-8.538a3.6,3.6,0,0,1,6.664,2.688Z" transform="translate(-758.503 -241.648)" fill="#0288d1"/>
      <path id="Path_684" data-name="Path 684" d="M938.585,347.8c-1.624,1.143-8.4,1.516-8.4,1.516s2.641-6.247,4.267-7.4a3.6,3.6,0,1,1,4.138,5.883Z" transform="translate(-758.169 -282.323)" fill="#0288d1"/>
      <path id="Path_685" data-name="Path 685" d="M905.132,428.639c-1.978.167-8.022-2.934-8.022-2.934s5.439-4.067,7.42-4.234a3.6,3.6,0,0,1,.6,7.168Z" transform="translate(-731.986 -345.817)" fill="#0288d1"/>
      <path id="Path_686" data-name="Path 686" d="M863.053,486.083c-1.922.5-8.4-1.537-8.4-1.537s4.673-4.929,6.6-5.427a3.6,3.6,0,0,1,1.806,6.964Z" transform="translate(-698.369 -391.378)" fill="#0288d1"/>
      <path id="Path_687" data-name="Path 687" d="M894.673,348.875c.8,1.816,6.424,5.623,6.424,5.623s.958-6.722.154-8.538a3.6,3.6,0,1,0-6.578,2.915Z" transform="translate(-729.812 -284.346)" fill="#0288d1"/>
      <path id="Path_688" data-name="Path 688" d="M845.781,412.724c1.312,1.491,7.816,3.447,7.816,3.447s-1.1-6.7-2.409-8.195a3.6,3.6,0,0,0-5.415,4.748Z" transform="translate(-690.633 -334.171)" fill="#0288d1"/>
      <path id="Path_689" data-name="Path 689" d="M810.836,486.274c1.041,1.693,7.12,4.719,7.12,4.719s.05-6.791-.989-8.484a3.6,3.6,0,1,0-6.131,3.765Z" transform="translate(-663.257 -392.795)" fill="#0288d1"/>
      <path id="Path_690" data-name="Path 690" d="M281.84,0V146.91H387.5V0Z" transform="translate(-223.147)" fill="url(#linear-gradient)"/>
      <rect id="Rectangle_187" data-name="Rectangle 187" width="103.811" height="5.6" transform="translate(59.619 1.289)" fill="#f6f7f9"/>
      <g id="Group_470" data-name="Group 470" transform="translate(59.619 1.289)" opacity="0.2">
        <rect id="Rectangle_188" data-name="Rectangle 188" width="103.811" height="5.6" fill="#0288d1"/>
      </g>
      <rect id="Rectangle_189" data-name="Rectangle 189" width="103.811" height="138.732" transform="translate(59.619 6.889)" fill="#fff"/>
      <circle id="Ellipse_73" data-name="Ellipse 73" cx="0.95" cy="0.95" r="0.95" transform="translate(61.4 3.138)" fill="#f6f7f9"/>
      <circle id="Ellipse_74" data-name="Ellipse 74" cx="0.95" cy="0.95" r="0.95" transform="translate(63.974 3.138)" fill="#f6f7f9"/>
      <circle id="Ellipse_75" data-name="Ellipse 75" cx="0.95" cy="0.95" r="0.95" transform="translate(66.548 3.138)" fill="#f6f7f9"/>
      <g id="Group_471" data-name="Group 471" transform="translate(78.147 15.442)" opacity="0.2">
        <rect id="Rectangle_190" data-name="Rectangle 190" width="66.754" height="2.614" fill="#0288d1"/>
      </g>
      <rect id="Rectangle_191" data-name="Rectangle 191" width="8.869" height="2.614" transform="translate(136.031 15.442)" fill="#0288d1"/>
      <g id="Group_472" data-name="Group 472" transform="translate(69.515 68.851)" opacity="0.2">
        <rect id="Rectangle_192" data-name="Rectangle 192" width="84.015" height="30.09" transform="translate(0.002)" fill="#0288d1" opacity="0.2"/>
        <path id="Path_691" data-name="Path 691"
              d="M522.017,388.86h-2.5v.208h2.5Zm-5,0h-2.5v.208h2.5Zm-5,0h-2.5v.208h2.5Zm-5,0h-2.5v.208h2.5Zm-5,0h-2.5v.208h2.5Zm-5,0h-2.5v.208h2.5Zm-5,0h-2.5v.208h2.5Zm-5,0h-2.5v.208h2.5Zm-5,0h-2.5v.208h2.5Zm-5,0h-2.5v.208h2.5Zm-5,0h-2.5v.208h2.5Zm-5,0h-2.5v.208h2.5Zm-5,0h-2.5v.208h2.5Zm-5,0h-2.5v.208h2.5Zm-5,0h-2.5v.208h2.5Zm-5,0h-2.5v.208h2.5Zm-5,0h-2.5v.208h2.5Zm-3.842.95H438v2.5h.208Zm0,5H438v2.5h.208Zm0,5H438v2.5h.208Zm0,5H438v2.5h.208Zm0,5H438v2.5h.208Zm0,5H438v2.5h.208Zm3.136,3.942h-2.5v.208h2.5Zm5,0h-2.5v.208h2.5Zm5,0h-2.5v.208h2.5Zm5,0h-2.5v.208h2.5Zm5,0h-2.5v.208h2.5Zm5,0h-2.5v.208h2.5Zm5,0h-2.5v.208h2.5Zm5,0h-2.5v.208h2.5Zm5,0h-2.5v.208h2.5Zm5,0h-2.5v.208h2.5Zm5,0h-2.5v.208h2.5Zm5,0h-2.5v.208h2.5Zm5,0h-2.5v.208h2.5Zm5,0h-2.5v.208h2.5Zm5,0h-2.5v.208h2.5Zm5,0h-2.5v.208h2.5Zm5,0h-2.5v.208h2.5Zm.7-4.086h-.208v2.5h.208Zm0-5h-.208v2.5h.208Zm0-5h-.208v2.5h.208Zm0-5h-.208v2.5h.208Zm0-5h-.208v2.5h.208Zm0-5h-.208v2.5h.208Z"
              transform="translate(-438 -388.858)" fill="#0288d1"/>
      </g>
      <path id="Path_692" data-name="Path 692"
            d="M117.623,350.162s.887,2.255.569,2.809a3.971,3.971,0,0,0,2.309,2.809,21.342,21.342,0,0,1,4.581,3.878A2.916,2.916,0,0,0,127,360.983c.021.262.035.416.035.416l.112.048c-.025.092-.05.187-.075.285-.058.227-.117.469-.171.718-.356,1.622-.571,3.634.148,4.765a3.936,3.936,0,0,1,.262.477,7.841,7.841,0,0,1,.306,4.64s.85,5.856,1.22,6.806a3.43,3.43,0,0,1-.144,2.1,2.345,2.345,0,0,0-.121.729v2.082a6.454,6.454,0,0,0-.208,2.216c.208.475-.371,1.8-.371,1.8s-1.381,5.75-.8,6.7a7.4,7.4,0,0,1,.531,3.059s1.114,8.23,1.541,8.538a5.07,5.07,0,0,1,.9,1.056s-.758,1.864-.3,2.632a.527.527,0,0,0,.037.056,11.154,11.154,0,0,0-.373,1.122c-.033.129-.067.294-.1.475a6.039,6.039,0,0,0-.081,1.058l-.033.029.035.031a1.752,1.752,0,0,0,.069.464c.158.475,1.354.475,1.354.475a25.508,25.508,0,0,1,3.092,1.083,2.116,2.116,0,0,0,1.606.223c2.191.5,5-.369,5.854-.539s1.183-1.266.131-1.479a2.241,2.241,0,0,1-.391-.119,3.2,3.2,0,0,1-1.318-1.052,26.672,26.672,0,0,0-2.237-1.914,6.531,6.531,0,0,1-1.4-1.41,1.458,1.458,0,0,0-.791-.391.85.85,0,0,0-.177-1.06.86.86,0,0,0-.244-1.068l-.394-.3.092-.106a.858.858,0,0,0,.079-1.01,3.667,3.667,0,0,1-.381-1.678,6.13,6.13,0,0,0-.637-2.849l.319-9.392a13.234,13.234,0,0,1,0-1.529c.052-.581,1.041-.208,1.193-.356s.185-.91.61-1.122a1.187,1.187,0,0,0,.385-.65,3.767,3.767,0,0,0,.108-1.833,1.077,1.077,0,0,1,.2-.833c.479-.625.319-2.795.319-2.795l.735-4.523c1.166,3.838,2.651,8.461,3.142,8.8a1.511,1.511,0,0,1,.741,1.37c-.689.845-.417,4.486-.417,4.486s0,10.075.5,10.762a25.778,25.778,0,0,1,1.458,2.795s-2.832,2.5-.625,3.776l.094,1.066a.329.329,0,0,0-.035.046,2.064,2.064,0,0,0-.417.873l-.015.017h0c-.04.337.108.669.731.808a55.7,55.7,0,0,0,6.691.3l2.915.46s5,.475,5.56-1.068-.437-1.458-.437-1.458h-.04l-2.082-.167a23.57,23.57,0,0,1-3.611-1.716,20.782,20.782,0,0,1-2.162-1.926.844.844,0,0,0-.55.1l-.09-.09-.144-.144.548-.833c.548-.95-1.6-2.745-1.6-2.745s.575-2.216.362-2.32a7.985,7.985,0,0,1-.352-2.116s.523-7.289.31-7.965a1.069,1.069,0,0,1,.252-.908,2.258,2.258,0,0,0,.416-1.414,1.667,1.667,0,0,1,.348-1.212c.637-.687,0-3.64,0-3.64l-.529-3.9v-6.2a9.817,9.817,0,0,0-.652-3.492,9.946,9.946,0,0,1-.537-2.405l.177.052a.737.737,0,0,1-.187-.154c-.01-.1-.023-.208-.031-.3a11.594,11.594,0,0,0-1.93-4.969,21.934,21.934,0,0,1,.019-3.38,4.661,4.661,0,0,0,.04-3.482s-.833-9.734-1.354-11.079-.756-9.694.479-9.615,9.2-3.957,9.2-3.957-.2-.317,2.43-1.385,6.456-4.392,6.456-4.392l5.3-6.331a.133.133,0,0,1-.058,0l.108-.035a4.481,4.481,0,0,0,2.778-2.387c.916-2.012-.918-4.733-2.12-5.956L167.451,309c-.306.252-.194,1.362-.693,2.551a27.242,27.242,0,0,0-1.041,3.249l-.054.208-.05-.092-2.784,2.205-2.628,2.137s-5.814,2.809-6.531,3.521-.956.514-1.591.673-.718.594-.916.554-.558.554-.833.475-.875.237-1.274.317-3.228,1.279-3.228,1.279c-1.753-.871-6.491-.514-6.491-.514s-1.554-.91-1.991,0a1.5,1.5,0,0,1-1.354.87l-1.889-.8a.538.538,0,0,1,.015-.152v-.031c.015-.119.033-.231.052-.339a6.275,6.275,0,0,0,2.168-10.229l-.165-.158a2.755,2.755,0,0,0,.544-.337.289.289,0,0,0,.117-.148.164.164,0,0,0-.017-.125.377.377,0,0,0-.208-.231c-.575-.31-1.21-.208-1.708-.706a1.116,1.116,0,0,1-.26-.4.781.781,0,0,1,0-.5c.14-.371.589-.625.562-1.025h-.019v-.069a3.541,3.541,0,0,1-1.487.254l.094-.417h.035l.05-.221-.035.01.015-.071-1.4.375a.352.352,0,0,1-.314-.019.527.527,0,0,1-.108-.219.683.683,0,0,0-.816-.3,3.4,3.4,0,0,0-.833.456,7.605,7.605,0,0,1-3.065.758A4.8,4.8,0,0,0,124.4,312.9c-.983,1.012-.97,2.605-1.585,3.873a3.425,3.425,0,0,0-.281.639,2.5,2.5,0,0,0,.017,1.01,7.415,7.415,0,0,0,.833,2.822l-.056-.067a3.769,3.769,0,0,0,.208.325c.373.525.9.952,1.3,1.458-.025-.048-.056-.092-.083-.14a2.842,2.842,0,0,1,.521.864c.137.391.167.833.331,1.2h0a1.3,1.3,0,0,0,.237.4,1.2,1.2,0,0,0,1.008.346,8.655,8.655,0,0,1-.625,1.3l-.031.054a.991.991,0,0,0-.312.035,10.47,10.47,0,0,0-2.045,1.445l-2.826,2.5a9.26,9.26,0,0,0-3.3,8.507v2.624a11.076,11.076,0,0,0,0,5.623ZM126.182,326.995ZM123.846,350.2s1.474-1.187.956-1.9a2.556,2.556,0,0,1-.248-1.25l1.92,4.265s1.156,1.86.558,2.691v.015l-2.291-2.666S124.643,350.2,123.846,350.2Z"
            transform="translate(-114.595 -256.778)" fill="url(#linear-gradient-2)"/>
      <path id="Path_693" data-name="Path 693" d="M347.23,318.738l1.249,2.439a4.92,4.92,0,0,0,1.168-.244,4.434,4.434,0,0,0,2.743-2.372c1.12-2.478-1.926-6.039-2.791-6.506s-.473.943-1.12,2.5a26.705,26.705,0,0,0-1.018,3.228C347.32,318.349,347.23,318.738,347.23,318.738Z" transform="translate(-296.617 -259.125)" fill="#cc818c"/>
      <path id="Path_694" data-name="Path 694" d="M155.69,375.661l2.005,2.988s9.475,4.521,7.668-.785a11.9,11.9,0,0,1-.75-5.235.181.181,0,0,0,0-.033,4.209,4.209,0,0,1,.746-2.124s-9.238-4.727-7.863-1.493a4.465,4.465,0,0,1,.342,2.128,7.27,7.27,0,0,1-1,2.951A9.717,9.717,0,0,1,155.69,375.661Z" transform="translate(-144.965 -303.37)"
            fill="#cc818c"/>
      <path id="Path_695" data-name="Path 695"
            d="M164.155,583.221s-1.364,5.712-.787,6.664a7.382,7.382,0,0,1,.523,3.04s1.1,8.178,1.522,8.492a5.074,5.074,0,0,1,.891,1.041s-.75,1.851-.3,2.616a.625.625,0,0,0,.3.267c.7.3,3.3-1.018,4.775-1.824a.845.845,0,0,0,.152-1.372.862.862,0,0,0-.242-1.062l-.387-.3.09-.106a.862.862,0,0,0,.079-1,3.623,3.623,0,0,1-.379-1.666,6.124,6.124,0,0,0-.625-2.83l.31-9.34a13.618,13.618,0,0,1,0-1.52c.052-.577,1.023-.2,1.181-.354s.181-.9.6-1.114a1.192,1.192,0,0,0,.381-.646,3.792,3.792,0,0,0,.106-1.82,1.072,1.072,0,0,1,.194-.833c.471-.625.314-2.778.314-2.778l.725-4.494c1.152,3.813,2.618,8.407,3.1,8.746a1.525,1.525,0,0,1,.733,1.362c-.681.833-.417,4.459-.417,4.459s0,10.01.491,10.693a26.8,26.8,0,0,1,1.458,2.776s-2.809,2.5-.6,3.761l.023.015c2.255,1.25,6.922-2.253,6.922-2.253l-.489-.487-.142-.144.541-.833c.541-.943-1.581-2.726-1.581-2.726s.566-2.2.358-2.307a8.052,8.052,0,0,1-.358-2.1s.514-7.235.306-7.913a1.069,1.069,0,0,1,.248-.9,2.243,2.243,0,0,0,.4-1.406,1.661,1.661,0,0,1,.346-1.2c.625-.683,0-3.617,0-3.617l-.525-3.88v-6.172a9.813,9.813,0,0,0-.625-3.469,10.479,10.479,0,0,1-.594-2.79,11.82,11.82,0,0,0-1.958-5.019c-.381-.581-.664-.931-.664-.931l-16.772-.656s-.275.746-.539,1.787c-.058.225-.117.464-.171.714-.35,1.612-.562,3.609.148,4.733a4.048,4.048,0,0,1,.258.475,7.83,7.83,0,0,1,.3,4.611s.833,5.818,1.2,6.762a3.414,3.414,0,0,1-.142,2.082,2.329,2.329,0,0,0-.119.725v2.064a6.375,6.375,0,0,0-.208,2.2C164.732,581.9,164.155,583.221,164.155,583.221Z"
            transform="translate(-150.559 -451.771)" fill="#444053"/>
      <path id="Path_696" data-name="Path 696" d="M163.979,572.742a4.332,4.332,0,0,1,.254.464l.945-.054c-.092-.485.552-5.046.552-5.046l-1.9-.106C163.48,569.62,163.267,571.617,163.979,572.742Z" transform="translate(-151.153 -461.842)" opacity="0.1"/>
      <path id="Path_697" data-name="Path 697" d="M163.218,572a4.05,4.05,0,0,1,.258.475l.945-.054c-.092-.485.55-5.046.55-5.046l-1.9-.108C162.725,568.88,162.512,570.881,163.218,572Z" transform="translate(-150.555 -461.264)" fill="#444053"/>
      <path id="Path_698" data-name="Path 698" d="M163.218,572a4.05,4.05,0,0,1,.258.475l.945-.054c-.092-.485.55-5.046.55-5.046l-1.9-.108C162.725,568.88,162.512,570.881,163.218,572Z" transform="translate(-150.555 -461.264)" opacity="0.05"/>
      <path id="Path_699" data-name="Path 699" d="M178.36,786.629a.624.624,0,0,0,.3.266c.7.3,3.3-1.018,4.775-1.824a.833.833,0,0,0,.391-.466c-.833-.154-1.393.783-1.393.783a1.25,1.25,0,0,0-1.728.417c-.723,1.062-2.268.614-2.268.614S178.406,786.5,178.36,786.629Z" transform="translate(-162.914 -633.326)" opacity="0.1"/>
      <path id="Path_700" data-name="Path 700"
            d="M176,790.468c.158.471,1.337.471,1.337.471a24.9,24.9,0,0,1,3.055,1.077,2.068,2.068,0,0,0,1.585.221c2.162.5,4.942-.367,5.779-.535s1.166-1.25.131-1.458a2.138,2.138,0,0,1-.387-.119,3.148,3.148,0,0,1-1.289-1.041A26.613,26.613,0,0,0,184,787.171a6.423,6.423,0,0,1-1.385-1.4c-1.231-1.087-2.11.417-2.11.417a1.249,1.249,0,0,0-1.728.417c-.723,1.06-2.268.612-2.268.612s-.277.71-.406,1.22c-.033.129-.067.292-.1.473A4.091,4.091,0,0,0,176,790.468Z"
            transform="translate(-160.989 -633.949)" fill="#ff748f"/>
      <circle id="Ellipse_76" data-name="Ellipse 76" cx="0.144" cy="0.144" r="0.144" transform="translate(18.472 152.914)" fill="#575988"/>
      <circle id="Ellipse_77" data-name="Ellipse 77" cx="0.144" cy="0.144" r="0.144" transform="translate(19.702 154.068)" fill="#575988"/>
      <circle id="Ellipse_78" data-name="Ellipse 78" cx="0.144" cy="0.144" r="0.144" transform="translate(20.954 155.103)" fill="#575988"/>
      <circle id="Ellipse_79" data-name="Ellipse 79" cx="0.144" cy="0.144" r="0.144" transform="translate(20.306 154.641)" fill="#575988"/>
      <circle id="Ellipse_80" data-name="Ellipse 80" cx="0.144" cy="0.144" r="0.144" transform="translate(19.061 153.453)" fill="#575988"/>
      <path id="Path_701" data-name="Path 701"
            d="M176,803.892c.158.471,1.337.471,1.337.471a24.907,24.907,0,0,1,3.055,1.077,2.068,2.068,0,0,0,1.585.221c2.162.5,4.942-.367,5.779-.535s1.166-1.249.131-1.458a2.147,2.147,0,0,1-.387-.119,10.13,10.13,0,0,1-2.836.537c-2.137.092-3.828,0-3.828,0l-2.162-.7a3.649,3.649,0,0,0-1.337-.483,3.468,3.468,0,0,1-1.327-.577A4.1,4.1,0,0,0,176,803.892Z"
            transform="translate(-160.989 -647.373)" fill="#dce6f2"/>
      <path id="Path_702" data-name="Path 702"
            d="M181.287,808.906a1.81,1.81,0,0,0,.358-.035l-.031-.154a2.29,2.29,0,0,1-1.3-.181c-.194-.075-.385-.167-.573-.254-.221-.1-.45-.208-.683-.3l-.208-.075c-.117-.04-.237-.079-.35-.127-.067-.027-.129-.058-.194-.089a2.156,2.156,0,0,0-.485-.183,2.3,2.3,0,0,0-.264-.035,2.224,2.224,0,0,1-.239-.029,2.12,2.12,0,0,1-.454-.169,2.283,2.283,0,0,0-.487-.181l-.117-.019a.553.553,0,0,1-.337-.125l-.117.106a.686.686,0,0,0,.429.173l.11.019a2.361,2.361,0,0,1,.454.169,2.169,2.169,0,0,0,.487.181,2.266,2.266,0,0,0,.258.031,2.193,2.193,0,0,1,.246.033,1.96,1.96,0,0,1,.45.173c.065.031.131.062.2.09.119.052.244.094.362.133l.208.073c.227.083.452.19.671.292s.383.181.583.258A2.792,2.792,0,0,0,181.287,808.906Z"
            transform="translate(-160.895 -651.031)" fill="#575988" opacity="0.5"/>
      <path id="Path_703" data-name="Path 703" d="M178.358,684.548a3.851,3.851,0,0,0-2.949-1.56,11,11,0,0,1-2.659-.208,6.657,6.657,0,0,0,2.018.8A35.361,35.361,0,0,1,178.358,684.548Z" transform="translate(-158.473 -552.719)" opacity="0.1"/>
      <path id="Path_704" data-name="Path 704" d="M186.826,690.007a4.394,4.394,0,0,0-1.545-.708c-.562-.027-1.041-.079-1.041-.079a3.028,3.028,0,0,0,.864.417C185.569,689.778,186.826,690.007,186.826,690.007Z" transform="translate(-167.57 -557.818)" opacity="0.1"/>
      <path id="Path_705" data-name="Path 705" d="M189.973,695.3s-1.481.117-1.493.51" transform="translate(-170.927 -562.632)" opacity="0.1"/>
      <path id="Path_706" data-name="Path 706" d="M252.472,578.622a5.851,5.851,0,0,1-1.493-1.926,1.343,1.343,0,0,0-.577-.845s-.852.341-.092,1.387A4.206,4.206,0,0,0,252.472,578.622Z" transform="translate(-219.631 -468.057)" opacity="0.1"/>
      <path id="Path_707" data-name="Path 707" d="M163.85,368.977c.3.712.566.766.51,1.458a5.214,5.214,0,0,0,1.2.943c.937.556,1.958,1.645,3.124,1.645a6.2,6.2,0,0,0,2.291-.431,4.209,4.209,0,0,1,.746-2.124S162.476,365.743,163.85,368.977Z" transform="translate(-151.316 -303.369)" opacity="0.1"/>
      <path id="Path_708" data-name="Path 708" d="M157.58,337.447a6.247,6.247,0,1,0,6.247-6.247A6.247,6.247,0,0,0,157.58,337.447Z" transform="translate(-146.462 -274.355)" fill="#cc818c"/>
      <path id="Path_709" data-name="Path 709" d="M155.69,393.842l2.005,2.988s9.475,4.521,7.668-.785a11.9,11.9,0,0,1-.75-5.235H164.6a4.955,4.955,0,0,0-.189,1.2c-.029.816-.05,1.847-2.082,2.189a5.653,5.653,0,0,1-5.5-1.958A9.717,9.717,0,0,1,155.69,393.842Z" transform="translate(-144.965 -321.551)" opacity="0.1"/>
      <path id="Path_710" data-name="Path 710" d="M347.23,340.674l1.249,2.439a4.923,4.923,0,0,0,1.168-.244l.108-.131c-.51.2-2.241-3.068-2.241-3.068l-.054.044C347.32,340.284,347.23,340.674,347.23,340.674Z" transform="translate(-296.617 -281.061)" opacity="0.1"/>
      <path id="Path_711" data-name="Path 711" d="M165.13,557.057c4.046,1.755,18.047.258,18.047.258a1.779,1.779,0,0,1-.071-.458c-.381-.581-.664-.931-.664-.931l-16.772-.656S165.394,556.016,165.13,557.057Z" transform="translate(-152.439 -451.763)" opacity="0.1"/>
      <path id="Path_712" data-name="Path 712"
            d="M136.621,351.071l1.874.8a1.483,1.483,0,0,0,1.337-.866c.433-.9,1.966,0,1.966,0s4.679-.354,6.408.512c0,0,2.793-1.181,3.186-1.249s.983-.394,1.25-.314.625-.512.833-.473.275-.394.906-.55.864.04,1.572-.668,6.456-3.5,6.456-3.5l2.578-2.132,2.751-2.2s1.731,3.263,2.243,3.065l-5.229,6.291s-3.776,3.3-6.37,4.373-2.4,1.374-2.4,1.374-7.863,4.011-9.084,3.932-.983,8.217-.471,9.554,1.341,11,1.341,11a4.651,4.651,0,0,1-.04,3.461,19.7,19.7,0,0,0,0,3.419s-14.088,1.508-18.086-.275c0,0-.589-6.526,0-7.351s-.55-2.674-.55-2.674l-2.516-5.623-6.133-6.172a9.233,9.233,0,0,1,3.263-8.453l2.786-2.476a10.358,10.358,0,0,1,2.018-1.437c.456-.085.289,0,.289,0a5.632,5.632,0,0,0,5.556,2.026c2.024-.342,2.047-1.374,2.082-2.189a5.053,5.053,0,0,1,.179-1.206Z"
            transform="translate(-116.989 -281.663)" fill="#67647e"/>
      <path id="Path_713" data-name="Path 713" d="M161.55,493.16s8.649.354,10.379,3.067a8.527,8.527,0,0,0-4.246-.748C165.677,495.794,161.55,493.16,161.55,493.16Z" transform="translate(-149.605 -402.587)" opacity="0.1"/>
      <path id="Path_714" data-name="Path 714" d="M185.291,531.186s-4.088.275-4.954-.589-.866-1.377-.866-1.377Z" transform="translate(-163.793 -431.137)" opacity="0.1"/>
      <path id="Path_715" data-name="Path 715" d="M154.738,453.14s3.461,4.088-.748,5.858Z" transform="translate(-143.619 -370.901)" opacity="0.1"/>
      <path id="Path_716" data-name="Path 716" d="M248.767,415.19s-1.249,2.568-1.887,2.738Z" transform="translate(-217.165 -340.854)" opacity="0.1"/>
      <path id="Path_717" data-name="Path 717" d="M262.134,409.9a47.055,47.055,0,0,1-3.734,3.107S261.663,409.9,262.134,409.9Z" transform="translate(-226.286 -336.666)" opacity="0.1"/>
      <path id="Path_718" data-name="Path 718" d="M216.11,396.88s3.026,4.521,1.06,7.272A9.76,9.76,0,0,0,216.11,396.88Z" transform="translate(-192.803 -326.357)" opacity="0.1"/>
      <path id="Path_719" data-name="Path 719" d="M179.47,551.756l.925.87.129.121,1.072,1.012c.077.058.152.117.227.169,4.363,3.124,5.237-1.622,5.237-1.622s1.926,1.25,2.2.235-4.475-2.476-5.19-2.4a.827.827,0,0,1-.189,0,3.082,3.082,0,0,1-.977-.346l-.208-.115c-.4-.223-.706-.444-.706-.444Z" transform="translate(-163.793 -446.988)"
            fill="#cc818c"/>
      <path id="Path_720" data-name="Path 720"
            d="M156.83,337.4a6.247,6.247,0,0,0,3.053,5.373,3.57,3.57,0,0,0,.229-.454c.225-.525.36-1.083.587-1.606a4.958,4.958,0,0,1,1.052-1.531.654.654,0,0,1,.277-.192.76.76,0,0,1,.575.158,2.624,2.624,0,0,0,.87.383.937.937,0,0,0,.875-.264,1.319,1.319,0,0,0,.14-1.091,13.3,13.3,0,0,1-.417-2.441,2.393,2.393,0,0,1,1.041-2.128,8.723,8.723,0,0,1,2.126-.464,2.536,2.536,0,0,0,.321-.11,6.247,6.247,0,0,0-10.727,4.373Z"
            transform="translate(-145.868 -274.308)" opacity="0.1"/>
      <path id="Path_721" data-name="Path 721"
            d="M157.474,322.835c.115.06.237.169.208.294a.281.281,0,0,1-.115.146,2.694,2.694,0,0,1-.989.508,8.844,8.844,0,0,0-2.128.462,2.421,2.421,0,0,0-1.041,2.128,12.924,12.924,0,0,0,.416,2.441,1.311,1.311,0,0,1-.137,1.091.933.933,0,0,1-.875.264,2.6,2.6,0,0,1-.873-.381.758.758,0,0,0-.573-.16.715.715,0,0,0-.279.192,5,5,0,0,0-1.041,1.533c-.229.521-.364,1.079-.587,1.6a2.6,2.6,0,0,1-1.052,1.308,1.319,1.319,0,0,1-1.574-.167c-.383-.421-.356-1.012-.537-1.526-.312-.891-1.185-1.458-1.731-2.22a6.9,6.9,0,0,1-.945-3,2.471,2.471,0,0,1-.017-1,3.666,3.666,0,0,1,.277-.637c.606-1.249.6-2.841,1.566-3.846a4.664,4.664,0,0,1,2.874-1.112,7.448,7.448,0,0,0,3.026-.752,3.239,3.239,0,0,1,.82-.454.657.657,0,0,1,.8.3.539.539,0,0,0,.108.219.339.339,0,0,0,.308.017l1.385-.371-.158.7a3.442,3.442,0,0,0,1.458-.252c.027.394-.417.65-.556,1.018a.943.943,0,0,0,.271.958C156.281,322.622,156.907,322.53,157.474,322.835Z"
            transform="translate(-135.362 -265.102)" fill="#585268"/>
      <path id="Path_722" data-name="Path 722" d="M237.31,778.561l.056.625.023.015c2.255,1.25,6.922-2.253,6.922-2.253l-.489-.487a.864.864,0,0,0-.208.658l-.952.052-1.141,1.231a21.443,21.443,0,0,1-3.917.158Z" transform="translate(-209.588 -626.89)" opacity="0.1"/>
      <path id="Path_723" data-name="Path 723"
            d="M236.434,781.939a54.66,54.66,0,0,0,6.608.3l2.882.458s4.94.471,5.489-1.062-.433-1.441-.433-1.441h-.037l-2.057-.167a23.175,23.175,0,0,1-3.565-1.705,20.786,20.786,0,0,1-2.137-1.914s-.858-.167-.843.833l-.952.052-1.141,1.233a21.487,21.487,0,0,1-3.917.156h-.289l.133,1.52-.037.046C235.945,780.482,235.124,781.642,236.434,781.939Z"
            transform="translate(-208.318 -626.843)" fill="#ff748f"/>
      <circle id="Ellipse_81" data-name="Ellipse 81" cx="0.144" cy="0.144" r="0.144" transform="translate(33.293 151.129)" fill="#575988"/>
      <circle id="Ellipse_82" data-name="Ellipse 82" cx="0.144" cy="0.144" r="0.144" transform="translate(36.989 152.733)" fill="#575988"/>
      <circle id="Ellipse_83" data-name="Ellipse 83" cx="0.144" cy="0.144" r="0.144" transform="translate(38.892 153.31)" fill="#575988"/>
      <circle id="Ellipse_84" data-name="Ellipse 84" cx="0.144" cy="0.144" r="0.144" transform="translate(36.019 152.427)" fill="#575988"/>
      <circle id="Ellipse_85" data-name="Ellipse 85" cx="0.144" cy="0.144" r="0.144" transform="translate(37.945 153.022)" fill="#575988"/>
      <circle id="Ellipse_86" data-name="Ellipse 86" cx="0.144" cy="0.144" r="0.144" transform="translate(35.038 151.971)" fill="#575988"/>
      <circle id="Ellipse_87" data-name="Ellipse 87" cx="0.144" cy="0.144" r="0.144" transform="translate(34.069 151.55)" fill="#575988"/>
      <path id="Path_724" data-name="Path 724" d="M236.434,796.369a54.642,54.642,0,0,0,6.608.3l2.882.458s4.94.471,5.489-1.062-.433-1.441-.433-1.441h-.037a2.656,2.656,0,0,1-2.189.893l-3.553.144-3.682-.262s-3.447-.1-4.009-.221a8.263,8.263,0,0,1-1.374-.506C235.945,794.911,235.124,796.071,236.434,796.369Z"
            transform="translate(-208.318 -641.273)" fill="#dce6f2"/>
      <path id="Path_725" data-name="Path 725"
            d="M245.64,799.909a2.261,2.261,0,0,0,.583-.073l-.042-.152a2.859,2.859,0,0,1-1.458-.067c-.175-.044-.348-.1-.519-.148a8.091,8.091,0,0,0-.96-.242,7.986,7.986,0,0,0-1.591-.046h-.112a24.528,24.528,0,0,1-4.721-.208,1.788,1.788,0,0,1-1.008-.4l-.112.108a1.9,1.9,0,0,0,1.1.45,24.365,24.365,0,0,0,4.752.208h.112a7.811,7.811,0,0,1,1.56.046,7.631,7.631,0,0,1,.939.237c.175.052.35.1.525.148A3.857,3.857,0,0,0,245.64,799.909Z"
            transform="translate(-208.313 -644.396)" fill="#575988" opacity="0.5"/>
      <path id="Path_726" data-name="Path 726" d="M179.47,551.748l.925.87,2.291-2.945c-.4-.223-.706-.444-.706-.444Z" transform="translate(-163.793 -446.98)" opacity="0.1"/>
      <path id="Path_727" data-name="Path 727"
            d="M121.17,445.4l-1.808,2.516v2.634a10.925,10.925,0,0,0,0,5.583l-.092,2.437s.877,2.241.562,2.793a3.949,3.949,0,0,0,2.28,2.79,21.092,21.092,0,0,1,4.521,3.863,3.082,3.082,0,0,0,3.342,1.337l2.32.983,2.674-3.419-3.617-1.966s-1.249-1.691-2.005-1.612l-3.065-3.588s-.077-1.141-.864-1.141c0,0,1.458-1.179.943-1.887s-.079-3.853-.079-3.853Z"
            transform="translate(-115.91 -364.773)" fill="#67647e"/>
      <path id="Path_728" data-name="Path 728" d="M127.876,500.189s-4.13-.077-4.64.983S126.618,499.6,127.876,500.189Z" transform="translate(-119.233 -408.083)" opacity="0.1"/>
      <path id="Path_729" data-name="Path 729" d="M184.45,554.655a1.131,1.131,0,0,0,.017.208,1.389,1.389,0,0,0,1.3,1.181h.075a1.387,1.387,0,0,0,1.387-1.389,1.354,1.354,0,0,0-.077-.452,2.387,2.387,0,0,0,.675-1.947,3.085,3.085,0,0,1-.977-.346,6.5,6.5,0,0,1-.685,1.4,1.385,1.385,0,0,0-1.714,1.349Z" transform="translate(-167.736 -449.102)"
            opacity="0.1"/>
      <path id="Path_730" data-name="Path 730" d="M192.318,550.43s.931.208.931.379.208,1.706-.814,2.334-.916-.879-.916-.879S192.4,550.915,192.318,550.43Z" transform="translate(-173.33 -447.931)" fill="#575988"/>
      <circle id="Ellipse_88" data-name="Ellipse 88" cx="1.389" cy="1.389" r="1.389" transform="translate(16.558 104.163)" fill="#e4aab4"/>
      <circle id="Ellipse_89" data-name="Ellipse 89" cx="1.193" cy="1.193" r="1.193" transform="translate(16.754 104.359)" fill="#dce6f2"/>
      <path id="Path_731" data-name="Path 731" d="M190.85,567.67a6.875,6.875,0,0,1-6.71.891v1.181s2.516,1.728,4.79.681S190.85,567.67,190.85,567.67Z" transform="translate(-167.491 -461.58)" opacity="0.1"/>
      <path id="Path_732" data-name="Path 732" d="M190.85,566.16a6.881,6.881,0,0,1-6.71.891v1.179s2.516,1.731,4.79.683S190.85,566.16,190.85,566.16Z" transform="translate(-167.491 -460.385)" opacity="0.1"/>
      <path id="Path_733" data-name="Path 733" d="M190.85,566.16a6.881,6.881,0,0,1-6.71.891v1.179s2.516,1.731,4.79.683S190.85,566.16,190.85,566.16Z" transform="translate(-167.491 -460.385)" fill="#444053"/>
      <path id="Path_734" data-name="Path 734" d="M190.49,566.16a6.881,6.881,0,0,1-6.71.891v1.179s2.516,1.731,4.79.683S190.49,566.16,190.49,566.16Z" transform="translate(-167.206 -460.385)" opacity="0.05"/>
      <path id="Path_735" data-name="Path 735" d="M242.679,776.41s-3.932.723-4.509.879.158.433.158.433S241.916,777.078,242.679,776.41Z" transform="translate(-210.094 -626.851)" opacity="0.1"/>
      <path id="Path_736" data-name="Path 736" d="M248.8,758.833c-.065,0-2.672-.735-3.236-1.993" transform="translate(-216.12 -611.356)" opacity="0.1"/>
      <path id="Path_737" data-name="Path 737" d="M235.64,694.154s-1.056,1.389-1.739,1.352S235.02,694.1,235.64,694.154Z" transform="translate(-206.769 -561.724)" opacity="0.1"/>
      <path id="Path_738" data-name="Path 738" d="M235.812,705.24s-.446.983-1.1.668" transform="translate(-207.53 -570.502)" opacity="0.1"/>
      <path id="Path_739" data-name="Path 739" d="M217.174,601.549l-2.788,7.353s-.394-4.731.437-6.147A2.459,2.459,0,0,1,217.174,601.549Z" transform="translate(-191.364 -488.396)" opacity="0.05"/>
      <g id="Group_473" data-name="Group 473" transform="translate(9.007 54.667)" opacity="0.1">
        <path id="Path_740" data-name="Path 740" d="M195.17,320.967l.025-.106.448-.121-.05.221A3.572,3.572,0,0,1,195.17,320.967Z" transform="translate(-185.23 -320.74)"/>
        <path id="Path_741" data-name="Path 741" d="M199.734,324.437l-.046-.044a.939.939,0,0,1-.271-.958,1.331,1.331,0,0,1,.223-.354,3.484,3.484,0,0,0,.646-.192c.027.394-.416.65-.554,1.018A.8.8,0,0,0,199.734,324.437Z" transform="translate(-188.564 -322.442)"/>
        <path id="Path_742" data-name="Path 742"
              d="M159.7,346.4a2.6,2.6,0,0,0,1.041-1.308c.223-.523.36-1.081.587-1.6a4.963,4.963,0,0,1,1.041-1.531.673.673,0,0,1,.279-.192.754.754,0,0,1,.575.158,2.576,2.576,0,0,0,.87.381.931.931,0,0,0,.875-.262,1.316,1.316,0,0,0,.137-1.093,13.444,13.444,0,0,1-.417-2.441,2.4,2.4,0,0,1,1.031-2.126,8.748,8.748,0,0,1,2.128-.464,2.69,2.69,0,0,0,.989-.506l.054-.05a1.439,1.439,0,0,1,.173.081c.112.06.235.169.208.294a.3.3,0,0,1-.117.146,2.7,2.7,0,0,1-.989.508,8.747,8.747,0,0,0-2.128.462,2.389,2.389,0,0,0-1.031,2.128,13.628,13.628,0,0,0,.416,2.441,1.311,1.311,0,0,1-.137,1.091.933.933,0,0,1-.875.264,2.617,2.617,0,0,1-.87-.381.764.764,0,0,0-.575-.16.694.694,0,0,0-.279.192,5,5,0,0,0-1.041,1.533c-.227.521-.364,1.079-.587,1.6a2.593,2.593,0,0,1-1.041,1.306,1.316,1.316,0,0,1-1.576-.167,1.259,1.259,0,0,1-.235-.394A1.349,1.349,0,0,0,159.7,346.4Z"
              transform="translate(-155.967 -332.315)"/>
        <path id="Path_743" data-name="Path 743" d="M148.927,372.054c-.394-.5-.91-.92-1.279-1.443a3.476,3.476,0,0,1-.208-.321A12.932,12.932,0,0,1,148.927,372.054Z" transform="translate(-147.44 -359.971)"/>
      </g>
      <g id="Group_474" data-name="Group 474" transform="translate(59.619 24.29)" opacity="0.1">
        <path id="Path_744" data-name="Path 744" d="M340.859,146.151,286.29,157.032V126.348l48.686-9.708Z" transform="translate(-286.29 -116.64)" opacity="0.2"/>
      </g>
      <g id="Group_475" data-name="Group 475" transform="translate(69.515 29.819)" opacity="0.2">
        <rect id="Rectangle_193" data-name="Rectangle 193" width="84.015" height="30.09" transform="translate(0.002)" fill="#0288d1" opacity="0.2"/>
        <path id="Path_745" data-name="Path 745"
              d="M522.017,201.43h-2.5v.208h2.5Zm-5,0h-2.5v.208h2.5Zm-5,0h-2.5v.208h2.5Zm-5,0h-2.5v.208h2.5Zm-5,0h-2.5v.208h2.5Zm-5,0h-2.5v.208h2.5Zm-5,0h-2.5v.208h2.5Zm-5,0h-2.5v.208h2.5Zm-5,0h-2.5v.208h2.5Zm-5,0h-2.5v.208h2.5Zm-5,0h-2.5v.208h2.5Zm-5,0h-2.5v.208h2.5Zm-5,0h-2.5v.208h2.5Zm-5,0h-2.5v.208h2.5Zm-5,0h-2.5v.208h2.5Zm-5,0h-2.5v.208h2.5Zm-5,0h-2.5v.208h2.5Zm-3.842.952H438v2.5h.208Zm0,5H438v2.5h.208Zm0,5H438v2.5h.208Zm0,5H438v2.5h.208Zm0,5H438v2.5h.208Zm0,5H438v2.5h.208Zm3.136,3.942h-2.5v.208h2.5Zm5,0h-2.5v.208h2.5Zm5,0h-2.5v.208h2.5Zm5,0h-2.5v.208h2.5Zm5,0h-2.5v.208h2.5Zm5,0h-2.5v.208h2.5Zm5,0h-2.5v.208h2.5Zm5,0h-2.5v.208h2.5Zm5,0h-2.5v.208h2.5Zm5,0h-2.5v.208h2.5Zm5,0h-2.5v.208h2.5Zm5,0h-2.5v.208h2.5Zm5,0h-2.5v.208h2.5Zm5,0h-2.5v.208h2.5Zm5,0h-2.5v.208h2.5Zm5,0h-2.5v.208h2.5Zm5,0h-2.5v.208h2.5Zm.7-4.086h-.208v2.5h.208Zm0-5h-.208v2.5h.208Zm0-5h-.208v2.5h.208Zm0-5h-.208v2.5h.208Zm0-5h-.208v2.5h.208Zm0-5h-.208v2.5h.208Z"
              transform="translate(-438 -201.428)" fill="#0288d1"/>
      </g>
      <g id="Group_476" data-name="Group 476" transform="translate(69.515 107.375)" opacity="0.2">
        <rect id="Rectangle_194" data-name="Rectangle 194" width="84.015" height="30.09" transform="translate(0.002)" fill="#0288d1" opacity="0.2"/>
        <path id="Path_746" data-name="Path 746"
              d="M522.017,573.85h-2.5v.208h2.5Zm-5,0h-2.5v.208h2.5Zm-5,0h-2.5v.208h2.5Zm-5,0h-2.5v.208h2.5Zm-5,0h-2.5v.208h2.5Zm-5,0h-2.5v.208h2.5Zm-5,0h-2.5v.208h2.5Zm-5,0h-2.5v.208h2.5Zm-5,0h-2.5v.208h2.5Zm-5,0h-2.5v.208h2.5Zm-5,0h-2.5v.208h2.5Zm-5,0h-2.5v.208h2.5Zm-5,0h-2.5v.208h2.5Zm-5,0h-2.5v.208h2.5Zm-5,0h-2.5v.208h2.5Zm-5,0h-2.5v.208h2.5Zm-5,0h-2.5v.208h2.5Zm-3.842.95H438v2.5h.208Zm0,5H438v2.5h.208Zm0,5H438v2.5h.208Zm0,5H438v2.5h.208Zm0,5H438v2.5h.208Zm0,5H438v2.5h.208Zm3.136,3.942h-2.5v.208h2.5Zm5,0h-2.5v.208h2.5Zm5,0h-2.5v.208h2.5Zm5,0h-2.5v.208h2.5Zm5,0h-2.5v.208h2.5Zm5,0h-2.5v.208h2.5Zm5,0h-2.5v.208h2.5Zm5,0h-2.5v.208h2.5Zm5,0h-2.5v.208h2.5Zm5,0h-2.5v.208h2.5Zm5,0h-2.5v.208h2.5Zm5,0h-2.5v.208h2.5Zm5,0h-2.5v.208h2.5Zm5,0h-2.5v.208h2.5Zm5,0h-2.5v.208h2.5Zm5,0h-2.5v.208h2.5Zm5,0h-2.5v.208h2.5Zm.7-4.086h-.208v2.5h.208Zm0-5h-.208v2.5h.208Zm0-5h-.208v2.5h.208Zm0-5h-.208v2.5h.208Zm0-5h-.208v2.5h.208Zm0-5h-.208v2.5h.208Z"
              transform="translate(-438 -573.848)" fill="#0288d1"/>
      </g>
      <rect id="Rectangle_195" data-name="Rectangle 195" width="84.015" height="30.09" transform="matrix(0.981, -0.196, 0.196, 0.981, 22.411, 38.661)" fill="#f6f7f9"/>
      <rect id="Rectangle_196" data-name="Rectangle 196" width="84.015" height="30.09" transform="matrix(0.981, -0.196, 0.196, 0.981, 22.411, 38.661)" fill="#0288d1" opacity="0.4"/>
      <path id="Path_747" data-name="Path 747" d="M368.145,236.131a2.447,2.447,0,0,0-.3,1.537,2.082,2.082,0,0,0,1.593-2.428A2.451,2.451,0,0,0,368.145,236.131Z" transform="translate(-312.92 -198.378)" fill="#f6f7f9"/>
      <path id="Path_748" data-name="Path 748" d="M524.382,205.691a2.445,2.445,0,0,0,1.308.862,2.083,2.083,0,0,0-1.645-2.393A2.446,2.446,0,0,0,524.382,205.691Z" transform="translate(-436.599 -173.77)" fill="#f6f7f9"/>
      <path id="Path_749" data-name="Path 749" d="M467.964,206.753a1.678,1.678,0,0,0,.154,1.064,1.429,1.429,0,0,0,.475-1.937,1.681,1.681,0,0,0-.629.873Z" transform="translate(-392.187 -175.132)" fill="#f6f7f9"/>
      <path id="Path_750" data-name="Path 750" d="M394.985,274.373a1.687,1.687,0,0,0,.154,1.066,1.431,1.431,0,0,0,.475-1.939A1.681,1.681,0,0,0,394.985,274.373Z" transform="translate(-334.405 -228.671)" fill="#f6f7f9"/>
      <path id="Path_751" data-name="Path 751" d="M432.5,286.245a1.684,1.684,0,0,0,.8.716,1.431,1.431,0,0,0-.881-1.791A1.678,1.678,0,0,0,432.5,286.245Z" transform="translate(-364.027 -237.91)" fill="#f6f7f9"/>
      <path id="Path_752" data-name="Path 752" d="M419.066,234.07a2.445,2.445,0,0,0,.752,1.376,2.083,2.083,0,0,0-.333-2.886A2.448,2.448,0,0,0,419.066,234.07Z" transform="translate(-353.491 -196.256)" fill="#f6f7f9"/>
      <path id="Path_753" data-name="Path 753" d="M465.763,238.63a2.447,2.447,0,0,0-.271,1.543,2.082,2.082,0,0,0,1.541-2.464A2.443,2.443,0,0,0,465.763,238.63Z" transform="translate(-390.23 -200.334)" fill="#f6f7f9"/>
      <ellipse id="Ellipse_90" data-name="Ellipse 90" cx="8.374" cy="1.416" rx="8.374" ry="1.416" transform="matrix(0.981, -0.196, 0.196, 0.981, 88.456, 49.878)" fill="#f6f7f9"/>
      <path id="Path_754" data-name="Path 754"
            d="M553.477,269.942a2.42,2.42,0,0,0,.546-1.337,1.081,1.081,0,0,0-.787-1.1c-.539-.092-1.008.364-1.343.8s-.725.927-1.272.958a2.178,2.178,0,0,0,.262-2.135.851.851,0,0,0-.264-.371c-.337-.244-.818-.015-1.106.287a4.257,4.257,0,0,0-.668,3.761,6.267,6.267,0,0,1-.306-1.435,1.494,1.494,0,0,0-.793-1.162,1.627,1.627,0,0,0-.86-.029,1.692,1.692,0,0,0-1.249.646,1.353,1.353,0,0,0,.379,1.629,5.269,5.269,0,0,0,1.6.833,3.124,3.124,0,0,1,1.174.746.872.872,0,0,1,.106.154l2.992-.6A8.486,8.486,0,0,0,553.477,269.942Z"
            transform="translate(-453.591 -223.253)" fill="#f6f7f9"/>
      <path id="Path_755" data-name="Path 755" d="M292.137,289.41s-2.378-4.531-1.4-8.413a7.759,7.759,0,0,0-.337-4.894,13.04,13.04,0,0,0-1.12-2.1" transform="translate(-250.735 -229.066)" fill="none" stroke="#f6f7f9" stroke-miterlimit="10" stroke-width="1"/>
      <path id="Path_756" data-name="Path 756" d="M283.939,258.839a8.6,8.6,0,0,1-.61,2.514,8.654,8.654,0,0,1-1.526-2.082,1.089,1.089,0,1,1,2.137-.417Z" transform="translate(-244.792 -216.346)" fill="#f6f7f9"/>
      <path id="Path_757" data-name="Path 757" d="M295.828,270.61c-.221.56-1.874,1.781-1.874,1.781a8.621,8.621,0,0,1-.146-2.584,1.089,1.089,0,1,1,2.024.8Z" transform="translate(-254.264 -225.202)" fill="#f6f7f9"/>
      <path id="Path_758" data-name="Path 758" d="M299.18,295.775a8.64,8.64,0,0,1-2.52.587,8.665,8.665,0,0,1,1.177-2.3,1.09,1.09,0,0,1,1.343,1.716Z" transform="translate(-256.579 -244.765)" fill="#f6f7f9"/>
      <path id="Path_759" data-name="Path 759" d="M298.882,317.236a8.626,8.626,0,0,1-2.382,1.006,8.583,8.583,0,0,1,.771-2.47,1.089,1.089,0,1,1,1.612,1.458Z" transform="translate(-256.452 -261.811)" fill="#f6f7f9"/>
      <path id="Path_760" data-name="Path 760" d="M282.289,279.956a8.626,8.626,0,0,0,2.561.36,8.613,8.613,0,0,0-1.379-2.189,1.089,1.089,0,0,0-1.183,1.828Z" transform="translate(-244.824 -232.207)" fill="#f6f7f9"/>
      <path id="Path_761" data-name="Path 761" d="M280.419,304.214a8.681,8.681,0,0,0,2.551-.416,8.648,8.648,0,0,0-1.97-1.678,1.09,1.09,0,0,0-.581,2.1Z" transform="translate(-243.087 -251.298)" fill="#f6f7f9"/>
      <path id="Path_762" data-name="Path 762" d="M283.74,328.633a8.584,8.584,0,0,0,2.589.015,8.506,8.506,0,0,0-1.666-1.985,1.089,1.089,0,1,0-.929,1.97Z" transform="translate(-245.849 -270.68)" fill="#f6f7f9"/>
      <path id="Path_763" data-name="Path 763" d="M338.123,298.73s.668.589.1,1.791-1.031,2.214-.641,2.815c0,0,.783-2.178,1.728-2.395S339.4,299.692,338.123,298.73Z" transform="translate(-288.866 -248.646)" fill="#f6f7f9"/>
      <path id="Path_764" data-name="Path 764" d="M338.5,298.73a.959.959,0,0,1,.152.2c1.145.906,1.845,1.826.956,2.028-.833.192-1.529,1.874-1.693,2.3.015.027.029.054.046.079s.783-2.178,1.728-2.395S339.776,299.692,338.5,298.73Z" transform="translate(-289.238 -248.646)" opacity="0.1"/>
      <path id="Path_765" data-name="Path 765" d="M345.754,301.427c.05.244.06.448.027.454s-.1-.185-.15-.431,0-.135.044-.142S345.706,301.189,345.754,301.427Z" transform="translate(-295.335 -250.662)" fill="#f6f7f9"/>
      <path id="Path_766" data-name="Path 766" d="M346.728,302.413c-.192.16-.364.269-.387.242s.115-.177.306-.337.123-.056.146-.031S346.917,302.255,346.728,302.413Z" transform="translate(-295.911 -251.417)" fill="#f6f7f9"/>
      <path id="Path_767" data-name="Path 767" d="M324.158,301.42s-.392.8.591,1.693,1.8,1.649,1.666,2.353c0,0-1.558-1.712-2.516-1.549S323.343,302.79,324.158,301.42Z" transform="translate(-277.704 -250.776)" fill="#f6f7f9"/>
      <path id="Path_768" data-name="Path 768" d="M324.172,301.42a.832.832,0,0,0-.065.24c-.712,1.277-1,2.393-.106,2.241.833-.142,2.132,1.147,2.447,1.474a.653.653,0,0,1-.012.092s-1.558-1.712-2.516-1.549S323.358,302.79,324.172,301.42Z" transform="translate(-277.719 -250.776)" opacity="0.1"/>
      <path id="Path_769" data-name="Path 769" d="M323.289,305.935c.048.244.117.437.15.429s.021-.208-.027-.454-.06-.123-.094-.115S323.242,305.691,323.289,305.935Z" transform="translate(-277.646 -254.21)" fill="#f6f7f9"/>
      <path id="Path_770" data-name="Path 770" d="M321.439,307.755c.239.075.439.108.45.075s-.175-.119-.417-.194-.135,0-.146.027S321.206,307.687,321.439,307.755Z" transform="translate(-276.08 -255.673)" fill="#f6f7f9"/>
      <ellipse id="Ellipse_91" data-name="Ellipse 91" cx="5.923" cy="1.002" rx="5.923" ry="1.002" transform="matrix(0.981, -0.196, 0.196, 0.981, 35.518, 60.857)" fill="#f6f7f9"/>
      <ellipse id="Ellipse_92" data-name="Ellipse 92" cx="4.205" cy="0.71" rx="4.205" ry="0.71" transform="matrix(0.981, -0.196, 0.196, 0.981, 44.499, 55.17)" fill="#f6f7f9"/>
      <ellipse id="Ellipse_93" data-name="Ellipse 93" cx="2.882" cy="0.487" rx="2.882" ry="0.487" transform="matrix(0.981, -0.196, 0.196, 0.981, 67.624, 51.509)" fill="#f6f7f9"/>
      <ellipse id="Ellipse_94" data-name="Ellipse 94" cx="2.278" cy="0.385" rx="2.278" ry="0.385" transform="matrix(0.981, -0.196, 0.196, 0.981, 79.682, 46.576)" fill="#f6f7f9"/>
      <ellipse id="Ellipse_95" data-name="Ellipse 95" cx="4.205" cy="0.71" rx="4.205" ry="0.71" transform="matrix(0.981, -0.196, 0.196, 0.981, 55.721, 57.128)" fill="#f6f7f9"/>
      <ellipse id="Ellipse_96" data-name="Ellipse 96" cx="4.205" cy="0.71" rx="4.205" ry="0.71" transform="matrix(0.981, -0.196, 0.196, 0.981, 72.681, 54.469)" fill="#f6f7f9"/>
      <rect id="Rectangle_197" data-name="Rectangle 197" width="9.267" height="2.128" transform="matrix(0.981, -0.196, 0.196, 0.981, 93.079, 27.675)" fill="#f6f7f9"/>
      <path id="Path_771" data-name="Path 771" d="M627.443,451.168l-.269-.267a.289.289,0,0,1,0-.416l2.341-2.341a.29.29,0,0,1,.417,0l2.339,2.339a.29.29,0,0,1,0,.417l-.275.269a.289.289,0,0,1-.417,0L630.2,449.71v3.461a.287.287,0,0,1-.287.289h-.385a.289.289,0,0,1-.289-.289V449.72l-1.383,1.458a.285.285,0,0,1-.41-.01Z"
            transform="translate(-518.194 -366.875)" fill="#f6f7f9"/>
      <path id="Path_772" data-name="Path 772" d="M619.295,435.935a4.748,4.748,0,1,1-4.746,4.747,4.748,4.748,0,0,1,4.746-4.747m0-.625a5.373,5.373,0,1,0,5.371,5.372A5.373,5.373,0,0,0,619.295,435.31Z" transform="translate(-507.77 -356.784)" fill="#f6f7f9"/>
      <path id="Path_773" data-name="Path 773" d="M627.443,636.168l-.269-.267a.289.289,0,0,1,0-.417l2.341-2.341a.29.29,0,0,1,.417,0l2.339,2.339a.29.29,0,0,1,0,.417l-.275.269a.292.292,0,0,1-.417,0l-1.387-1.458v3.461a.289.289,0,0,1-.289.289h-.377a.287.287,0,0,1-.287-.289V634.71l-1.383,1.458a.285.285,0,0,1-.412,0Z"
            transform="translate(-518.194 -513.349)" fill="#f6f7f9"/>
      <path id="Path_774" data-name="Path 774" d="M619.295,620.925a4.748,4.748,0,1,1-4.746,4.747,4.748,4.748,0,0,1,4.746-4.747m0-.625a5.373,5.373,0,1,0,5.371,5.371,5.373,5.373,0,0,0-5.371-5.371Z" transform="translate(-507.77 -503.25)" fill="#f6f7f9"/>
      <path id="Path_775" data-name="Path 775" d="M1020.229,692.73s1.487,1.943-.685,4.875-3.957,5.414-3.238,7.239c0,0,3.276-5.448,5.943-5.523S1023.163,696.006,1020.229,692.73Z" transform="translate(-826.232 -560.597)" fill="#0288d1"/>
      <path id="Path_776" data-name="Path 776" d="M1020.542,692.73a2.394,2.394,0,0,1,.3.608c2.6,3.057,3.988,5.91,1.487,5.983-2.33.067-5.125,4.232-5.793,5.283a1.9,1.9,0,0,0,.079.239s3.276-5.448,5.943-5.523S1023.477,696.006,1020.542,692.73Z" transform="translate(-826.545 -560.597)" opacity="0.1"/>
      <path id="Path_777" data-name="Path 777" d="M1047.694,702.953c0,.683-.077,1.237-.173,1.237s-.171-.554-.171-1.237.1-.362.189-.362S1047.694,702.268,1047.694,702.953Z" transform="translate(-850.939 -568.344)" fill="#ffd037"/>
      <path id="Path_778" data-name="Path 778" d="M1049.118,706.758c-.6.327-1.125.525-1.17.442s.417-.417,1.006-.743.365-.087.417,0S1049.718,706.437,1049.118,706.758Z" transform="translate(-851.41 -571.332)" fill="#ffd037"/>
      <path id="Path_779" data-name="Path 779" d="M985.4,692.73s-1.485,1.943.687,4.875,3.957,5.414,3.238,7.239c0,0-3.276-5.448-5.943-5.523S982.468,696.006,985.4,692.73Z" transform="translate(-799.25 -560.597)" fill="#0288d1"/>
      <path id="Path_780" data-name="Path 780" d="M985.4,692.73a2.44,2.44,0,0,0-.3.608c-2.6,3.057-3.988,5.91-1.487,5.983,2.328.067,5.125,4.232,5.793,5.283a2.329,2.329,0,0,1-.079.239s-3.276-5.448-5.943-5.523S982.468,696.006,985.4,692.73Z" transform="translate(-799.25 -560.597)" opacity="0.1"/>
      <path id="Path_781" data-name="Path 781" d="M984.81,702.953c0,.683.077,1.237.171,1.237s.173-.554.173-1.237-.1-.362-.192-.362S984.81,702.268,984.81,702.953Z" transform="translate(-801.423 -568.344)" fill="#ffd037"/>
      <path id="Path_782" data-name="Path 782" d="M978.851,706.758c.6.327,1.125.525,1.168.442s-.4-.417-1-.743-.364-.087-.416,0S978.251,706.437,978.851,706.758Z" transform="translate(-796.411 -571.332)" fill="#ffd037"/>
      <ellipse id="Ellipse_97" data-name="Ellipse 97" cx="15.535" cy="2.384" rx="15.535" ry="2.384" transform="translate(174.539 154.343)" fill="#0288d1" opacity="0.1"/>
      <path id="Path_783" data-name="Path 783"
            d="M994.5,734.862l-.075.606-.1.858-.044.356-.1.858-.046.358-.11.852-1.189,9.746c-.106.871-1.526,1.547-3.243,1.547H983.41c-1.716,0-3.136-.677-3.242-1.547l-1.183-9.746-.106-.856-.042-.358-.106-.858-.044-.356-.1-.858-.075-.606c-.058-.491.71-.908,1.681-.908h12.634C993.791,733.96,994.562,734.377,994.5,734.862Z"
            transform="translate(-796.431 -593.233)" fill="#65617d"/>
      <path id="Path_784" data-name="Path 784" d="M890.533,683.01l-.1.856H874.794l-.1-.856Z" transform="translate(-692.538 -540.775)" fill="#9d9cb5"/>
      <path id="Path_785" data-name="Path 785" d="M890.948,688.84l-.1.858H875.506l-.106-.858Z" transform="translate(-693.1 -545.391)" fill="#9d9cb5"/>
      <path id="Path_786" data-name="Path 786" d="M891.368,694.67l-.1.858h-15.04l-.1-.858Z" transform="translate(-693.67 -550.007)" fill="#9d9cb5"/>
    </g>
  </g>
</svg>
